STARTFONT 2.1
COMMENT
COMMENT Converted from OpenType font "RuthlessSketch_Regular.ttf" by "otf2bdf 3.0".
COMMENT
FONT -FreeType-Ruthless Sketch-Medium-R-Normal--25-180-100-100-P-128-ISO10646-1
SIZE 18 100 100
FONTBOUNDINGBOX 29 28 -11 -5
STARTPROPERTIES 19
FOUNDRY "FreeType"
FAMILY_NAME "Ruthless Sketch"
WEIGHT_NAME "Medium"
SLANT "R"
SETWIDTH_NAME "Normal"
ADD_STYLE_NAME ""
PIXEL_SIZE 25
POINT_SIZE 180
RESOLUTION_X 100
RESOLUTION_Y 100
SPACING "P"
AVERAGE_WIDTH 128
CHARSET_REGISTRY "ISO10646"
CHARSET_ENCODING "1"
FONT_ASCENT 23
FONT_DESCENT 5
COPYRIGHT "© 2024 GGBotNet. All Rights Reserved."
_OTF_FONTFILE "RuthlessSketch_Regular.ttf"
_OTF_PSNAME "RuthlessSketch-Regular"
ENDPROPERTIES
CHARS 1105
STARTCHAR 0020
ENCODING 32
SWIDTH 280 0
DWIDTH 7 0
BBX 0 0 0 0
BITMAP
ENDCHAR
STARTCHAR 0021
ENCODING 33
SWIDTH 280 0
DWIDTH 7 0
BBX 7 19 0 0
BITMAP
06
FE
FE
7C
7C
7C
7C
7C
7C
7C
7C
3C
38
00
00
3C
3C
3C
3C
ENDCHAR
STARTCHAR 0022
ENCODING 34
SWIDTH 360 0
DWIDTH 9 0
BBX 10 9 0 9
BITMAP
7380
F3C0
F380
F380
7380
7380
6180
6180
2100
ENDCHAR
STARTCHAR 0023
ENCODING 35
SWIDTH 480 0
DWIDTH 12 0
BBX 13 18 0 0
BITMAP
0020
0630
0E30
0E70
0E60
7FF8
7FF8
7FF8
1CC0
19C0
FFF8
FFF0
7FF0
3B80
7380
7380
6380
2300
ENDCHAR
STARTCHAR 0024
ENCODING 36
SWIDTH 480 0
DWIDTH 12 0
BBX 12 23 0 -3
BITMAP
0700
0700
0700
0FC0
3FF0
7FF0
7FF0
7F30
7F00
7F00
3FC0
0FE0
07E0
07E0
7FE0
7FE0
7FE0
7FC0
FFC0
3F00
0700
0700
0700
ENDCHAR
STARTCHAR 0025
ENCODING 37
SWIDTH 560 0
DWIDTH 14 0
BBX 14 17 0 0
BITMAP
1038
7C70
6C70
CCE0
CCE0
6DC0
7DC0
1380
0730
0778
0ED8
0ECC
1CCC
38DC
3878
7030
2000
ENDCHAR
STARTCHAR 0026
ENCODING 38
SWIDTH 480 0
DWIDTH 12 0
BBX 12 17 0 0
BITMAP
3E00
7F00
7F00
7300
7F00
3E00
3E70
7F70
7FE0
73E0
F1E0
F0E0
F9F0
7FF0
7FF0
3F90
0400
ENDCHAR
STARTCHAR 0027
ENCODING 39
SWIDTH 200 0
DWIDTH 5 0
BBX 5 9 0 9
BITMAP
78
F8
F8
F8
78
70
70
70
20
ENDCHAR
STARTCHAR 0028
ENCODING 40
SWIDTH 320 0
DWIDTH 8 0
BBX 8 23 0 -4
BITMAP
06
0F
1F
1C
38
78
70
70
F0
F0
F0
F0
F0
F0
F0
70
70
78
38
1C
1E
0F
07
ENDCHAR
STARTCHAR 0029
ENCODING 41
SWIDTH 320 0
DWIDTH 8 0
BBX 7 23 1 -4
BITMAP
60
F0
70
38
3C
1C
0E
0E
0E
0E
0E
0E
0E
0E
0E
0E
0E
1C
1C
38
78
F0
E0
ENDCHAR
STARTCHAR 002A
ENCODING 42
SWIDTH 320 0
DWIDTH 8 0
BBX 8 7 0 11
BITMAP
18
FF
3C
18
7E
5A
18
ENDCHAR
STARTCHAR 002B
ENCODING 43
SWIDTH 440 0
DWIDTH 11 0
BBX 12 11 0 3
BITMAP
0F00
0F00
0F00
7FE0
FFF0
FFF0
FFF0
0F00
0F00
0F00
0F00
ENDCHAR
STARTCHAR 002C
ENCODING 44
SWIDTH 200 0
DWIDTH 5 0
BBX 5 8 0 -4
BITMAP
70
78
78
78
70
E0
E0
40
ENDCHAR
STARTCHAR 002D
ENCODING 45
SWIDTH 360 0
DWIDTH 9 0
BBX 9 4 0 7
BITMAP
FF80
FF80
FF80
FF80
ENDCHAR
STARTCHAR 002E
ENCODING 46
SWIDTH 200 0
DWIDTH 5 0
BBX 5 4 0 0
BITMAP
78
F8
F8
70
ENDCHAR
STARTCHAR 002F
ENCODING 47
SWIDTH 440 0
DWIDTH 11 0
BBX 11 20 0 -1
BITMAP
0080
01E0
01E0
03C0
03C0
0380
0780
0780
0F00
0F00
1F00
1E00
1E00
3E00
3E00
7C00
7C00
7C00
7800
F800
ENDCHAR
STARTCHAR 0030
ENCODING 48
SWIDTH 400 0
DWIDTH 10 0
BBX 10 17 0 1
BITMAP
3C00
3E00
7F00
7F80
7F80
7B80
73C0
F3C0
F3C0
F3C0
7FC0
7F80
7F80
3F80
3F80
1F00
0F00
ENDCHAR
STARTCHAR 0031
ENCODING 49
SWIDTH 400 0
DWIDTH 10 0
BBX 9 16 1 1
BITMAP
0E00
1F00
7F00
FF00
EF00
6F00
1F00
1F00
1F00
1F00
1F00
1F00
1F80
3F80
3F80
1F80
ENDCHAR
STARTCHAR 0032
ENCODING 50
SWIDTH 480 0
DWIDTH 12 0
BBX 11 17 1 0
BITMAP
3E00
7F00
FF80
FF80
E780
4780
0700
0700
0F00
0E00
1FE0
1FE0
3FE0
3FE0
FFE0
FF80
1C00
ENDCHAR
STARTCHAR 0033
ENCODING 51
SWIDTH 440 0
DWIDTH 11 0
BBX 11 17 0 0
BITMAP
3E00
7F00
7F00
0E00
0E00
1E00
3F80
3FC0
3FE0
00E0
00E0
00E0
00E0
E3E0
7FC0
3FC0
0F00
ENDCHAR
STARTCHAR 0034
ENCODING 52
SWIDTH 440 0
DWIDTH 11 0
BBX 11 17 0 0
BITMAP
1C00
1C00
3C00
3C00
3800
3800
7BC0
7FE0
7FE0
7FC0
C700
0700
0700
0F00
0F00
0F80
1F80
ENDCHAR
STARTCHAR 0035
ENCODING 53
SWIDTH 480 0
DWIDTH 12 0
BBX 12 17 0 0
BITMAP
1FE0
1FE0
1F80
1C00
3C00
3F80
3FC0
7FC0
03E0
01F0
01F0
01F0
81F0
63E0
7FE0
7FC0
1F80
ENDCHAR
STARTCHAR 0036
ENCODING 54
SWIDTH 480 0
DWIDTH 12 0
BBX 12 18 0 -1
BITMAP
03C0
0FE0
1FE0
3C00
3800
7800
7F00
7FC0
FFE0
FBF0
F8F0
70F0
70F0
78F0
79F0
3FE0
1FC0
0200
ENDCHAR
STARTCHAR 0037
ENCODING 55
SWIDTH 400 0
DWIDTH 10 0
BBX 9 16 1 0
BITMAP
FF80
FF80
FF80
FF80
8780
0780
0F80
1F00
1F00
3F00
3E00
7E00
7E00
FE00
FC00
F800
ENDCHAR
STARTCHAR 0038
ENCODING 56
SWIDTH 480 0
DWIDTH 12 0
BBX 12 18 0 0
BITMAP
0200
1F80
3F80
3DC0
39C0
1F80
1F80
3FC0
7FC0
7FE0
78F0
F0F0
F8F0
7CF0
7FF0
7FE0
1FE0
0780
ENDCHAR
STARTCHAR 0039
ENCODING 57
SWIDTH 440 0
DWIDTH 11 0
BBX 11 17 0 0
BITMAP
3F00
7FC0
7FE0
71E0
71E0
F1E0
F9E0
7FE0
7FE0
0FE0
00E0
00E0
61E0
7FE0
7FC0
3FC0
0F80
ENDCHAR
STARTCHAR 003A
ENCODING 58
SWIDTH 200 0
DWIDTH 5 0
BBX 5 12 0 0
BITMAP
70
F8
F8
70
00
00
00
00
78
F8
78
70
ENDCHAR
STARTCHAR 003B
ENCODING 59
SWIDTH 200 0
DWIDTH 5 0
BBX 5 16 0 -4
BITMAP
78
78
F8
70
00
00
00
00
70
78
78
78
70
E0
E0
40
ENDCHAR
STARTCHAR 003C
ENCODING 60
SWIDTH 440 0
DWIDTH 11 0
BBX 12 14 0 2
BITMAP
0020
00E0
01F0
07F0
1FE0
FFE0
FE00
FC00
7F80
3FE0
0FE0
07E0
01E0
0070
ENDCHAR
STARTCHAR 003D
ENCODING 61
SWIDTH 480 0
DWIDTH 12 0
BBX 12 9 0 4
BITMAP
7FF0
7FF0
7FF0
0000
0000
7FF0
FFF0
FFF0
7E00
ENDCHAR
STARTCHAR 003E
ENCODING 62
SWIDTH 440 0
DWIDTH 11 0
BBX 12 14 0 2
BITMAP
4000
F000
7C00
7E00
7F80
7FC0
0FE0
01F0
1FF0
7FE0
FF00
FC00
F000
6000
ENDCHAR
STARTCHAR 003F
ENCODING 63
SWIDTH 440 0
DWIDTH 11 0
BBX 10 18 1 0
BITMAP
7E00
FFC0
FFC0
FFC0
E3C0
03C0
03C0
07C0
1F80
3F00
3C00
3C00
1800
0000
1C00
3C00
3C00
1C00
ENDCHAR
STARTCHAR 0040
ENCODING 64
SWIDTH 640 0
DWIDTH 16 0
BBX 16 22 0 -4
BITMAP
03F0
1FFC
3FFC
3FFE
7FFE
7C1F
787F
F8FF
F1FF
F3CF
F387
F38F
FBDF
79FE
78FC
7820
7C00
7FFC
3FFE
3FFC
1FF8
01E0
ENDCHAR
STARTCHAR 0041
ENCODING 65
SWIDTH 600 0
DWIDTH 15 0
BBX 15 18 0 -1
BITMAP
01C0
01C0
01C0
03E0
03E0
07E0
07E0
07F0
0FF0
0EF0
1CF8
19F8
3FF8
3FFC
7CFC
787E
787E
C000
ENDCHAR
STARTCHAR 0042
ENCODING 66
SWIDTH 520 0
DWIDTH 13 0
BBX 13 17 0 0
BITMAP
7F00
7F80
FFC0
7FC0
79E0
79C0
79C0
7F80
7FE0
3FF0
3CF0
3CF8
3CF8
3FF0
3FF0
3FE0
1E00
ENDCHAR
STARTCHAR 0043
ENCODING 67
SWIDTH 480 0
DWIDTH 12 0
BBX 12 17 0 0
BITMAP
07C0
1FE0
3FF0
7FF0
7FF0
7E00
FC00
F800
7800
FC30
7FF0
7FF0
7FF0
3FF0
3FE0
1FC0
0300
ENDCHAR
STARTCHAR 0044
ENCODING 68
SWIDTH 440 0
DWIDTH 11 0
BBX 11 17 0 0
BITMAP
7C00
FF00
FF80
FFC0
FFC0
78E0
78E0
78E0
79E0
79C0
7FC0
7FC0
3F80
3F00
3E00
3C00
1000
ENDCHAR
STARTCHAR 0045
ENCODING 69
SWIDTH 480 0
DWIDTH 12 0
BBX 12 17 0 0
BITMAP
7FC0
FF80
7F80
7F80
7F80
7C00
3C00
3F80
3F80
3E00
3E20
3FE0
1FE0
1FF0
1FF0
1FE0
1E00
ENDCHAR
STARTCHAR 0046
ENCODING 70
SWIDTH 480 0
DWIDTH 12 0
BBX 12 18 0 0
BITMAP
0080
7FF0
FFF0
FFF0
FE00
F800
F800
FF00
7F00
FF00
FD00
F800
F800
F800
7800
7800
7800
7000
ENDCHAR
STARTCHAR 0047
ENCODING 71
SWIDTH 480 0
DWIDTH 12 0
BBX 12 17 0 0
BITMAP
07C0
0FE0
1FF0
3FE0
3C00
3800
7800
70F0
71F0
71F0
71F0
F9F0
FFF0
7FF0
7FC0
3F80
1C00
ENDCHAR
STARTCHAR 0048
ENCODING 72
SWIDTH 560 0
DWIDTH 14 0
BBX 13 17 1 0
BITMAP
3C00
7CF8
7CF8
7CF8
7CF0
7CF0
7FF0
7FF0
FFF0
FFF0
FFF0
FDF0
FDF0
F9F0
F9F0
F9F0
3900
ENDCHAR
STARTCHAR 0049
ENCODING 73
SWIDTH 320 0
DWIDTH 8 0
BBX 8 17 0 0
BITMAP
1F
3F
3E
3E
3E
3E
3E
3E
3E
3E
7E
7E
7E
7E
7E
7E
F0
ENDCHAR
STARTCHAR 004A
ENCODING 74
SWIDTH 440 0
DWIDTH 11 0
BBX 11 17 0 0
BITMAP
07C0
07E0
07E0
07E0
07E0
07E0
07E0
07E0
07E0
07E0
07E0
33E0
FBE0
FBC0
7FC0
3F80
1F00
ENDCHAR
STARTCHAR 004B
ENCODING 75
SWIDTH 520 0
DWIDTH 13 0
BBX 13 17 0 0
BITMAP
FE20
7E78
7EF8
7EF0
7FE0
7FE0
7FC0
7FC0
FF80
FF80
FFC0
FFE0
FFF0
FEF0
FE78
7E78
7E20
ENDCHAR
STARTCHAR 004C
ENCODING 76
SWIDTH 480 0
DWIDTH 12 0
BBX 11 17 1 0
BITMAP
1F00
3F00
7F00
7F00
7F00
7E00
7E00
7E00
7E00
7E00
FE00
FC00
FFE0
FFE0
FFE0
FFE0
FF80
ENDCHAR
STARTCHAR 004D
ENCODING 77
SWIDTH 640 0
DWIDTH 16 0
BBX 16 17 0 0
BITMAP
100C
181C
181C
3C3C
3E3C
3E7E
3F7E
3FFE
3FFE
7FFE
7EBE
7C3E
7C3E
783F
783F
F83F
F818
ENDCHAR
STARTCHAR 004E
ENCODING 78
SWIDTH 560 0
DWIDTH 14 0
BBX 14 17 0 0
BITMAP
1818
3E7C
3E7C
3E7C
7E78
7F78
7F78
7F78
7F78
7FF8
7FF8
7DF8
7DF8
7DF8
7CF8
7CF8
F060
ENDCHAR
STARTCHAR 004F
ENCODING 79
SWIDTH 520 0
DWIDTH 13 0
BBX 13 17 0 1
BITMAP
0E00
1F80
3FC0
3FE0
7FF0
7FF0
7CF8
F8F8
F8F8
F8F8
7FF8
7FF8
7FF8
7FF0
3FF0
1FE0
07C0
ENDCHAR
STARTCHAR 0050
ENCODING 80
SWIDTH 480 0
DWIDTH 12 0
BBX 12 17 0 0
BITMAP
3F00
7FC0
7FE0
7FE0
7CF0
7C70
7CF0
7DF0
7FF0
7FE0
7E00
7E00
FE00
7E00
FE00
FE00
FE00
ENDCHAR
STARTCHAR 0051
ENCODING 81
SWIDTH 600 0
DWIDTH 15 0
BBX 15 18 0 -1
BITMAP
1F80
3FC0
3FE0
7FF0
7DF0
78F0
7878
7878
F878
FCF8
FFF8
7FF0
7FF0
7FF0
3FF8
1FFC
027E
0078
ENDCHAR
STARTCHAR 0052
ENCODING 82
SWIDTH 560 0
DWIDTH 14 0
BBX 14 17 0 0
BITMAP
1F80
FFE0
FFF0
FC70
7C70
7C70
7EF0
7FF0
7FE0
7FC0
7FE0
7EE0
7EF0
7E78
7E78
3F3C
3E3C
ENDCHAR
STARTCHAR 0053
ENCODING 83
SWIDTH 480 0
DWIDTH 12 0
BBX 12 17 0 0
BITMAP
0FF0
1FF0
3FE0
3FE0
7FC0
7FC0
7C40
3E00
3F80
1FE0
03E0
01F0
6BF0
FFF0
FFE0
7FC0
1F80
ENDCHAR
STARTCHAR 0054
ENCODING 84
SWIDTH 560 0
DWIDTH 14 0
BBX 14 17 0 0
BITMAP
7FF8
7FF8
7FFC
7FFC
FFFC
73C0
0380
0380
0780
0780
0780
0780
0780
0780
0780
0780
0380
ENDCHAR
STARTCHAR 0055
ENCODING 85
SWIDTH 520 0
DWIDTH 13 0
BBX 13 16 0 0
BITMAP
3C78
3C78
7878
7878
7878
7878
7878
F878
FC78
7EF8
7FF8
7FF0
7FF0
3FF0
3FE0
1FC0
ENDCHAR
STARTCHAR 0056
ENCODING 86
SWIDTH 560 0
DWIDTH 14 0
BBX 13 16 1 1
BITMAP
0010
F0F8
FCF8
7CF8
7CF8
7EF8
3EF0
3EF0
1EF0
1FF0
0FF0
0FE0
07E0
03E0
03E0
01E0
ENDCHAR
STARTCHAR 0057
ENCODING 87
SWIDTH 720 0
DWIDTH 18 0
BBX 18 17 0 0
BITMAP
7803C0
F8C780
FCE780
7CEF80
7CEF80
7EEF80
3EFF00
3FFF00
1FFF00
1FFF00
0FFF00
0F9E00
0F9E00
079E00
031E00
030E00
010000
ENDCHAR
STARTCHAR 0058
ENCODING 88
SWIDTH 560 0
DWIDTH 14 0
BBX 14 16 0 0
BITMAP
003C
787C
FC7C
7CF8
7EF8
3EF0
1FF0
1FE0
0FE0
0FE0
0FE0
1FE0
1FF0
3EF0
3E78
7C70
ENDCHAR
STARTCHAR 0059
ENCODING 89
SWIDTH 600 0
DWIDTH 15 0
BBX 14 17 1 0
BITMAP
003C
F078
F078
F8F0
78F0
7DE0
3DE0
3FE0
1FC0
1FC0
0F80
0F80
0780
0780
0780
0780
0780
ENDCHAR
STARTCHAR 005A
ENCODING 90
SWIDTH 600 0
DWIDTH 15 0
BBX 15 17 0 0
BITMAP
0FF8
7FF0
7FE0
FFE0
E3C0
03C0
0380
0780
0780
0F00
0F00
0F00
1EFC
1FFE
1FFC
1FF8
01E0
ENDCHAR
STARTCHAR 005B
ENCODING 91
SWIDTH 320 0
DWIDTH 8 0
BBX 8 24 0 -4
BITMAP
FF
FF
7F
70
70
70
70
70
F0
F0
F0
F0
F0
F0
F0
F0
70
70
F0
F0
FF
FF
FF
F8
ENDCHAR
STARTCHAR 005C
ENCODING 92
SWIDTH 440 0
DWIDTH 11 0
BBX 11 20 0 -1
BITMAP
7800
F800
7800
7C00
7C00
3C00
3E00
3E00
1E00
1F00
0F00
0F00
0F00
0780
0780
0380
03C0
01C0
01E0
00E0
ENDCHAR
STARTCHAR 005D
ENCODING 93
SWIDTH 320 0
DWIDTH 8 0
BBX 8 24 0 -4
BITMAP
FF
FF
FF
07
07
07
07
07
07
07
07
07
07
07
07
07
07
07
07
07
FF
FF
FF
70
ENDCHAR
STARTCHAR 005E
ENCODING 94
SWIDTH 480 0
DWIDTH 12 0
BBX 12 10 0 8
BITMAP
0700
0F00
0F80
1F80
3FC0
3DC0
7DE0
79E0
79F0
F8F0
ENDCHAR
STARTCHAR 005F
ENCODING 95
SWIDTH 360 0
DWIDTH 9 0
BBX 9 3 0 -3
BITMAP
FF80
FF80
7F80
ENDCHAR
STARTCHAR 0060
ENCODING 96
SWIDTH 200 0
DWIDTH 5 0
BBX 4 4 1 18
BITMAP
E0
E0
70
30
ENDCHAR
STARTCHAR 0061
ENCODING 97
SWIDTH 600 0
DWIDTH 15 0
BBX 15 18 0 -1
BITMAP
01C0
01C0
01C0
03E0
03E0
07E0
07E0
07F0
0FF0
0EF0
1CF8
19F8
3FF8
3FFC
7CFC
787E
787E
C000
ENDCHAR
STARTCHAR 0062
ENCODING 98
SWIDTH 520 0
DWIDTH 13 0
BBX 13 17 0 0
BITMAP
7F00
7F80
FFC0
7FC0
79E0
79C0
79C0
7F80
7FE0
3FF0
3CF0
3CF8
3CF8
3FF0
3FF0
3FE0
1E00
ENDCHAR
STARTCHAR 0063
ENCODING 99
SWIDTH 480 0
DWIDTH 12 0
BBX 12 17 0 0
BITMAP
07C0
1FE0
3FF0
7FF0
7FF0
7E00
FC00
F800
7800
FC30
7FF0
7FF0
7FF0
3FF0
3FE0
1FC0
0300
ENDCHAR
STARTCHAR 0064
ENCODING 100
SWIDTH 440 0
DWIDTH 11 0
BBX 11 17 0 0
BITMAP
7C00
FF00
FF80
FFC0
FFC0
78E0
78E0
78E0
79E0
79C0
7FC0
7FC0
3F80
3F00
3E00
3C00
1000
ENDCHAR
STARTCHAR 0065
ENCODING 101
SWIDTH 480 0
DWIDTH 12 0
BBX 12 17 0 0
BITMAP
7FC0
FF80
7F80
7F80
7F80
7C00
3C00
3F80
3F80
3E00
3E20
3FE0
1FE0
1FF0
1FF0
1FE0
1E00
ENDCHAR
STARTCHAR 0066
ENCODING 102
SWIDTH 480 0
DWIDTH 12 0
BBX 12 18 0 0
BITMAP
0080
7FF0
FFF0
FFF0
FE00
F800
F800
FF00
7F00
FF00
FD00
F800
F800
F800
7800
7800
7800
7000
ENDCHAR
STARTCHAR 0067
ENCODING 103
SWIDTH 480 0
DWIDTH 12 0
BBX 12 17 0 0
BITMAP
07C0
0FE0
1FF0
3FE0
3C00
3800
7800
70F0
71F0
71F0
71F0
F9F0
FFF0
7FF0
7FC0
3F80
1C00
ENDCHAR
STARTCHAR 0068
ENCODING 104
SWIDTH 560 0
DWIDTH 14 0
BBX 13 17 1 0
BITMAP
3C00
7CF8
7CF8
7CF8
7CF0
7CF0
7FF0
7FF0
FFF0
FFF0
FFF0
FDF0
FDF0
F9F0
F9F0
F9F0
3900
ENDCHAR
STARTCHAR 0069
ENCODING 105
SWIDTH 320 0
DWIDTH 8 0
BBX 8 17 0 0
BITMAP
1F
3F
3E
3E
3E
3E
3E
3E
3E
3E
7E
7E
7E
7E
7E
7E
F0
ENDCHAR
STARTCHAR 006A
ENCODING 106
SWIDTH 440 0
DWIDTH 11 0
BBX 11 17 0 0
BITMAP
07C0
07E0
07E0
07E0
07E0
07E0
07E0
07E0
07E0
07E0
07E0
33E0
FBE0
FBC0
7FC0
3F80
1F00
ENDCHAR
STARTCHAR 006B
ENCODING 107
SWIDTH 520 0
DWIDTH 13 0
BBX 13 17 0 0
BITMAP
FE20
7E78
7EF8
7EF0
7FE0
7FE0
7FC0
7FC0
FF80
FF80
FFC0
FFE0
FFF0
FEF0
FE78
7E78
7E20
ENDCHAR
STARTCHAR 006C
ENCODING 108
SWIDTH 480 0
DWIDTH 12 0
BBX 11 17 1 0
BITMAP
1F00
3F00
7F00
7F00
7F00
7E00
7E00
7E00
7E00
7E00
FE00
FC00
FFE0
FFE0
FFE0
FFE0
FF80
ENDCHAR
STARTCHAR 006D
ENCODING 109
SWIDTH 640 0
DWIDTH 16 0
BBX 16 17 0 0
BITMAP
100C
181C
181C
3C3C
3E3C
3E7E
3F7E
3FFE
3FFE
7FFE
7EBE
7C3E
7C3E
783F
783F
F83F
F818
ENDCHAR
STARTCHAR 006E
ENCODING 110
SWIDTH 560 0
DWIDTH 14 0
BBX 14 17 0 0
BITMAP
1818
3E7C
3E7C
3E7C
7E78
7F78
7F78
7F78
7F78
7FF8
7FF8
7DF8
7DF8
7DF8
7CF8
7CF8
F060
ENDCHAR
STARTCHAR 006F
ENCODING 111
SWIDTH 520 0
DWIDTH 13 0
BBX 13 17 0 1
BITMAP
0E00
1F80
3FC0
3FE0
7FF0
7FF0
7CF8
F8F8
F8F8
F8F8
7FF8
7FF8
7FF8
7FF0
3FF0
1FE0
07C0
ENDCHAR
STARTCHAR 0070
ENCODING 112
SWIDTH 480 0
DWIDTH 12 0
BBX 12 17 0 0
BITMAP
3F00
7FC0
7FE0
7FE0
7CF0
7C70
7CF0
7DF0
7FF0
7FE0
7E00
7E00
FE00
7E00
FE00
FE00
FE00
ENDCHAR
STARTCHAR 0071
ENCODING 113
SWIDTH 600 0
DWIDTH 15 0
BBX 15 18 0 -1
BITMAP
1F80
3FC0
3FE0
7FF0
7DF0
78F0
7878
7878
F878
FCF8
FFF8
7FF0
7FF0
7FF0
3FF8
1FFC
027E
0078
ENDCHAR
STARTCHAR 0072
ENCODING 114
SWIDTH 560 0
DWIDTH 14 0
BBX 14 17 0 0
BITMAP
1F80
FFE0
FFF0
FC70
7C70
7C70
7EF0
7FF0
7FE0
7FC0
7FE0
7EE0
7EF0
7E78
7E78
3F3C
3E3C
ENDCHAR
STARTCHAR 0073
ENCODING 115
SWIDTH 480 0
DWIDTH 12 0
BBX 12 17 0 0
BITMAP
0FF0
1FF0
3FE0
3FE0
7FC0
7FC0
7C40
3E00
3F80
1FE0
03E0
01F0
6BF0
FFF0
FFE0
7FC0
1F80
ENDCHAR
STARTCHAR 0074
ENCODING 116
SWIDTH 560 0
DWIDTH 14 0
BBX 14 17 0 0
BITMAP
7FF8
7FF8
7FFC
7FFC
FFFC
73C0
0380
0380
0780
0780
0780
0780
0780
0780
0780
0780
0380
ENDCHAR
STARTCHAR 0075
ENCODING 117
SWIDTH 520 0
DWIDTH 13 0
BBX 13 16 0 0
BITMAP
3C78
3C78
7878
7878
7878
7878
7878
F878
FC78
7EF8
7FF8
7FF0
7FF0
3FF0
3FE0
1FC0
ENDCHAR
STARTCHAR 0076
ENCODING 118
SWIDTH 560 0
DWIDTH 14 0
BBX 13 16 1 1
BITMAP
0010
F0F8
FCF8
7CF8
7CF8
7EF8
3EF0
3EF0
1EF0
1FF0
0FF0
0FE0
07E0
03E0
03E0
01E0
ENDCHAR
STARTCHAR 0077
ENCODING 119
SWIDTH 720 0
DWIDTH 18 0
BBX 18 17 0 0
BITMAP
7803C0
F8C780
FCE780
7CEF80
7CEF80
7EEF80
3EFF00
3FFF00
1FFF00
1FFF00
0FFF00
0F9E00
0F9E00
079E00
031E00
030E00
010000
ENDCHAR
STARTCHAR 0078
ENCODING 120
SWIDTH 560 0
DWIDTH 14 0
BBX 14 16 0 0
BITMAP
003C
787C
FC7C
7CF8
7EF8
3EF0
1FF0
1FE0
0FE0
0FE0
0FE0
1FE0
1FF0
3EF0
3E78
7C70
ENDCHAR
STARTCHAR 0079
ENCODING 121
SWIDTH 600 0
DWIDTH 15 0
BBX 14 17 1 0
BITMAP
003C
F078
F078
F8F0
78F0
7DE0
3DE0
3FE0
1FC0
1FC0
0F80
0F80
0780
0780
0780
0780
0780
ENDCHAR
STARTCHAR 007A
ENCODING 122
SWIDTH 600 0
DWIDTH 15 0
BBX 15 17 0 0
BITMAP
0FF8
7FF0
7FE0
FFE0
E3C0
03C0
0380
0780
0780
0F00
0F00
0F00
1EFC
1FFE
1FFC
1FF8
01E0
ENDCHAR
STARTCHAR 007B
ENCODING 123
SWIDTH 320 0
DWIDTH 8 0
BBX 8 24 0 -3
BITMAP
02
07
0F
0F
1E
1C
1C
1C
3C
38
78
F8
F8
1C
1C
1C
1C
1C
1C
1E
1E
0F
07
03
ENDCHAR
STARTCHAR 007C
ENCODING 124
SWIDTH 160 0
DWIDTH 4 0
BBX 4 25 0 -4
BITMAP
70
70
70
F0
F0
F0
70
70
70
70
70
70
70
70
70
70
70
70
70
70
70
70
70
70
70
ENDCHAR
STARTCHAR 007D
ENCODING 125
SWIDTH 320 0
DWIDTH 8 0
BBX 7 24 1 -3
BITMAP
C0
E0
F0
78
78
38
38
38
38
38
38
3E
1E
1E
3C
38
38
38
78
70
F0
E0
E0
40
ENDCHAR
STARTCHAR 007E
ENCODING 126
SWIDTH 480 0
DWIDTH 12 0
BBX 12 6 0 6
BITMAP
10F0
7CF0
7FF0
FFE0
FFE0
E3C0
ENDCHAR
STARTCHAR 00A0
ENCODING 160
SWIDTH 280 0
DWIDTH 7 0
BBX 0 0 0 0
BITMAP
ENDCHAR
STARTCHAR 00A1
ENCODING 161
SWIDTH 280 0
DWIDTH 7 0
BBX 7 19 0 -5
BITMAP
38
3C
3C
3C
08
00
30
38
3C
7C
7C
7C
7C
7C
7C
7C
FE
FE
7E
ENDCHAR
STARTCHAR 00A2
ENCODING 162
SWIDTH 480 0
DWIDTH 12 0
BBX 12 21 0 -2
BITMAP
00E0
01E0
07E0
1FE0
3FF0
3FF0
7FF0
7FF0
7BB0
FB80
F780
F780
FF00
7F00
7FF0
7FF0
3FF0
1FE0
0FC0
0E00
1E00
ENDCHAR
STARTCHAR 00A3
ENCODING 163
SWIDTH 520 0
DWIDTH 13 0
BBX 13 17 0 0
BITMAP
03C0
07F0
0FF8
0F78
1F78
1F30
1F00
7FE0
FFE0
FFE0
1F00
1F00
1F00
7FF8
7FF8
7FF8
3FF0
ENDCHAR
STARTCHAR 00A4
ENCODING 164
SWIDTH 440 0
DWIDTH 11 0
BBX 11 10 0 4
BITMAP
2080
7FC0
FFE0
7BC0
3180
3180
3380
7FC0
7FC0
3180
ENDCHAR
STARTCHAR 00A5
ENCODING 165
SWIDTH 600 0
DWIDTH 15 0
BBX 14 17 1 0
BITMAP
003C
F078
F078
F8F0
78F0
7DE0
3DE0
7FF0
7FF0
7FF0
7F80
1FC0
7FF0
7FF0
7FD0
0780
0780
ENDCHAR
STARTCHAR 00A6
ENCODING 166
SWIDTH 160 0
DWIDTH 4 0
BBX 4 25 0 -4
BITMAP
70
F0
70
70
70
70
70
70
70
70
70
00
00
00
70
F0
F0
F0
F0
F0
70
F0
F0
70
70
ENDCHAR
STARTCHAR 00A7
ENCODING 167
SWIDTH 480 0
DWIDTH 12 0
BBX 12 21 0 -2
BITMAP
0F80
3FC0
3FE0
3FC0
3C00
3E00
3F80
7FE0
7FF0
F9F0
F8F0
7FF0
3FF0
1FE0
03E0
03E0
33E0
3FE0
3FC0
1F80
0F00
ENDCHAR
STARTCHAR 00A8
ENCODING 168
SWIDTH 280 0
DWIDTH 7 0
BBX 7 2 0 17
BITMAP
66
E6
ENDCHAR
STARTCHAR 00A9
ENCODING 169
SWIDTH 640 0
DWIDTH 16 0
BBX 16 16 0 1
BITMAP
01E0
0FFC
3FFE
3C1E
71CF
73E7
63E7
E703
E703
E703
63E7
73E7
788E
3C3C
1FF8
0FF0
ENDCHAR
STARTCHAR 00AA
ENCODING 170
SWIDTH 320 0
DWIDTH 8 0
BBX 8 9 0 8
BITMAP
08
18
1C
1C
3C
2E
7E
6E
E7
ENDCHAR
STARTCHAR 00AB
ENCODING 171
SWIDTH 440 0
DWIDTH 11 0
BBX 12 11 0 1
BITMAP
0C30
1C70
3CF0
7FE0
F380
E380
FDE0
3CE0
1CE0
0C60
0410
ENDCHAR
STARTCHAR 00AC
ENCODING 172
SWIDTH 480 0
DWIDTH 12 0
BBX 12 7 0 4
BITMAP
7FF0
7FF0
FFF0
FFF0
00F0
00E0
00E0
ENDCHAR
STARTCHAR 00AD
ENCODING 173
SWIDTH 360 0
DWIDTH 9 0
BBX 9 4 0 7
BITMAP
7F80
FF80
FF80
FF80
ENDCHAR
STARTCHAR 00AE
ENCODING 174
SWIDTH 440 0
DWIDTH 11 0
BBX 11 11 0 7
BITMAP
0E00
3F80
70C0
6E40
CE60
CE60
CE60
6D60
70C0
3FC0
0F00
ENDCHAR
STARTCHAR 00AF
ENCODING 175
SWIDTH 320 0
DWIDTH 8 0
BBX 8 2 0 18
BITMAP
FF
FF
ENDCHAR
STARTCHAR 00B0
ENCODING 176
SWIDTH 320 0
DWIDTH 8 0
BBX 8 8 0 10
BITMAP
1C
7E
77
E7
E7
67
7E
3C
ENDCHAR
STARTCHAR 00B1
ENCODING 177
SWIDTH 440 0
DWIDTH 11 0
BBX 12 14 0 0
BITMAP
0F00
0F00
0F00
FFE0
FFE0
FFE0
FFF0
0F00
0F00
0F00
0000
FFE0
FFE0
7FE0
ENDCHAR
STARTCHAR 00B2
ENCODING 178
SWIDTH 240 0
DWIDTH 6 0
BBX 6 8 0 9
BITMAP
78
F8
58
18
10
3C
7C
7C
ENDCHAR
STARTCHAR 00B3
ENCODING 179
SWIDTH 240 0
DWIDTH 6 0
BBX 5 9 1 8
BITMAP
E0
E0
60
F0
38
18
18
F0
20
ENDCHAR
STARTCHAR 00B4
ENCODING 180
SWIDTH 200 0
DWIDTH 5 0
BBX 4 4 1 18
BITMAP
70
70
E0
C0
ENDCHAR
STARTCHAR 00B5
ENCODING 181
SWIDTH 520 0
DWIDTH 13 0
BBX 13 18 0 -4
BITMAP
0010
78F0
70F8
F078
F8F8
F8F8
F8F8
79F8
FFF8
FFF8
FFF0
FFF0
7FE0
F100
F000
F000
7000
7000
ENDCHAR
STARTCHAR 00B6
ENCODING 182
SWIDTH 360 0
DWIDTH 9 0
BBX 10 20 0 -2
BITMAP
1F80
3F80
7F80
FF80
FD80
FD80
7D80
7D80
7DC0
7D80
3D80
1D80
1D80
1D80
1D80
1D80
1D80
1D80
1D80
1D80
ENDCHAR
STARTCHAR 00B7
ENCODING 183
SWIDTH 200 0
DWIDTH 5 0
BBX 5 5 0 6
BITMAP
70
F8
F8
78
20
ENDCHAR
STARTCHAR 00B8
ENCODING 184
SWIDTH 280 0
DWIDTH 7 0
BBX 7 5 0 -4
BITMAP
38
3C
0E
FE
7E
ENDCHAR
STARTCHAR 00B9
ENCODING 185
SWIDTH 200 0
DWIDTH 5 0
BBX 4 8 1 9
BITMAP
70
F0
F0
70
70
70
70
70
ENDCHAR
STARTCHAR 00BA
ENCODING 186
SWIDTH 280 0
DWIDTH 7 0
BBX 7 9 0 9
BITMAP
20
38
7C
7C
EE
EE
7E
7C
3C
ENDCHAR
STARTCHAR 00BB
ENCODING 187
SWIDTH 440 0
DWIDTH 11 0
BBX 12 12 0 0
BITMAP
8000
C200
6380
73C0
7BE0
1CF0
1C70
FDE0
F3C0
E380
C300
0200
ENDCHAR
STARTCHAR 00BC
ENCODING 188
SWIDTH 560 0
DWIDTH 14 0
BBX 13 17 1 0
BITMAP
7070
F0E0
F0E0
71C0
71C0
7380
7380
7700
0E00
0E40
1CC0
1CC0
38F8
70F0
7020
E030
4070
ENDCHAR
STARTCHAR 00BD
ENCODING 189
SWIDTH 560 0
DWIDTH 14 0
BBX 13 17 1 0
BITMAP
7070
F0E0
F0E0
71C0
71C0
7380
7380
7700
0EC0
0FE0
1DA0
1C20
3860
7078
70F8
E1F0
40C0
ENDCHAR
STARTCHAR 00BE
ENCODING 190
SWIDTH 560 0
DWIDTH 14 0
BBX 13 17 1 0
BITMAP
E070
E0E0
60E0
F1C0
39C0
1B80
1B80
F700
2E00
0E40
1CC0
1CC0
38F8
70F0
7020
E030
4070
ENDCHAR
STARTCHAR 00BF
ENCODING 191
SWIDTH 440 0
DWIDTH 11 0
BBX 11 18 0 -5
BITMAP
0700
0F80
0F80
0700
0000
0700
0780
0F80
1F80
7F00
7C00
7800
F800
F8E0
FFE0
7FE0
7FC0
1F80
ENDCHAR
STARTCHAR 00C0
ENCODING 192
SWIDTH 600 0
DWIDTH 15 0
BBX 15 23 0 -1
BITMAP
0E00
0700
0380
0380
0000
01C0
01C0
01C0
03E0
03E0
07E0
07E0
07F0
0FF0
0EF0
1CF8
19F8
3FF8
3FFC
7CFC
787E
787E
C000
ENDCHAR
STARTCHAR 00C1
ENCODING 193
SWIDTH 600 0
DWIDTH 15 0
BBX 15 23 0 -1
BITMAP
0070
0070
00E0
00C0
0000
01C0
01C0
01C0
03E0
03E0
07E0
07E0
07F0
0FF0
0EF0
1CF8
19F8
3FF8
3FFC
7CFC
787E
787E
C000
ENDCHAR
STARTCHAR 00C2
ENCODING 194
SWIDTH 600 0
DWIDTH 15 0
BBX 15 23 0 -1
BITMAP
0080
03C0
07F0
0770
0000
01C0
01C0
01C0
03E0
03E0
07E0
07E0
07F0
0FF0
0EF0
1CF8
19F8
3FF8
3FFC
7CFC
787E
787E
C000
ENDCHAR
STARTCHAR 00C3
ENCODING 195
SWIDTH 600 0
DWIDTH 15 0
BBX 15 22 0 -1
BITMAP
07B0
07F0
06E0
0000
01C0
01C0
01C0
03E0
03E0
07E0
07E0
07F0
0FF0
0EF0
1CF8
19F8
3FF8
3FFC
7CFC
787E
787E
C000
ENDCHAR
STARTCHAR 00C4
ENCODING 196
SWIDTH 600 0
DWIDTH 15 0
BBX 15 21 0 -1
BITMAP
0770
0770
0000
01C0
01C0
01C0
03E0
03E0
07E0
07E0
07F0
0FF0
0EF0
1CF8
19F8
3FF8
3FFC
7CFC
787E
787E
C000
ENDCHAR
STARTCHAR 00C5
ENCODING 197
SWIDTH 600 0
DWIDTH 15 0
BBX 15 23 0 -1
BITMAP
0080
07E0
0670
0670
0670
07E0
03C0
01C0
03E0
03E0
07E0
07E0
07F0
0FF0
0EF0
1CF8
19F8
3FF8
3FFC
7CFC
787E
787E
C000
ENDCHAR
STARTCHAR 00C6
ENCODING 198
SWIDTH 720 0
DWIDTH 18 0
BBX 17 17 1 0
BITMAP
03FE00
03FC00
07FC00
07FC00
07FC00
0FE000
0FE000
0FFC00
1FFC00
19F000
39F100
3BFF00
7FFF80
7DFF80
F9FF80
F0FF00
F0F000
ENDCHAR
STARTCHAR 00C7
ENCODING 199
SWIDTH 480 0
DWIDTH 12 0
BBX 12 21 0 -4
BITMAP
07C0
1FE0
3FF0
7FF0
7FF0
7E00
FC00
F800
7800
FC30
7FF0
7FF0
7FF0
3FF0
3FE0
1FC0
0F00
0F00
0380
3F80
1F80
ENDCHAR
STARTCHAR 00C8
ENCODING 200
SWIDTH 480 0
DWIDTH 12 0
BBX 12 22 0 0
BITMAP
7000
7000
3800
1C00
0000
7FC0
FF80
7F80
7F80
7F80
7C00
3C00
3F80
3F80
3E00
3E20
3FE0
1FE0
1FF0
1FF0
1FE0
1E00
ENDCHAR
STARTCHAR 00C9
ENCODING 201
SWIDTH 480 0
DWIDTH 12 0
BBX 12 22 0 0
BITMAP
0F00
0E00
1C00
1C00
0000
7FC0
FF80
7F80
7F80
7F80
7C00
3C00
3F80
3F80
3E00
3E20
3FE0
1FE0
1FF0
1FF0
1FE0
1E00
ENDCHAR
STARTCHAR 00CA
ENCODING 202
SWIDTH 480 0
DWIDTH 12 0
BBX 12 22 0 0
BITMAP
1800
3E00
7F00
E300
0000
7FC0
FF80
7F80
7F80
7F80
7C00
3C00
3F80
3F80
3E00
3E20
3FE0
1FE0
1FF0
1FF0
1FE0
1E00
ENDCHAR
STARTCHAR 00CB
ENCODING 203
SWIDTH 480 0
DWIDTH 12 0
BBX 12 21 0 0
BITMAP
0600
6600
6600
0000
7FC0
FF80
7F80
7F80
7F80
7C00
3C00
3F80
3F80
3E00
3E20
3FE0
1FE0
1FF0
1FF0
1FE0
1E00
ENDCHAR
STARTCHAR 00CC
ENCODING 204
SWIDTH 320 0
DWIDTH 8 0
BBX 8 22 0 0
BITMAP
38
38
1C
0E
00
1F
3F
3E
3E
3E
3E
3E
3E
3E
3E
7E
7E
7E
7E
7E
7E
F0
ENDCHAR
STARTCHAR 00CD
ENCODING 205
SWIDTH 320 0
DWIDTH 8 0
BBX 9 22 0 0
BITMAP
0380
0780
0700
0E00
0000
1F00
3F00
3E00
3E00
3E00
3E00
3E00
3E00
3E00
3E00
7E00
7E00
7E00
7E00
7E00
7E00
F000
ENDCHAR
STARTCHAR 00CE
ENCODING 206
SWIDTH 320 0
DWIDTH 8 0
BBX 9 22 0 0
BITMAP
0400
1E00
3F00
3B80
0000
1F00
3F00
3E00
3E00
3E00
3E00
3E00
3E00
3E00
3E00
7E00
7E00
7E00
7E00
7E00
7E00
F000
ENDCHAR
STARTCHAR 00CF
ENCODING 207
SWIDTH 320 0
DWIDTH 8 0
BBX 9 20 0 0
BITMAP
3B80
3B80
1000
1F00
3F00
3E00
3E00
3E00
3E00
3E00
3E00
3E00
3E00
7E00
7E00
7E00
7E00
7E00
7E00
F000
ENDCHAR
STARTCHAR 00D0
ENCODING 208
SWIDTH 480 0
DWIDTH 12 0
BBX 12 17 0 0
BITMAP
3E00
7F80
7FC0
7FE0
7FE0
7CF0
FE70
FF70
FFF0
FDE0
3FE0
3FC0
3FC0
1F80
1F00
1E00
1800
ENDCHAR
STARTCHAR 00D1
ENCODING 209
SWIDTH 560 0
DWIDTH 14 0
BBX 14 21 0 0
BITMAP
0770
07F0
07E0
0000
1818
3E7C
3E7C
3E7C
7E78
7F78
7F78
7F78
7F78
7FF8
7FF8
7DF8
7DF8
7DF8
7CF8
7CF8
F060
ENDCHAR
STARTCHAR 00D2
ENCODING 210
SWIDTH 520 0
DWIDTH 13 0
BBX 13 22 0 0
BITMAP
7000
7000
3800
1800
0000
0E00
1F80
3FC0
3FE0
7FF0
7FF0
7CF8
F8F8
F8F8
F8F8
7FF8
7FF8
7FF8
7FF0
3FF0
1FE0
07C0
ENDCHAR
STARTCHAR 00D3
ENCODING 211
SWIDTH 520 0
DWIDTH 13 0
BBX 13 22 0 0
BITMAP
0380
0780
0700
0E00
0000
0E00
1F80
3FC0
3FE0
7FF0
7FF0
7CF8
F8F8
F8F8
F8F8
7FF8
7FF8
7FF8
7FF0
3FF0
1FE0
07C0
ENDCHAR
STARTCHAR 00D4
ENCODING 212
SWIDTH 520 0
DWIDTH 13 0
BBX 13 22 0 0
BITMAP
0800
1E00
3F00
7380
0000
0E00
1F80
3FC0
3FE0
7FF0
7FF0
7CF8
F8F8
F8F8
F8F8
7FF8
7FF8
7FF8
7FF0
3FF0
1FE0
07C0
ENDCHAR
STARTCHAR 00D5
ENCODING 213
SWIDTH 520 0
DWIDTH 13 0
BBX 13 22 0 0
BITMAP
0300
3F00
7F00
6E00
4000
0E00
1F80
3FC0
3FE0
7FF0
7FF0
7CF8
F8F8
F8F8
F8F8
7FF8
7FF8
7FF8
7FF0
3FF0
1FE0
07C0
ENDCHAR
STARTCHAR 00D6
ENCODING 214
SWIDTH 520 0
DWIDTH 13 0
BBX 13 20 0 0
BITMAP
3300
7300
0000
0E00
1F80
3FC0
3FE0
7FF0
7FF0
7CF8
F8F8
F8F8
F8F8
7FF8
7FF8
7FF8
7FF0
3FF0
1FE0
07C0
ENDCHAR
STARTCHAR 00D7
ENCODING 215
SWIDTH 400 0
DWIDTH 10 0
BBX 10 10 0 4
BITMAP
2080
71C0
FBC0
7FC0
3F80
1F00
3F80
7FC0
7BC0
3180
ENDCHAR
STARTCHAR 00D8
ENCODING 216
SWIDTH 520 0
DWIDTH 13 0
BBX 13 18 0 0
BITMAP
0038
0E78
1FF8
3FF0
3FE0
7FF0
7FF0
7BF8
F7F8
F778
FE78
7EF8
7FF8
7FF8
7FF0
7FF0
7FE0
E7C0
ENDCHAR
STARTCHAR 00D9
ENCODING 217
SWIDTH 520 0
DWIDTH 13 0
BBX 13 21 0 0
BITMAP
0E00
0E00
0700
0300
0000
3C78
3C78
7878
7878
7878
7878
7878
F878
FC78
7EF8
7FF8
7FF0
7FF0
3FF0
3FE0
1FC0
ENDCHAR
STARTCHAR 00DA
ENCODING 218
SWIDTH 520 0
DWIDTH 13 0
BBX 13 21 0 0
BITMAP
00F0
00E0
01C0
01C0
0000
3C78
3C78
7878
7878
7878
7878
7878
F878
FC78
7EF8
7FF8
7FF0
7FF0
3FF0
3FE0
1FC0
ENDCHAR
STARTCHAR 00DB
ENCODING 219
SWIDTH 520 0
DWIDTH 13 0
BBX 13 21 0 0
BITMAP
0100
03C0
07E0
0E60
0000
3C78
3C78
7878
7878
7878
7878
7878
F878
FC78
7EF8
7FF8
7FF0
7FF0
3FF0
3FE0
1FC0
ENDCHAR
STARTCHAR 00DC
ENCODING 220
SWIDTH 520 0
DWIDTH 13 0
BBX 13 19 0 0
BITMAP
0E60
0E60
0040
3C78
3C78
7878
7878
7878
7878
7878
F878
FC78
7EF8
7FF8
7FF0
7FF0
3FF0
3FE0
1FC0
ENDCHAR
STARTCHAR 00DD
ENCODING 221
SWIDTH 600 0
DWIDTH 15 0
BBX 14 22 1 0
BITMAP
00E0
01C0
03C0
0380
0000
003C
F078
F078
F8F0
78F0
7DE0
3DE0
3FE0
1FC0
1FC0
0F80
0F80
0780
0780
0780
0780
0780
ENDCHAR
STARTCHAR 00DE
ENCODING 222
SWIDTH 480 0
DWIDTH 12 0
BBX 12 17 0 0
BITMAP
F800
F800
FE00
7FC0
7FE0
7FE0
78E0
78F0
78F0
78F0
7DF0
7FF0
7FE0
7FC0
7C00
7C00
7C00
ENDCHAR
STARTCHAR 00DF
ENCODING 223
SWIDTH 560 0
DWIDTH 14 0
BBX 14 19 0 -2
BITMAP
3F80
7F80
7FC0
F3C0
F1C0
F1C0
73C0
7380
73F0
73F8
78F8
787C
783C
787C
79F8
79F8
79E0
7800
1000
ENDCHAR
STARTCHAR 00E0
ENCODING 224
SWIDTH 600 0
DWIDTH 15 0
BBX 15 23 0 -1
BITMAP
0E00
0700
0380
0380
0000
01C0
01C0
01C0
03E0
03E0
07E0
07E0
07F0
0FF0
0EF0
1CF8
19F8
3FF8
3FFC
7CFC
787E
787E
C000
ENDCHAR
STARTCHAR 00E1
ENCODING 225
SWIDTH 600 0
DWIDTH 15 0
BBX 15 23 0 -1
BITMAP
0070
0070
00E0
00C0
0000
01C0
01C0
01C0
03E0
03E0
07E0
07E0
07F0
0FF0
0EF0
1CF8
19F8
3FF8
3FFC
7CFC
787E
787E
C000
ENDCHAR
STARTCHAR 00E2
ENCODING 226
SWIDTH 600 0
DWIDTH 15 0
BBX 15 23 0 -1
BITMAP
0080
03C0
07F0
0770
0000
01C0
01C0
01C0
03E0
03E0
07E0
07E0
07F0
0FF0
0EF0
1CF8
19F8
3FF8
3FFC
7CFC
787E
787E
C000
ENDCHAR
STARTCHAR 00E3
ENCODING 227
SWIDTH 600 0
DWIDTH 15 0
BBX 15 22 0 -1
BITMAP
07B0
07F0
06E0
0000
01C0
01C0
01C0
03E0
03E0
07E0
07E0
07F0
0FF0
0EF0
1CF8
19F8
3FF8
3FFC
7CFC
787E
787E
C000
ENDCHAR
STARTCHAR 00E4
ENCODING 228
SWIDTH 600 0
DWIDTH 15 0
BBX 15 21 0 -1
BITMAP
0770
0770
0000
01C0
01C0
01C0
03E0
03E0
07E0
07E0
07F0
0FF0
0EF0
1CF8
19F8
3FF8
3FFC
7CFC
787E
787E
C000
ENDCHAR
STARTCHAR 00E5
ENCODING 229
SWIDTH 600 0
DWIDTH 15 0
BBX 15 23 0 -1
BITMAP
0080
07E0
0670
0670
0670
07E0
03C0
01C0
03E0
03E0
07E0
07E0
07F0
0FF0
0EF0
1CF8
19F8
3FF8
3FFC
7CFC
787E
787E
C000
ENDCHAR
STARTCHAR 00E6
ENCODING 230
SWIDTH 720 0
DWIDTH 18 0
BBX 17 17 1 0
BITMAP
03FE00
03FC00
07FC00
07FC00
07FC00
0FE000
0FE000
0FFC00
1FFC00
19F000
39F100
3BFF00
7FFF80
7DFF80
F9FF80
F0FF00
F0F000
ENDCHAR
STARTCHAR 00E7
ENCODING 231
SWIDTH 480 0
DWIDTH 12 0
BBX 12 21 0 -4
BITMAP
07C0
1FE0
3FF0
7FF0
7FF0
7E00
FC00
F800
7800
FC30
7FF0
7FF0
7FF0
3FF0
3FE0
1FC0
0F00
0F00
0380
3F80
1F80
ENDCHAR
STARTCHAR 00E8
ENCODING 232
SWIDTH 480 0
DWIDTH 12 0
BBX 12 22 0 0
BITMAP
7000
7000
3800
1C00
0000
7FC0
FF80
7F80
7F80
7F80
7C00
3C00
3F80
3F80
3E00
3E20
3FE0
1FE0
1FF0
1FF0
1FE0
1E00
ENDCHAR
STARTCHAR 00E9
ENCODING 233
SWIDTH 480 0
DWIDTH 12 0
BBX 12 22 0 0
BITMAP
0F00
0E00
1C00
1C00
0000
7FC0
FF80
7F80
7F80
7F80
7C00
3C00
3F80
3F80
3E00
3E20
3FE0
1FE0
1FF0
1FF0
1FE0
1E00
ENDCHAR
STARTCHAR 00EA
ENCODING 234
SWIDTH 480 0
DWIDTH 12 0
BBX 12 22 0 0
BITMAP
1800
3E00
7F00
E300
0000
7FC0
FF80
7F80
7F80
7F80
7C00
3C00
3F80
3F80
3E00
3E20
3FE0
1FE0
1FF0
1FF0
1FE0
1E00
ENDCHAR
STARTCHAR 00EB
ENCODING 235
SWIDTH 480 0
DWIDTH 12 0
BBX 12 21 0 0
BITMAP
0600
6600
6600
0000
7FC0
FF80
7F80
7F80
7F80
7C00
3C00
3F80
3F80
3E00
3E20
3FE0
1FE0
1FF0
1FF0
1FE0
1E00
ENDCHAR
STARTCHAR 00EC
ENCODING 236
SWIDTH 320 0
DWIDTH 8 0
BBX 8 22 0 0
BITMAP
38
38
1C
0E
00
1F
3F
3E
3E
3E
3E
3E
3E
3E
3E
7E
7E
7E
7E
7E
7E
F0
ENDCHAR
STARTCHAR 00ED
ENCODING 237
SWIDTH 320 0
DWIDTH 8 0
BBX 9 22 0 0
BITMAP
0380
0780
0700
0E00
0000
1F00
3F00
3E00
3E00
3E00
3E00
3E00
3E00
3E00
3E00
7E00
7E00
7E00
7E00
7E00
7E00
F000
ENDCHAR
STARTCHAR 00EE
ENCODING 238
SWIDTH 320 0
DWIDTH 8 0
BBX 9 22 0 0
BITMAP
0400
1E00
3F00
3B80
0000
1F00
3F00
3E00
3E00
3E00
3E00
3E00
3E00
3E00
3E00
7E00
7E00
7E00
7E00
7E00
7E00
F000
ENDCHAR
STARTCHAR 00EF
ENCODING 239
SWIDTH 320 0
DWIDTH 8 0
BBX 9 20 0 0
BITMAP
3B80
3B80
1000
1F00
3F00
3E00
3E00
3E00
3E00
3E00
3E00
3E00
3E00
7E00
7E00
7E00
7E00
7E00
7E00
F000
ENDCHAR
STARTCHAR 00F0
ENCODING 240
SWIDTH 480 0
DWIDTH 12 0
BBX 12 17 0 0
BITMAP
3E00
7F80
7FC0
7FE0
7FE0
7CF0
FE70
FF70
FFF0
FDE0
3FE0
3FC0
3FC0
1F80
1F00
1E00
1800
ENDCHAR
STARTCHAR 00F1
ENCODING 241
SWIDTH 560 0
DWIDTH 14 0
BBX 14 21 0 0
BITMAP
0770
07F0
07E0
0000
1818
3E7C
3E7C
3E7C
7E78
7F78
7F78
7F78
7F78
7FF8
7FF8
7DF8
7DF8
7DF8
7CF8
7CF8
F060
ENDCHAR
STARTCHAR 00F2
ENCODING 242
SWIDTH 520 0
DWIDTH 13 0
BBX 13 22 0 0
BITMAP
7000
7000
3800
1800
0000
0E00
1F80
3FC0
3FE0
7FF0
7FF0
7CF8
F8F8
F8F8
F8F8
7FF8
7FF8
7FF8
7FF0
3FF0
1FE0
07C0
ENDCHAR
STARTCHAR 00F3
ENCODING 243
SWIDTH 520 0
DWIDTH 13 0
BBX 13 22 0 0
BITMAP
0380
0780
0700
0E00
0000
0E00
1F80
3FC0
3FE0
7FF0
7FF0
7CF8
F8F8
F8F8
F8F8
7FF8
7FF8
7FF8
7FF0
3FF0
1FE0
07C0
ENDCHAR
STARTCHAR 00F4
ENCODING 244
SWIDTH 520 0
DWIDTH 13 0
BBX 13 22 0 0
BITMAP
0800
1E00
3F00
7380
0000
0E00
1F80
3FC0
3FE0
7FF0
7FF0
7CF8
F8F8
F8F8
F8F8
7FF8
7FF8
7FF8
7FF0
3FF0
1FE0
07C0
ENDCHAR
STARTCHAR 00F5
ENCODING 245
SWIDTH 520 0
DWIDTH 13 0
BBX 13 22 0 0
BITMAP
0300
3F00
7F00
6E00
4000
0E00
1F80
3FC0
3FE0
7FF0
7FF0
7CF8
F8F8
F8F8
F8F8
7FF8
7FF8
7FF8
7FF0
3FF0
1FE0
07C0
ENDCHAR
STARTCHAR 00F6
ENCODING 246
SWIDTH 520 0
DWIDTH 13 0
BBX 13 20 0 0
BITMAP
3300
7300
0000
0E00
1F80
3FC0
3FE0
7FF0
7FF0
7CF8
F8F8
F8F8
F8F8
7FF8
7FF8
7FF8
7FF0
3FF0
1FE0
07C0
ENDCHAR
STARTCHAR 00F7
ENCODING 247
SWIDTH 480 0
DWIDTH 12 0
BBX 12 13 0 2
BITMAP
0F00
0F00
0F00
0600
33C0
7FF0
FFF0
FFE0
0000
0F00
0F00
0F00
0600
ENDCHAR
STARTCHAR 00F8
ENCODING 248
SWIDTH 520 0
DWIDTH 13 0
BBX 13 18 0 0
BITMAP
0038
0E78
1FF8
3FF0
3FE0
7FF0
7FF0
7BF8
F7F8
F778
FE78
7EF8
7FF8
7FF8
7FF0
7FF0
7FE0
E7C0
ENDCHAR
STARTCHAR 00F9
ENCODING 249
SWIDTH 520 0
DWIDTH 13 0
BBX 13 21 0 0
BITMAP
0E00
0E00
0700
0300
0000
3C78
3C78
7878
7878
7878
7878
7878
F878
FC78
7EF8
7FF8
7FF0
7FF0
3FF0
3FE0
1FC0
ENDCHAR
STARTCHAR 00FA
ENCODING 250
SWIDTH 520 0
DWIDTH 13 0
BBX 13 21 0 0
BITMAP
00F0
00E0
01C0
01C0
0000
3C78
3C78
7878
7878
7878
7878
7878
F878
FC78
7EF8
7FF8
7FF0
7FF0
3FF0
3FE0
1FC0
ENDCHAR
STARTCHAR 00FB
ENCODING 251
SWIDTH 520 0
DWIDTH 13 0
BBX 13 21 0 0
BITMAP
0100
03C0
07E0
0E60
0000
3C78
3C78
7878
7878
7878
7878
7878
F878
FC78
7EF8
7FF8
7FF0
7FF0
3FF0
3FE0
1FC0
ENDCHAR
STARTCHAR 00FC
ENCODING 252
SWIDTH 520 0
DWIDTH 13 0
BBX 13 19 0 0
BITMAP
0E60
0E60
0040
3C78
3C78
7878
7878
7878
7878
7878
F878
FC78
7EF8
7FF8
7FF0
7FF0
3FF0
3FE0
1FC0
ENDCHAR
STARTCHAR 00FD
ENCODING 253
SWIDTH 600 0
DWIDTH 15 0
BBX 14 22 1 0
BITMAP
00E0
01C0
03C0
0380
0000
003C
F078
F078
F8F0
78F0
7DE0
3DE0
3FE0
1FC0
1FC0
0F80
0F80
0780
0780
0780
0780
0780
ENDCHAR
STARTCHAR 00FE
ENCODING 254
SWIDTH 480 0
DWIDTH 12 0
BBX 12 17 0 0
BITMAP
F800
F800
FE00
7FC0
7FE0
7FE0
78E0
78F0
78F0
78F0
7DF0
7FF0
7FE0
7FC0
7C00
7C00
7C00
ENDCHAR
STARTCHAR 00FF
ENCODING 255
SWIDTH 600 0
DWIDTH 15 0
BBX 14 20 1 0
BITMAP
0CC0
1CC0
0000
003C
F078
F078
F8F0
78F0
7DE0
3DE0
3FE0
1FC0
1FC0
0F80
0F80
0780
0780
0780
0780
0780
ENDCHAR
STARTCHAR 0100
ENCODING 256
SWIDTH 600 0
DWIDTH 15 0
BBX 15 21 0 -1
BITMAP
07F0
07F0
0000
01C0
01C0
01C0
03E0
03E0
07E0
07E0
07F0
0FF0
0EF0
1CF8
19F8
3FF8
3FFC
7CFC
787E
787E
C000
ENDCHAR
STARTCHAR 0101
ENCODING 257
SWIDTH 600 0
DWIDTH 15 0
BBX 15 21 0 -1
BITMAP
07F0
07F0
0000
01C0
01C0
01C0
03E0
03E0
07E0
07E0
07F0
0FF0
0EF0
1CF8
19F8
3FF8
3FFC
7CFC
787E
787E
C000
ENDCHAR
STARTCHAR 0102
ENCODING 258
SWIDTH 600 0
DWIDTH 15 0
BBX 15 22 0 -1
BITMAP
0670
07E0
03C0
0000
01C0
01C0
01C0
03E0
03E0
07E0
07E0
07F0
0FF0
0EF0
1CF8
19F8
3FF8
3FFC
7CFC
787E
787E
C000
ENDCHAR
STARTCHAR 0103
ENCODING 259
SWIDTH 600 0
DWIDTH 15 0
BBX 15 22 0 -1
BITMAP
0670
07E0
03C0
0000
01C0
01C0
01C0
03E0
03E0
07E0
07E0
07F0
0FF0
0EF0
1CF8
19F8
3FF8
3FFC
7CFC
787E
787E
C000
ENDCHAR
STARTCHAR 0104
ENCODING 260
SWIDTH 600 0
DWIDTH 15 0
BBX 15 21 0 -4
BITMAP
01C0
01C0
01C0
03E0
03E0
07E0
07E0
07F0
0FF0
0EF0
1CF8
19F8
3FF8
3FFC
7CFC
787E
787E
C060
00C0
00FC
00FC
ENDCHAR
STARTCHAR 0105
ENCODING 261
SWIDTH 600 0
DWIDTH 15 0
BBX 15 21 0 -4
BITMAP
01C0
01C0
01C0
03E0
03E0
07E0
07E0
07F0
0FF0
0EF0
1CF8
19F8
3FF8
3FFC
7CFC
787E
787E
C060
00C0
00FC
00FC
ENDCHAR
STARTCHAR 0106
ENCODING 262
SWIDTH 480 0
DWIDTH 12 0
BBX 12 22 0 0
BITMAP
00E0
00E0
01C0
0180
0000
07C0
1FE0
3FF0
7FF0
7FF0
7E00
FC00
F800
7800
FC30
7FF0
7FF0
7FF0
3FF0
3FE0
1FC0
0300
ENDCHAR
STARTCHAR 0107
ENCODING 263
SWIDTH 480 0
DWIDTH 12 0
BBX 12 22 0 0
BITMAP
00E0
00E0
01C0
0180
0000
07C0
1FE0
3FF0
7FF0
7FF0
7E00
FC00
F800
7800
FC30
7FF0
7FF0
7FF0
3FF0
3FE0
1FC0
0300
ENDCHAR
STARTCHAR 0108
ENCODING 264
SWIDTH 480 0
DWIDTH 12 0
BBX 12 22 0 0
BITMAP
0100
0780
0FE0
0EE0
0000
07C0
1FE0
3FF0
7FF0
7FF0
7E00
FC00
F800
7800
FC30
7FF0
7FF0
7FF0
3FF0
3FE0
1FC0
0300
ENDCHAR
STARTCHAR 0109
ENCODING 265
SWIDTH 480 0
DWIDTH 12 0
BBX 12 22 0 0
BITMAP
0100
0780
0FE0
0EE0
0000
07C0
1FE0
3FF0
7FF0
7FF0
7E00
FC00
F800
7800
FC30
7FF0
7FF0
7FF0
3FF0
3FE0
1FC0
0300
ENDCHAR
STARTCHAR 010A
ENCODING 266
SWIDTH 480 0
DWIDTH 12 0
BBX 12 20 0 0
BITMAP
0300
0380
0100
07C0
1FE0
3FF0
7FF0
7FF0
7E00
FC00
F800
7800
FC30
7FF0
7FF0
7FF0
3FF0
3FE0
1FC0
0300
ENDCHAR
STARTCHAR 010B
ENCODING 267
SWIDTH 480 0
DWIDTH 12 0
BBX 12 20 0 0
BITMAP
0300
0380
0100
07C0
1FE0
3FF0
7FF0
7FF0
7E00
FC00
F800
7800
FC30
7FF0
7FF0
7FF0
3FF0
3FE0
1FC0
0300
ENDCHAR
STARTCHAR 010C
ENCODING 268
SWIDTH 480 0
DWIDTH 12 0
BBX 12 22 0 0
BITMAP
0400
0EE0
07C0
0380
0000
07C0
1FE0
3FF0
7FF0
7FF0
7E00
FC00
F800
7800
FC30
7FF0
7FF0
7FF0
3FF0
3FE0
1FC0
0300
ENDCHAR
STARTCHAR 010D
ENCODING 269
SWIDTH 480 0
DWIDTH 12 0
BBX 12 22 0 0
BITMAP
0400
0EE0
07C0
0380
0000
07C0
1FE0
3FF0
7FF0
7FF0
7E00
FC00
F800
7800
FC30
7FF0
7FF0
7FF0
3FF0
3FE0
1FC0
0300
ENDCHAR
STARTCHAR 010E
ENCODING 270
SWIDTH 440 0
DWIDTH 11 0
BBX 11 22 0 0
BITMAP
0700
FF00
7E00
1C00
0000
7C00
FF00
FF80
FFC0
FFC0
78E0
78E0
78E0
79E0
79C0
7FC0
7FC0
3F80
3F00
3E00
3C00
1000
ENDCHAR
STARTCHAR 010F
ENCODING 271
SWIDTH 440 0
DWIDTH 11 0
BBX 11 22 0 0
BITMAP
0700
FF00
7E00
1C00
0000
7C00
FF00
FF80
FFC0
FFC0
78E0
78E0
78E0
79E0
79C0
7FC0
7FC0
3F80
3F00
3E00
3C00
1000
ENDCHAR
STARTCHAR 0110
ENCODING 272
SWIDTH 480 0
DWIDTH 12 0
BBX 12 17 0 0
BITMAP
3E00
7F80
7FC0
7FE0
7FE0
7CF0
FE70
FF70
FFF0
FDE0
3FE0
3FC0
3FC0
1F80
1F00
1E00
1800
ENDCHAR
STARTCHAR 0111
ENCODING 273
SWIDTH 480 0
DWIDTH 12 0
BBX 12 17 0 0
BITMAP
3E00
7F80
7FC0
7FE0
7FE0
7CF0
FE70
FF70
FFF0
FDE0
3FE0
3FC0
3FC0
1F80
1F00
1E00
1800
ENDCHAR
STARTCHAR 0112
ENCODING 274
SWIDTH 480 0
DWIDTH 12 0
BBX 12 21 0 0
BITMAP
0100
FF00
FE00
0000
7FC0
FF80
7F80
7F80
7F80
7C00
3C00
3F80
3F80
3E00
3E20
3FE0
1FE0
1FF0
1FF0
1FE0
1E00
ENDCHAR
STARTCHAR 0113
ENCODING 275
SWIDTH 480 0
DWIDTH 12 0
BBX 12 21 0 0
BITMAP
0100
FF00
FE00
0000
7FC0
FF80
7F80
7F80
7F80
7C00
3C00
3F80
3F80
3E00
3E20
3FE0
1FE0
1FF0
1FF0
1FE0
1E00
ENDCHAR
STARTCHAR 0114
ENCODING 276
SWIDTH 480 0
DWIDTH 12 0
BBX 12 22 0 0
BITMAP
0300
6F00
7E00
3C00
0000
7FC0
FF80
7F80
7F80
7F80
7C00
3C00
3F80
3F80
3E00
3E20
3FE0
1FE0
1FF0
1FF0
1FE0
1E00
ENDCHAR
STARTCHAR 0115
ENCODING 277
SWIDTH 480 0
DWIDTH 12 0
BBX 12 22 0 0
BITMAP
0300
6F00
7E00
3C00
0000
7FC0
FF80
7F80
7F80
7F80
7C00
3C00
3F80
3F80
3E00
3E20
3FE0
1FE0
1FF0
1FF0
1FE0
1E00
ENDCHAR
STARTCHAR 0116
ENCODING 278
SWIDTH 480 0
DWIDTH 12 0
BBX 12 21 0 0
BITMAP
1000
1800
1800
0000
7FC0
FF80
7F80
7F80
7F80
7C00
3C00
3F80
3F80
3E00
3E20
3FE0
1FE0
1FF0
1FF0
1FE0
1E00
ENDCHAR
STARTCHAR 0117
ENCODING 279
SWIDTH 480 0
DWIDTH 12 0
BBX 12 21 0 0
BITMAP
1000
1800
1800
0000
7FC0
FF80
7F80
7F80
7F80
7C00
3C00
3F80
3F80
3E00
3E20
3FE0
1FE0
1FF0
1FF0
1FE0
1E00
ENDCHAR
STARTCHAR 0118
ENCODING 280
SWIDTH 480 0
DWIDTH 12 0
BBX 12 21 0 -4
BITMAP
7FC0
FF80
7F80
7F80
7F80
7C00
3C00
3F80
3F80
3E00
3E20
3FE0
1FE0
1FF0
1FF0
1FE0
1F00
0300
0730
07F0
03C0
ENDCHAR
STARTCHAR 0119
ENCODING 281
SWIDTH 480 0
DWIDTH 12 0
BBX 12 21 0 -4
BITMAP
7FC0
FF80
7F80
7F80
7F80
7C00
3C00
3F80
3F80
3E00
3E20
3FE0
1FE0
1FF0
1FF0
1FE0
1F00
0300
0730
07F0
03C0
ENDCHAR
STARTCHAR 011A
ENCODING 282
SWIDTH 480 0
DWIDTH 12 0
BBX 12 22 0 0
BITMAP
0700
FF00
7E00
1C00
0000
7FC0
FF80
7F80
7F80
7F80
7C00
3C00
3F80
3F80
3E00
3E20
3FE0
1FE0
1FF0
1FF0
1FE0
1E00
ENDCHAR
STARTCHAR 011B
ENCODING 283
SWIDTH 480 0
DWIDTH 12 0
BBX 12 22 0 0
BITMAP
0700
FF00
7E00
1C00
0000
7FC0
FF80
7F80
7F80
7F80
7C00
3C00
3F80
3F80
3E00
3E20
3FE0
1FE0
1FF0
1FF0
1FE0
1E00
ENDCHAR
STARTCHAR 011C
ENCODING 284
SWIDTH 480 0
DWIDTH 12 0
BBX 12 22 0 0
BITMAP
0100
0780
0FC0
1CE0
0000
07C0
0FE0
1FF0
3FE0
3C00
3800
7800
70F0
71F0
71F0
71F0
F9F0
FFF0
7FF0
7FC0
3F80
1C00
ENDCHAR
STARTCHAR 011D
ENCODING 285
SWIDTH 480 0
DWIDTH 12 0
BBX 12 22 0 0
BITMAP
0100
0780
0FC0
1CE0
0000
07C0
0FE0
1FF0
3FE0
3C00
3800
7800
70F0
71F0
71F0
71F0
F9F0
FFF0
7FF0
7FC0
3F80
1C00
ENDCHAR
STARTCHAR 011E
ENCODING 286
SWIDTH 480 0
DWIDTH 12 0
BBX 12 21 0 0
BITMAP
1CC0
0FC0
0F80
0000
07C0
0FE0
1FF0
3FE0
3C00
3800
7800
70F0
71F0
71F0
71F0
F9F0
FFF0
7FF0
7FC0
3F80
1C00
ENDCHAR
STARTCHAR 011F
ENCODING 287
SWIDTH 480 0
DWIDTH 12 0
BBX 12 21 0 0
BITMAP
1CC0
0FC0
0F80
0000
07C0
0FE0
1FF0
3FE0
3C00
3800
7800
70F0
71F0
71F0
71F0
F9F0
FFF0
7FF0
7FC0
3F80
1C00
ENDCHAR
STARTCHAR 0120
ENCODING 288
SWIDTH 480 0
DWIDTH 12 0
BBX 12 20 0 0
BITMAP
0300
0700
0000
07C0
0FE0
1FF0
3FE0
3C00
3800
7800
70F0
71F0
71F0
71F0
F9F0
FFF0
7FF0
7FC0
3F80
1C00
ENDCHAR
STARTCHAR 0121
ENCODING 289
SWIDTH 480 0
DWIDTH 12 0
BBX 12 20 0 0
BITMAP
0300
0700
0000
07C0
0FE0
1FF0
3FE0
3C00
3800
7800
70F0
71F0
71F0
71F0
F9F0
FFF0
7FF0
7FC0
3F80
1C00
ENDCHAR
STARTCHAR 0122
ENCODING 290
SWIDTH 480 0
DWIDTH 12 0
BBX 12 21 0 -4
BITMAP
07C0
0FE0
1FF0
3FE0
3C00
3800
7800
70F0
71F0
71F0
71F0
F9F0
FFF0
7FF0
7FC0
3F80
1C00
0C00
1E00
1C00
1C00
ENDCHAR
STARTCHAR 0123
ENCODING 291
SWIDTH 480 0
DWIDTH 12 0
BBX 12 21 0 -4
BITMAP
07C0
0FE0
1FF0
3FE0
3C00
3800
7800
70F0
71F0
71F0
71F0
F9F0
FFF0
7FF0
7FC0
3F80
1C00
0C00
1E00
1C00
1C00
ENDCHAR
STARTCHAR 0124
ENCODING 292
SWIDTH 560 0
DWIDTH 14 0
BBX 13 22 1 0
BITMAP
0080
03C0
07E0
0E70
0000
3C00
7CF8
7CF8
7CF8
7CF0
7CF0
7FF0
7FF0
FFF0
FFF0
FFF0
FDF0
FDF0
F9F0
F9F0
F9F0
3900
ENDCHAR
STARTCHAR 0125
ENCODING 293
SWIDTH 560 0
DWIDTH 14 0
BBX 13 22 1 0
BITMAP
0080
03C0
07E0
0E70
0000
3C00
7CF8
7CF8
7CF8
7CF0
7CF0
7FF0
7FF0
FFF0
FFF0
FFF0
FDF0
FDF0
F9F0
F9F0
F9F0
3900
ENDCHAR
STARTCHAR 0126
ENCODING 294
SWIDTH 560 0
DWIDTH 14 0
BBX 14 17 0 0
BITMAP
1E00
3E7C
7FFC
FFFC
FFFC
3E78
3FF8
3FF8
3FF8
7FF8
7FF8
7EF8
7EF8
7CF8
7CF8
7CF8
3CC0
ENDCHAR
STARTCHAR 0127
ENCODING 295
SWIDTH 560 0
DWIDTH 14 0
BBX 14 17 0 0
BITMAP
1E00
3E7C
7FFC
FFFC
FFFC
3E78
3FF8
3FF8
3FF8
7FF8
7FF8
7EF8
7EF8
7CF8
7CF8
7CF8
3CC0
ENDCHAR
STARTCHAR 0128
ENCODING 296
SWIDTH 320 0
DWIDTH 8 0
BBX 9 21 0 0
BITMAP
3F80
3F80
3F00
0000
1F00
3F00
3E00
3E00
3E00
3E00
3E00
3E00
3E00
3E00
7E00
7E00
7E00
7E00
7E00
7E00
F000
ENDCHAR
STARTCHAR 0129
ENCODING 297
SWIDTH 320 0
DWIDTH 8 0
BBX 9 21 0 0
BITMAP
3F80
3F80
3F00
0000
1F00
3F00
3E00
3E00
3E00
3E00
3E00
3E00
3E00
3E00
7E00
7E00
7E00
7E00
7E00
7E00
F000
ENDCHAR
STARTCHAR 012A
ENCODING 298
SWIDTH 320 0
DWIDTH 8 0
BBX 9 20 0 0
BITMAP
3F80
3F80
0000
1F00
3F00
3E00
3E00
3E00
3E00
3E00
3E00
3E00
3E00
7E00
7E00
7E00
7E00
7E00
7E00
F000
ENDCHAR
STARTCHAR 012B
ENCODING 299
SWIDTH 320 0
DWIDTH 8 0
BBX 9 20 0 0
BITMAP
3F80
3F80
0000
1F00
3F00
3E00
3E00
3E00
3E00
3E00
3E00
3E00
3E00
7E00
7E00
7E00
7E00
7E00
7E00
F000
ENDCHAR
STARTCHAR 012C
ENCODING 300
SWIDTH 320 0
DWIDTH 8 0
BBX 9 21 0 0
BITMAP
3380
3F80
1F00
0000
1F00
3F00
3E00
3E00
3E00
3E00
3E00
3E00
3E00
3E00
7E00
7E00
7E00
7E00
7E00
7E00
F000
ENDCHAR
STARTCHAR 012D
ENCODING 301
SWIDTH 320 0
DWIDTH 8 0
BBX 9 21 0 0
BITMAP
3380
3F80
1F00
0000
1F00
3F00
3E00
3E00
3E00
3E00
3E00
3E00
3E00
3E00
7E00
7E00
7E00
7E00
7E00
7E00
F000
ENDCHAR
STARTCHAR 012E
ENCODING 302
SWIDTH 320 0
DWIDTH 8 0
BBX 8 21 0 -4
BITMAP
1F
3F
3E
3E
3E
3E
3E
3E
3E
3E
7E
7E
7E
7E
7E
7E
F8
30
30
7F
3F
ENDCHAR
STARTCHAR 012F
ENCODING 303
SWIDTH 320 0
DWIDTH 8 0
BBX 8 21 0 -4
BITMAP
1F
3F
3E
3E
3E
3E
3E
3E
3E
3E
7E
7E
7E
7E
7E
7E
F8
30
30
7F
3F
ENDCHAR
STARTCHAR 0130
ENCODING 304
SWIDTH 320 0
DWIDTH 8 0
BBX 8 20 0 0
BITMAP
0E
0E
00
1F
3F
3E
3E
3E
3E
3E
3E
3E
3E
7E
7E
7E
7E
7E
7E
F0
ENDCHAR
STARTCHAR 0131
ENCODING 305
SWIDTH 320 0
DWIDTH 8 0
BBX 8 20 0 0
BITMAP
0E
0E
00
1F
3F
3E
3E
3E
3E
3E
3E
3E
3E
7E
7E
7E
7E
7E
7E
F0
ENDCHAR
STARTCHAR 0132
ENCODING 306
SWIDTH 600 0
DWIDTH 15 0
BBX 15 17 0 0
BITMAP
3C3C
3C3C
3C3E
3C3E
3C3E
3C3E
7C3E
7C3E
7C3E
7C3E
7C3E
7DBE
7FDC
7FFC
79FC
79F8
E0F0
ENDCHAR
STARTCHAR 0133
ENCODING 307
SWIDTH 600 0
DWIDTH 15 0
BBX 15 17 0 0
BITMAP
3C3C
3C3C
3C3E
3C3E
3C3E
3C3E
7C3E
7C3E
7C3E
7C3E
7C3E
7DBE
7FDC
7FFC
79FC
79F8
E0F0
ENDCHAR
STARTCHAR 0134
ENCODING 308
SWIDTH 440 0
DWIDTH 11 0
BBX 11 22 0 0
BITMAP
0180
07C0
07E0
0E60
0000
07C0
07E0
07E0
07E0
07E0
07E0
07E0
07E0
07E0
07E0
07E0
33E0
FBE0
FBC0
7FC0
3F80
1F00
ENDCHAR
STARTCHAR 0135
ENCODING 309
SWIDTH 440 0
DWIDTH 11 0
BBX 11 22 0 0
BITMAP
0180
07C0
07E0
0E60
0000
07C0
07E0
07E0
07E0
07E0
07E0
07E0
07E0
07E0
07E0
07E0
33E0
FBE0
FBC0
7FC0
3F80
1F00
ENDCHAR
STARTCHAR 0136
ENCODING 310
SWIDTH 520 0
DWIDTH 13 0
BBX 13 21 0 -4
BITMAP
FE20
7E78
7EF8
7EF0
7FE0
7FE0
7FC0
7FC0
FF80
FF80
FFC0
FFE0
FFF0
FEF0
FE78
7E78
7E20
0380
0380
0780
0700
ENDCHAR
STARTCHAR 0137
ENCODING 311
SWIDTH 520 0
DWIDTH 13 0
BBX 13 21 0 -4
BITMAP
FE20
7E78
7EF8
7EF0
7FE0
7FE0
7FC0
7FC0
FF80
FF80
FFC0
FFE0
FFF0
FEF0
FE78
7E78
7E20
0380
0380
0780
0700
ENDCHAR
STARTCHAR 0138
ENCODING 312
SWIDTH 520 0
DWIDTH 13 0
BBX 13 14 0 0
BITMAP
0020
7E70
7EF8
7FF0
7FE0
7FC0
7F80
FF80
FF80
FFC0
FFE0
FEF0
FE78
7E68
ENDCHAR
STARTCHAR 0139
ENCODING 313
SWIDTH 480 0
DWIDTH 12 0
BBX 11 22 1 0
BITMAP
0380
0780
0700
0E00
0000
1F00
3F00
7F00
7F00
7F00
7E00
7E00
7E00
7E00
7E00
FE00
FC00
FFE0
FFE0
FFE0
FFE0
FF80
ENDCHAR
STARTCHAR 013A
ENCODING 314
SWIDTH 480 0
DWIDTH 12 0
BBX 11 22 1 0
BITMAP
0380
0780
0700
0E00
0000
1F00
3F00
7F00
7F00
7F00
7E00
7E00
7E00
7E00
7E00
FE00
FC00
FFE0
FFE0
FFE0
FFE0
FF80
ENDCHAR
STARTCHAR 013B
ENCODING 315
SWIDTH 480 0
DWIDTH 12 0
BBX 11 21 1 -4
BITMAP
1F00
3F00
7F00
7F00
7F00
7E00
7E00
7E00
7E00
7E00
FE00
FC00
FFE0
FFE0
FFE0
FFE0
FF80
0C00
1E00
1E00
1C00
ENDCHAR
STARTCHAR 013C
ENCODING 316
SWIDTH 480 0
DWIDTH 12 0
BBX 11 21 1 -4
BITMAP
1F00
3F00
7F00
7F00
7F00
7E00
7E00
7E00
7E00
7E00
FE00
FC00
FFE0
FFE0
FFE0
FFE0
FF80
0C00
1E00
1E00
1C00
ENDCHAR
STARTCHAR 013D
ENCODING 317
SWIDTH 480 0
DWIDTH 12 0
BBX 11 18 1 0
BITMAP
0060
1F60
3F60
7F60
7F60
7F40
7E00
7E00
7E00
7E00
7E00
FE00
FC00
FFE0
FFE0
FFE0
FFE0
FF80
ENDCHAR
STARTCHAR 013E
ENCODING 318
SWIDTH 480 0
DWIDTH 12 0
BBX 11 18 1 0
BITMAP
0060
1F60
3F60
7F60
7F60
7F40
7E00
7E00
7E00
7E00
7E00
FE00
FC00
FFE0
FFE0
FFE0
FFE0
FF80
ENDCHAR
STARTCHAR 013F
ENCODING 319
SWIDTH 480 0
DWIDTH 12 0
BBX 11 17 1 0
BITMAP
1F00
3F00
7F00
7F00
7F00
7E00
7E00
7EC0
7EC0
7E80
FE00
FC00
FFE0
FFE0
FFE0
FFE0
FF80
ENDCHAR
STARTCHAR 0140
ENCODING 320
SWIDTH 480 0
DWIDTH 12 0
BBX 11 17 1 0
BITMAP
1F00
3F00
7F00
7F00
7F00
7E00
7E00
7EC0
7EC0
7E80
FE00
FC00
FFE0
FFE0
FFE0
FFE0
FF80
ENDCHAR
STARTCHAR 0141
ENCODING 321
SWIDTH 520 0
DWIDTH 13 0
BBX 13 17 0 0
BITMAP
0FC0
1FC0
1FC0
1FB0
1FF8
1FF8
1FE0
1FC0
3F80
3F00
FF00
FF00
FFF8
7FF8
3FF8
3FF8
3FE0
ENDCHAR
STARTCHAR 0142
ENCODING 322
SWIDTH 520 0
DWIDTH 13 0
BBX 13 17 0 0
BITMAP
0FC0
1FC0
1FC0
1FB0
1FF8
1FF8
1FE0
1FC0
3F80
3F00
FF00
FF00
FFF8
7FF8
3FF8
3FF8
3FE0
ENDCHAR
STARTCHAR 0143
ENCODING 323
SWIDTH 560 0
DWIDTH 14 0
BBX 14 22 0 0
BITMAP
0070
00F0
00E0
01C0
0000
1818
3E7C
3E7C
3E7C
7E78
7F78
7F78
7F78
7F78
7FF8
7FF8
7DF8
7DF8
7DF8
7CF8
7CF8
F060
ENDCHAR
STARTCHAR 0144
ENCODING 324
SWIDTH 560 0
DWIDTH 14 0
BBX 14 22 0 0
BITMAP
0070
00F0
00E0
01C0
0000
1818
3E7C
3E7C
3E7C
7E78
7F78
7F78
7F78
7F78
7FF8
7FF8
7DF8
7DF8
7DF8
7CF8
7CF8
F060
ENDCHAR
STARTCHAR 0145
ENCODING 325
SWIDTH 560 0
DWIDTH 14 0
BBX 14 21 0 -4
BITMAP
1818
3E7C
3E7C
3E7C
7E78
7F78
7F78
7F78
7F78
7FF8
7FF8
7DF8
7DF8
7DF8
7CF8
7CF8
F060
0600
0F00
0F00
0E00
ENDCHAR
STARTCHAR 0146
ENCODING 326
SWIDTH 560 0
DWIDTH 14 0
BBX 14 21 0 -4
BITMAP
1818
3E7C
3E7C
3E7C
7E78
7F78
7F78
7F78
7F78
7FF8
7FF8
7DF8
7DF8
7DF8
7CF8
7CF8
F060
0600
0F00
0F00
0E00
ENDCHAR
STARTCHAR 0147
ENCODING 327
SWIDTH 560 0
DWIDTH 14 0
BBX 14 21 0 0
BITMAP
0E70
07E0
03C0
0100
1818
3E7C
3E7C
3E7C
7E78
7F78
7F78
7F78
7F78
7FF8
7FF8
7DF8
7DF8
7DF8
7CF8
7CF8
F060
ENDCHAR
STARTCHAR 0148
ENCODING 328
SWIDTH 560 0
DWIDTH 14 0
BBX 14 21 0 0
BITMAP
0E70
07E0
03C0
0100
1818
3E7C
3E7C
3E7C
7E78
7F78
7F78
7F78
7F78
7FF8
7FF8
7DF8
7DF8
7DF8
7CF8
7CF8
F060
ENDCHAR
STARTCHAR 0149
ENCODING 329
SWIDTH 600 0
DWIDTH 15 0
BBX 16 18 0 0
BITMAP
7000
7304
77DF
779E
779E
7FDE
FFDE
6FDE
6FDE
0FFE
0FFE
0F7E
0F7E
0F7E
0F3E
0F3C
0F3E
1E08
ENDCHAR
STARTCHAR 014A
ENCODING 330
SWIDTH 520 0
DWIDTH 13 0
BBX 13 21 0 -3
BITMAP
2000
F7C0
FFE0
FFF0
FFF0
FFF8
7DF8
78F8
7878
7878
7878
7078
7078
7078
7878
7878
7878
70F8
03F0
03E0
03C0
ENDCHAR
STARTCHAR 014B
ENCODING 331
SWIDTH 520 0
DWIDTH 13 0
BBX 13 21 0 -3
BITMAP
2000
F7C0
FFE0
FFF0
FFF0
FFF8
7DF8
78F8
7878
7878
7878
7078
7078
7078
7878
7878
7878
70F8
03F0
03E0
03C0
ENDCHAR
STARTCHAR 014C
ENCODING 332
SWIDTH 520 0
DWIDTH 13 0
BBX 13 20 0 0
BITMAP
7F00
7F80
0000
0E00
1F80
3FC0
3FE0
7FF0
7FF0
7CF8
F8F8
F8F8
F8F8
7FF8
7FF8
7FF8
7FF0
3FF0
1FE0
07C0
ENDCHAR
STARTCHAR 014D
ENCODING 333
SWIDTH 520 0
DWIDTH 13 0
BBX 13 20 0 0
BITMAP
7F00
7F80
0000
0E00
1F80
3FC0
3FE0
7FF0
7FF0
7CF8
F8F8
F8F8
F8F8
7FF8
7FF8
7FF8
7FF0
3FF0
1FE0
07C0
ENDCHAR
STARTCHAR 014E
ENCODING 334
SWIDTH 520 0
DWIDTH 13 0
BBX 13 22 0 0
BITMAP
6180
7300
3F00
1E00
0000
0E00
1F80
3FC0
3FE0
7FF0
7FF0
7CF8
F8F8
F8F8
F8F8
7FF8
7FF8
7FF8
7FF0
3FF0
1FE0
07C0
ENDCHAR
STARTCHAR 014F
ENCODING 335
SWIDTH 520 0
DWIDTH 13 0
BBX 13 22 0 0
BITMAP
6180
7300
3F00
1E00
0000
0E00
1F80
3FC0
3FE0
7FF0
7FF0
7CF8
F8F8
F8F8
F8F8
7FF8
7FF8
7FF8
7FF0
3FF0
1FE0
07C0
ENDCHAR
STARTCHAR 0150
ENCODING 336
SWIDTH 520 0
DWIDTH 13 0
BBX 13 22 0 0
BITMAP
1CE0
1DE0
3BC0
3380
0000
0E00
1F80
3FC0
3FE0
7FF0
7FF0
7CF8
F8F8
F8F8
F8F8
7FF8
7FF8
7FF8
7FF0
3FF0
1FE0
07C0
ENDCHAR
STARTCHAR 0151
ENCODING 337
SWIDTH 520 0
DWIDTH 13 0
BBX 13 22 0 0
BITMAP
1CE0
1DE0
3BC0
3380
0000
0E00
1F80
3FC0
3FE0
7FF0
7FF0
7CF8
F8F8
F8F8
F8F8
7FF8
7FF8
7FF8
7FF0
3FF0
1FE0
07C0
ENDCHAR
STARTCHAR 0152
ENCODING 338
SWIDTH 720 0
DWIDTH 18 0
BBX 18 17 0 0
BITMAP
03FF00
07FE00
1FFE00
1FFE00
3FFE00
7FF000
7CF000
78FE00
F8FE00
F8F800
FDF880
7FFF80
7FFFC0
7FFFC0
7FFFC0
3FFF80
1FF800
ENDCHAR
STARTCHAR 0153
ENCODING 339
SWIDTH 720 0
DWIDTH 18 0
BBX 18 17 0 0
BITMAP
03FF00
07FE00
1FFE00
1FFE00
3FFE00
7FF000
7CF000
78FE00
F8FE00
F8F800
FDF880
7FFF80
7FFFC0
7FFFC0
7FFFC0
3FFF80
1FF800
ENDCHAR
STARTCHAR 0154
ENCODING 340
SWIDTH 560 0
DWIDTH 14 0
BBX 14 22 0 0
BITMAP
0700
0E00
1E00
1C00
0000
1F80
FFE0
FFF0
FC70
7C70
7C70
7EF0
7FF0
7FE0
7FC0
7FE0
7EE0
7EF0
7E78
7E78
3F3C
3E3C
ENDCHAR
STARTCHAR 0155
ENCODING 341
SWIDTH 560 0
DWIDTH 14 0
BBX 14 22 0 0
BITMAP
0700
0E00
1E00
1C00
0000
1F80
FFE0
FFF0
FC70
7C70
7C70
7EF0
7FF0
7FE0
7FC0
7FE0
7EE0
7EF0
7E78
7E78
3F3C
3E3C
ENDCHAR
STARTCHAR 0156
ENCODING 342
SWIDTH 560 0
DWIDTH 14 0
BBX 14 21 0 -4
BITMAP
1F80
FFE0
FFF0
FC70
7C70
7C70
7EF0
7FF0
7FE0
7FC0
7FE0
7EE0
7EF0
7E78
7E78
3F3C
3E3C
01C0
01C0
03C0
0380
ENDCHAR
STARTCHAR 0157
ENCODING 343
SWIDTH 560 0
DWIDTH 14 0
BBX 14 21 0 -4
BITMAP
1F80
FFE0
FFF0
FC70
7C70
7C70
7EF0
7FF0
7FE0
7FC0
7FE0
7EE0
7EF0
7E78
7E78
3F3C
3E3C
01C0
01C0
03C0
0380
ENDCHAR
STARTCHAR 0158
ENCODING 344
SWIDTH 560 0
DWIDTH 14 0
BBX 14 22 0 0
BITMAP
0300
EF00
7E00
3C00
0000
1F80
FFE0
FFF0
FC70
7C70
7C70
7EF0
7FF0
7FE0
7FC0
7FE0
7EE0
7EF0
7E78
7E78
3F3C
3E3C
ENDCHAR
STARTCHAR 0159
ENCODING 345
SWIDTH 560 0
DWIDTH 14 0
BBX 14 22 0 0
BITMAP
0300
EF00
7E00
3C00
0000
1F80
FFE0
FFF0
FC70
7C70
7C70
7EF0
7FF0
7FE0
7FC0
7FE0
7EE0
7EF0
7E78
7E78
3F3C
3E3C
ENDCHAR
STARTCHAR 015A
ENCODING 346
SWIDTH 480 0
DWIDTH 12 0
BBX 12 22 0 0
BITMAP
00E0
01C0
03C0
0380
0000
0FF0
1FF0
3FE0
3FE0
7FC0
7FC0
7C40
3E00
3F80
1FE0
03E0
01F0
6BF0
FFF0
FFE0
7FC0
1F80
ENDCHAR
STARTCHAR 015B
ENCODING 347
SWIDTH 480 0
DWIDTH 12 0
BBX 12 22 0 0
BITMAP
00E0
01C0
03C0
0380
0000
0FF0
1FF0
3FE0
3FE0
7FC0
7FC0
7C40
3E00
3F80
1FE0
03E0
01F0
6BF0
FFF0
FFE0
7FC0
1F80
ENDCHAR
STARTCHAR 015C
ENCODING 348
SWIDTH 480 0
DWIDTH 12 0
BBX 12 22 0 0
BITMAP
0100
0780
0FC0
1CE0
0000
0FF0
1FF0
3FE0
3FE0
7FC0
7FC0
7C40
3E00
3F80
1FE0
03E0
01F0
6BF0
FFF0
FFE0
7FC0
1F80
ENDCHAR
STARTCHAR 015D
ENCODING 349
SWIDTH 480 0
DWIDTH 12 0
BBX 12 22 0 0
BITMAP
0100
0780
0FC0
1CE0
0000
0FF0
1FF0
3FE0
3FE0
7FC0
7FC0
7C40
3E00
3F80
1FE0
03E0
01F0
6BF0
FFF0
FFE0
7FC0
1F80
ENDCHAR
STARTCHAR 015E
ENCODING 350
SWIDTH 480 0
DWIDTH 12 0
BBX 12 21 0 -4
BITMAP
0FF0
1FF0
3FE0
3FE0
7FC0
7FC0
7C40
3E00
3F80
1FE0
03E0
01F0
6BF0
FFF0
FFE0
7FC0
3F80
0F00
0380
3F80
1F80
ENDCHAR
STARTCHAR 015F
ENCODING 351
SWIDTH 480 0
DWIDTH 12 0
BBX 12 21 0 -4
BITMAP
0FF0
1FF0
3FE0
3FE0
7FC0
7FC0
7C40
3E00
3F80
1FE0
03E0
01F0
6BF0
FFF0
FFE0
7FC0
3F80
0F00
0380
3F80
1F80
ENDCHAR
STARTCHAR 0160
ENCODING 352
SWIDTH 480 0
DWIDTH 12 0
BBX 12 22 0 0
BITMAP
0800
1DE0
0FC0
0780
0000
0FF0
1FF0
3FE0
3FE0
7FC0
7FC0
7C40
3E00
3F80
1FE0
03E0
01F0
6BF0
FFF0
FFE0
7FC0
1F80
ENDCHAR
STARTCHAR 0161
ENCODING 353
SWIDTH 480 0
DWIDTH 12 0
BBX 12 22 0 0
BITMAP
0800
1DE0
0FC0
0780
0000
0FF0
1FF0
3FE0
3FE0
7FC0
7FC0
7C40
3E00
3F80
1FE0
03E0
01F0
6BF0
FFF0
FFE0
7FC0
1F80
ENDCHAR
STARTCHAR 0162
ENCODING 354
SWIDTH 560 0
DWIDTH 14 0
BBX 14 21 0 -4
BITMAP
7FF8
7FF8
7FFC
7FFC
FFFC
73C0
0380
0380
0780
0780
0780
0780
0780
0780
0780
0780
0380
0380
01E0
0FE0
07E0
ENDCHAR
STARTCHAR 0163
ENCODING 355
SWIDTH 560 0
DWIDTH 14 0
BBX 14 21 0 -4
BITMAP
7FF8
7FF8
7FFC
7FFC
FFFC
73C0
0380
0380
0780
0780
0780
0780
0780
0780
0780
0780
0380
0380
01E0
0FE0
07E0
ENDCHAR
STARTCHAR 0164
ENCODING 356
SWIDTH 560 0
DWIDTH 14 0
BBX 14 22 0 0
BITMAP
0840
0EE0
0FC0
0380
0000
7FF8
7FF8
7FFC
7FFC
FFFC
73C0
0380
0380
0780
0780
0780
0780
0780
0780
0780
0780
0380
ENDCHAR
STARTCHAR 0165
ENCODING 357
SWIDTH 560 0
DWIDTH 14 0
BBX 14 22 0 0
BITMAP
0840
0EE0
0FC0
0380
0000
7FF8
7FF8
7FFC
7FFC
FFFC
73C0
0380
0380
0780
0780
0780
0780
0780
0780
0780
0780
0380
ENDCHAR
STARTCHAR 0166
ENCODING 358
SWIDTH 560 0
DWIDTH 14 0
BBX 14 17 0 0
BITMAP
7FF8
7FF8
7FFC
7FFC
FFFC
73C0
0380
0380
3FF8
3FF8
3FF8
0780
0780
0780
0780
0780
0380
ENDCHAR
STARTCHAR 0167
ENCODING 359
SWIDTH 560 0
DWIDTH 14 0
BBX 14 17 0 0
BITMAP
7FF8
7FF8
7FFC
7FFC
FFFC
73C0
0380
0380
3FF8
3FF8
3FF8
0780
0780
0780
0780
0780
0380
ENDCHAR
STARTCHAR 0168
ENCODING 360
SWIDTH 520 0
DWIDTH 13 0
BBX 13 20 0 0
BITMAP
0770
0FF0
0FE0
0000
3C78
3C78
7878
7878
7878
7878
7878
F878
FC78
7EF8
7FF8
7FF0
7FF0
3FF0
3FE0
1FC0
ENDCHAR
STARTCHAR 0169
ENCODING 361
SWIDTH 520 0
DWIDTH 13 0
BBX 13 20 0 0
BITMAP
0770
0FF0
0FE0
0000
3C78
3C78
7878
7878
7878
7878
7878
F878
FC78
7EF8
7FF8
7FF0
7FF0
3FF0
3FE0
1FC0
ENDCHAR
STARTCHAR 016A
ENCODING 362
SWIDTH 520 0
DWIDTH 13 0
BBX 13 19 0 0
BITMAP
0FE0
0FE0
0000
3C78
3C78
7878
7878
7878
7878
7878
F878
FC78
7EF8
7FF8
7FF0
7FF0
3FF0
3FE0
1FC0
ENDCHAR
STARTCHAR 016B
ENCODING 363
SWIDTH 520 0
DWIDTH 13 0
BBX 13 19 0 0
BITMAP
0FE0
0FE0
0000
3C78
3C78
7878
7878
7878
7878
7878
F878
FC78
7EF8
7FF8
7FF0
7FF0
3FF0
3FE0
1FC0
ENDCHAR
STARTCHAR 016C
ENCODING 364
SWIDTH 520 0
DWIDTH 13 0
BBX 13 20 0 0
BITMAP
0E70
07E0
03C0
0000
3C78
3C78
7878
7878
7878
7878
7878
F878
FC78
7EF8
7FF8
7FF0
7FF0
3FF0
3FE0
1FC0
ENDCHAR
STARTCHAR 016D
ENCODING 365
SWIDTH 520 0
DWIDTH 13 0
BBX 13 20 0 0
BITMAP
0E70
07E0
03C0
0000
3C78
3C78
7878
7878
7878
7878
7878
F878
FC78
7EF8
7FF8
7FF0
7FF0
3FF0
3FE0
1FC0
ENDCHAR
STARTCHAR 016E
ENCODING 366
SWIDTH 520 0
DWIDTH 13 0
BBX 13 22 0 0
BITMAP
0380
07E0
0E60
0E60
0EE0
07C0
3C78
3C78
7878
7878
7878
7878
7878
F878
FC78
7EF8
7FF8
7FF0
7FF0
3FF0
3FE0
1FC0
ENDCHAR
STARTCHAR 016F
ENCODING 367
SWIDTH 520 0
DWIDTH 13 0
BBX 13 22 0 0
BITMAP
0380
07E0
0E60
0E60
0EE0
07C0
3C78
3C78
7878
7878
7878
7878
7878
F878
FC78
7EF8
7FF8
7FF0
7FF0
3FF0
3FE0
1FC0
ENDCHAR
STARTCHAR 0170
ENCODING 368
SWIDTH 520 0
DWIDTH 13 0
BBX 14 21 0 0
BITMAP
03BC
03B8
0770
0E70
0000
3C78
3C78
7878
7878
7878
7878
7878
F878
FC78
7EF8
7FF8
7FF0
7FF0
3FF0
3FE0
1FC0
ENDCHAR
STARTCHAR 0171
ENCODING 369
SWIDTH 520 0
DWIDTH 13 0
BBX 14 21 0 0
BITMAP
03BC
03B8
0770
0E70
0000
3C78
3C78
7878
7878
7878
7878
7878
F878
FC78
7EF8
7FF8
7FF0
7FF0
3FF0
3FE0
1FC0
ENDCHAR
STARTCHAR 0172
ENCODING 370
SWIDTH 520 0
DWIDTH 13 0
BBX 13 21 0 -4
BITMAP
3C78
3C78
7878
7878
7878
7878
7878
F878
FC78
7EF8
7FF8
7FF0
7FF0
3FF0
3FE0
1FC0
0600
0600
0C00
0FE0
0FC0
ENDCHAR
STARTCHAR 0173
ENCODING 371
SWIDTH 520 0
DWIDTH 13 0
BBX 13 21 0 -4
BITMAP
3C78
3C78
7878
7878
7878
7878
7878
F878
FC78
7EF8
7FF8
7FF0
7FF0
3FF0
3FE0
1FC0
0600
0600
0C00
0FE0
0FC0
ENDCHAR
STARTCHAR 0174
ENCODING 372
SWIDTH 720 0
DWIDTH 18 0
BBX 18 22 0 0
BITMAP
00C000
01E000
03F800
073000
000000
7803C0
F8C780
FCE780
7CEF80
7CEF80
7EEF80
3EFF00
3FFF00
1FFF00
1FFF00
0FFF00
0F9E00
0F9E00
079E00
031E00
030E00
010000
ENDCHAR
STARTCHAR 0175
ENCODING 373
SWIDTH 720 0
DWIDTH 18 0
BBX 18 22 0 0
BITMAP
00C000
01E000
03F800
073000
000000
7803C0
F8C780
FCE780
7CEF80
7CEF80
7EEF80
3EFF00
3FFF00
1FFF00
1FFF00
0FFF00
0F9E00
0F9E00
079E00
031E00
030E00
010000
ENDCHAR
STARTCHAR 0176
ENCODING 374
SWIDTH 600 0
DWIDTH 15 0
BBX 14 22 1 0
BITMAP
0200
0F80
1FC0
1CC0
0000
003C
F078
F078
F8F0
78F0
7DE0
3DE0
3FE0
1FC0
1FC0
0F80
0F80
0780
0780
0780
0780
0780
ENDCHAR
STARTCHAR 0177
ENCODING 375
SWIDTH 600 0
DWIDTH 15 0
BBX 14 22 1 0
BITMAP
0200
0F80
1FC0
1CC0
0000
003C
F078
F078
F8F0
78F0
7DE0
3DE0
3FE0
1FC0
1FC0
0F80
0F80
0780
0780
0780
0780
0780
ENDCHAR
STARTCHAR 0178
ENCODING 376
SWIDTH 600 0
DWIDTH 15 0
BBX 14 20 1 0
BITMAP
0CC0
1CC0
0000
003C
F078
F078
F8F0
78F0
7DE0
3DE0
3FE0
1FC0
1FC0
0F80
0F80
0780
0780
0780
0780
0780
ENDCHAR
STARTCHAR 0179
ENCODING 377
SWIDTH 600 0
DWIDTH 15 0
BBX 15 22 0 0
BITMAP
01C0
01C0
0380
0300
0000
0FF8
7FF0
7FE0
FFE0
E3C0
03C0
0380
0780
0780
0F00
0F00
0F00
1EFC
1FFE
1FFC
1FF8
01E0
ENDCHAR
STARTCHAR 017A
ENCODING 378
SWIDTH 600 0
DWIDTH 15 0
BBX 15 22 0 0
BITMAP
01C0
01C0
0380
0300
0000
0FF8
7FF0
7FE0
FFE0
E3C0
03C0
0380
0780
0780
0F00
0F00
0F00
1EFC
1FFE
1FFC
1FF8
01E0
ENDCHAR
STARTCHAR 017B
ENCODING 379
SWIDTH 600 0
DWIDTH 15 0
BBX 15 20 0 0
BITMAP
0700
0700
0000
0FF8
7FF0
7FE0
FFE0
E3C0
03C0
0380
0780
0780
0F00
0F00
0F00
1EFC
1FFE
1FFC
1FF8
01E0
ENDCHAR
STARTCHAR 017C
ENCODING 380
SWIDTH 600 0
DWIDTH 15 0
BBX 15 20 0 0
BITMAP
0700
0700
0000
0FF8
7FF0
7FE0
FFE0
E3C0
03C0
0380
0780
0780
0F00
0F00
0F00
1EFC
1FFE
1FFC
1FF8
01E0
ENDCHAR
STARTCHAR 017D
ENCODING 381
SWIDTH 600 0
DWIDTH 15 0
BBX 15 22 0 0
BITMAP
0840
1DC0
0FC0
0700
0000
0FF8
7FF0
7FE0
FFE0
E3C0
03C0
0380
0780
0780
0F00
0F00
0F00
1EFC
1FFE
1FFC
1FF8
01E0
ENDCHAR
STARTCHAR 017E
ENCODING 382
SWIDTH 600 0
DWIDTH 15 0
BBX 15 22 0 0
BITMAP
0840
1DC0
0FC0
0700
0000
0FF8
7FF0
7FE0
FFE0
E3C0
03C0
0380
0780
0780
0F00
0F00
0F00
1EFC
1FFE
1FFC
1FF8
01E0
ENDCHAR
STARTCHAR 017F
ENCODING 383
SWIDTH 400 0
DWIDTH 10 0
BBX 10 21 0 -4
BITMAP
1FC0
3FC0
7FC0
79C0
F800
F800
7800
7800
7800
7800
7800
7800
7800
7800
7800
7800
7800
7800
7800
7800
2000
ENDCHAR
STARTCHAR 0180
ENCODING 384
SWIDTH 520 0
DWIDTH 13 0
BBX 13 17 0 0
BITMAP
7F00
7F80
FFC0
7FC0
79E0
79C0
79C0
7F80
7FE0
3FF0
3CF0
FF78
FFF8
7FF0
3FF0
3FE0
1E00
ENDCHAR
STARTCHAR 0181
ENCODING 385
SWIDTH 640 0
DWIDTH 16 0
BBX 17 17 0 0
BITMAP
1FF000
3FF800
7FFC00
7FFC00
F79C00
E79C00
679C00
77F800
7FFE00
3FFE00
3BCF00
03CF80
03CF00
03FF00
03FF00
03FE00
01E000
ENDCHAR
STARTCHAR 0186
ENCODING 390
SWIDTH 480 0
DWIDTH 12 0
BBX 12 17 0 0
BITMAP
1E00
7F80
FFC0
7FE0
7FE0
03F0
01F0
01F0
01F0
63F0
7FF0
7FF0
7FE0
7FE0
7FC0
3FC0
0C00
ENDCHAR
STARTCHAR 0187
ENCODING 391
SWIDTH 480 0
DWIDTH 12 0
BBX 12 21 0 0
BITMAP
01F0
03F0
03F0
07C0
07C0
1FE0
3FF0
7FF0
7FF0
7E00
FC00
F800
7800
FC30
7FF0
7FF0
7FF0
3FF0
3FE0
1FC0
0300
ENDCHAR
STARTCHAR 0188
ENCODING 392
SWIDTH 480 0
DWIDTH 12 0
BBX 12 21 0 0
BITMAP
01F0
03F0
03F0
07C0
07C0
1FE0
3FF0
7FF0
7FF0
7E00
FC00
F800
7800
FC30
7FF0
7FF0
7FF0
3FF0
3FE0
1FC0
0300
ENDCHAR
STARTCHAR 0189
ENCODING 393
SWIDTH 480 0
DWIDTH 12 0
BBX 12 17 0 0
BITMAP
3E00
7F80
7FC0
7FE0
7FE0
7CF0
FE70
FF70
FFF0
FDE0
3FE0
3FC0
3FC0
1F80
1F00
1E00
1800
ENDCHAR
STARTCHAR 018A
ENCODING 394
SWIDTH 600 0
DWIDTH 15 0
BBX 16 17 0 0
BITMAP
1FC0
3FF8
7FF8
7FFC
F7FE
E78E
678E
77CF
7FCE
3FDE
3BFC
03FC
03F8
03F8
03F0
01C0
0100
ENDCHAR
STARTCHAR 018F
ENCODING 399
SWIDTH 480 0
DWIDTH 12 0
BBX 11 17 1 0
BITMAP
7E00
FF00
FF80
FF80
03C0
01C0
0FC0
FFC0
FFE0
FFE0
F1E0
F3E0
FFE0
FFE0
7FC0
3F80
0F00
ENDCHAR
STARTCHAR 0190
ENCODING 400
SWIDTH 480 0
DWIDTH 12 0
BBX 12 17 0 0
BITMAP
1F80
3FC0
7FE0
7C00
F800
7800
7C00
7F80
3F80
3F00
3C00
7C00
7C10
7FF0
3FF0
1FE0
0FC0
ENDCHAR
STARTCHAR 0191
ENCODING 401
SWIDTH 480 0
DWIDTH 12 0
BBX 14 21 -2 -3
BITMAP
0020
1FFC
3FFC
3FFC
3F80
3E00
3E00
3FC0
1FC0
3FC0
3F40
3E00
3E00
3E00
3E00
3E00
3E00
3E00
FE00
FC00
F800
ENDCHAR
STARTCHAR 0192
ENCODING 402
SWIDTH 480 0
DWIDTH 12 0
BBX 14 21 -2 -3
BITMAP
0020
1FFC
3FFC
3FFC
3F80
3E00
3E00
3FC0
1FC0
3FC0
3F40
3E00
3E00
3E00
3E00
3E00
3E00
3E00
FE00
FC00
F800
ENDCHAR
STARTCHAR 0193
ENCODING 403
SWIDTH 480 0
DWIDTH 12 0
BBX 12 21 0 0
BITMAP
00F0
01F0
03F0
03C0
07C0
0FE0
1FF0
3FE0
3C00
3800
7800
70F0
71F0
71F0
71F0
F9F0
FFF0
7FF0
7FC0
3F80
1C00
ENDCHAR
STARTCHAR 0194
ENCODING 404
SWIDTH 600 0
DWIDTH 15 0
BBX 15 20 0 -3
BITMAP
F010
783E
783E
783C
387C
3C78
3CF8
1EF0
1EF0
0FF0
07E0
07C0
07C0
0FE0
0EE0
0CE0
0CE0
0FE0
0FC0
0780
ENDCHAR
STARTCHAR 0197
ENCODING 407
SWIDTH 360 0
DWIDTH 9 0
BBX 9 17 0 0
BITMAP
1F00
1F00
1F00
1F00
3F00
3F00
3F00
FF80
FF80
FF80
3E00
3E00
3E00
3E00
3E00
7E00
7800
ENDCHAR
STARTCHAR 0198
ENCODING 408
SWIDTH 600 0
DWIDTH 15 0
BBX 15 17 0 0
BITMAP
FE38
7E7C
7EFC
7EFE
7FEE
7FCE
7FDC
7F9C
FF98
FF80
FFC0
FFE0
FFF0
FEF0
FE78
7E78
7E20
ENDCHAR
STARTCHAR 0199
ENCODING 409
SWIDTH 600 0
DWIDTH 15 0
BBX 15 17 0 0
BITMAP
FE38
7E7C
7EFC
7EFE
7FEE
7FCE
7FDC
7F9C
FF98
FF80
FFC0
FFE0
FFF0
FEF0
FE78
7E78
7E20
ENDCHAR
STARTCHAR 019D
ENCODING 413
SWIDTH 560 0
DWIDTH 14 0
BBX 16 20 -2 -3
BITMAP
0606
0F9F
0F9F
0F9F
1F9E
1FDE
1FDE
1FDE
1FDE
1FFE
1FFE
1F7E
1F7E
1F7E
1E3E
3E3E
3E18
FE00
FC00
F800
ENDCHAR
STARTCHAR 01A0
ENCODING 416
SWIDTH 520 0
DWIDTH 13 0
BBX 13 18 0 0
BITMAP
0018
0E18
1F98
3FD8
3FF8
7FF8
7FF8
7CF8
F8F8
F8F8
F8F8
7FF8
7FF8
7FF8
7FF0
3FF0
1FE0
07C0
ENDCHAR
STARTCHAR 01A1
ENCODING 417
SWIDTH 520 0
DWIDTH 13 0
BBX 13 18 0 0
BITMAP
0018
0E18
1F98
3FD8
3FF8
7FF8
7FF8
7CF8
F8F8
F8F8
F8F8
7FF8
7FF8
7FF8
7FF0
3FF0
1FE0
07C0
ENDCHAR
STARTCHAR 01AF
ENCODING 431
SWIDTH 600 0
DWIDTH 15 0
BBX 15 18 0 0
BITMAP
000E
70EE
70E6
70E6
70FE
70FE
70FC
70F8
F8F0
F8F0
79F0
7FF0
7FF0
3FF0
3FE0
1FE0
1FC0
0F00
ENDCHAR
STARTCHAR 01B0
ENCODING 432
SWIDTH 600 0
DWIDTH 15 0
BBX 15 18 0 0
BITMAP
000E
70EE
70E6
70E6
70FE
70FE
70FC
70F8
F8F0
F8F0
79F0
7FF0
7FF0
3FF0
3FE0
1FE0
1FC0
0F00
ENDCHAR
STARTCHAR 01B1
ENCODING 433
SWIDTH 600 0
DWIDTH 15 0
BBX 15 17 0 0
BITMAP
FE7E
FE7E
FE7E
1C78
3C3C
381C
781C
781E
781E
781E
783E
7C7C
7FFC
7FFC
3FF8
3FF0
0FC0
ENDCHAR
STARTCHAR 01B2
ENCODING 434
SWIDTH 560 0
DWIDTH 14 0
BBX 14 17 0 0
BITMAP
73C0
F3E0
F1F0
F0F8
F878
F878
787C
787C
7C7C
7CFC
7FFC
3FF8
3FF8
1FF8
1FF0
0FE0
0080
ENDCHAR
STARTCHAR 01B3
ENCODING 435
SWIDTH 640 0
DWIDTH 16 0
BBX 16 17 1 0
BITMAP
0038
F07C
F07E
F8FE
78FF
7DE7
3DE6
3FEE
1FDE
1FDC
0F80
0F80
0780
0780
0780
0780
0780
ENDCHAR
STARTCHAR 01B4
ENCODING 436
SWIDTH 640 0
DWIDTH 16 0
BBX 16 17 1 0
BITMAP
0038
F07C
F07E
F8FE
78FF
7DE7
3DE6
3FEE
1FDE
1FDC
0F80
0F80
0780
0780
0780
0780
0780
ENDCHAR
STARTCHAR 01B5
ENCODING 437
SWIDTH 600 0
DWIDTH 15 0
BBX 15 17 0 0
BITMAP
0FF8
7FF0
7FE0
FFE0
E3C0
03C0
03E0
3FF8
7FF8
7FF8
0F00
0F00
1EFC
1FFE
1FFC
1FF8
01E0
ENDCHAR
STARTCHAR 01B6
ENCODING 438
SWIDTH 600 0
DWIDTH 15 0
BBX 15 17 0 0
BITMAP
0FF8
7FF0
7FE0
FFE0
E3C0
03C0
03E0
3FF8
7FF8
7FF8
0F00
0F00
1EFC
1FFE
1FFC
1FF8
01E0
ENDCHAR
STARTCHAR 01B7
ENCODING 439
SWIDTH 480 0
DWIDTH 12 0
BBX 12 17 0 0
BITMAP
7FC0
7FE0
3FC0
01C0
0780
0F00
1FC0
3FE0
3FE0
00F0
0070
0070
F0F0
FFF0
FFE0
7FE0
1F80
ENDCHAR
STARTCHAR 01BB
ENCODING 443
SWIDTH 480 0
DWIDTH 12 0
BBX 11 17 1 0
BITMAP
3E00
7F00
FF80
FF80
E780
4780
3FE0
7FE0
7FE0
6E00
1FE0
1FE0
3FE0
3FE0
FFE0
FF80
1C00
ENDCHAR
STARTCHAR 01C0
ENCODING 448
SWIDTH 160 0
DWIDTH 4 0
BBX 4 17 0 0
BITMAP
70
70
70
70
70
70
70
70
70
70
70
70
70
F0
70
70
70
ENDCHAR
STARTCHAR 01C1
ENCODING 449
SWIDTH 280 0
DWIDTH 7 0
BBX 7 17 0 0
BITMAP
6E
6E
6E
6E
6E
EE
EE
FE
EE
EE
EE
FE
6E
EE
EE
6E
6E
ENDCHAR
STARTCHAR 01C2
ENCODING 450
SWIDTH 320 0
DWIDTH 8 0
BBX 8 17 0 0
BITMAP
3C
3C
3C
3C
FF
FF
FF
7C
3C
3C
7F
FF
FF
FC
3C
3C
3C
ENDCHAR
STARTCHAR 01C3
ENCODING 451
SWIDTH 200 0
DWIDTH 5 0
BBX 5 17 0 1
BITMAP
78
78
78
78
78
78
78
78
78
70
70
00
00
70
F8
78
70
ENDCHAR
STARTCHAR 01CA
ENCODING 458
SWIDTH 720 0
DWIDTH 18 0
BBX 18 17 0 0
BITMAP
3083C0
3BC3C0
7BC3C0
7BC7C0
7BC7C0
7FC7C0
7FC7C0
7FC7C0
7F83C0
7F83C0
7783C0
779BC0
77BBC0
77BF80
739F80
F39F00
E10F00
ENDCHAR
STARTCHAR 01CB
ENCODING 459
SWIDTH 720 0
DWIDTH 18 0
BBX 18 17 0 0
BITMAP
3083C0
3BC3C0
7BC3C0
7BC7C0
7BC7C0
7FC7C0
7FC7C0
7FC7C0
7F83C0
7F83C0
7783C0
779BC0
77BBC0
77BF80
739F80
F39F00
E10F00
ENDCHAR
STARTCHAR 01CC
ENCODING 460
SWIDTH 720 0
DWIDTH 18 0
BBX 18 17 0 0
BITMAP
3083C0
3BC3C0
7BC3C0
7BC7C0
7BC7C0
7FC7C0
7FC7C0
7FC7C0
7F83C0
7F83C0
7783C0
779BC0
77BBC0
77BF80
739F80
F39F00
E10F00
ENDCHAR
STARTCHAR 01CD
ENCODING 461
SWIDTH 600 0
DWIDTH 15 0
BBX 15 23 0 -1
BITMAP
0200
0770
07E0
01C0
0000
01C0
01C0
01C0
03E0
03E0
07E0
07E0
07F0
0FF0
0EF0
1CF8
19F8
3FF8
3FFC
7CFC
787E
787E
C000
ENDCHAR
STARTCHAR 01CE
ENCODING 462
SWIDTH 600 0
DWIDTH 15 0
BBX 15 23 0 -1
BITMAP
0200
0770
07E0
01C0
0000
01C0
01C0
01C0
03E0
03E0
07E0
07E0
07F0
0FF0
0EF0
1CF8
19F8
3FF8
3FFC
7CFC
787E
787E
C000
ENDCHAR
STARTCHAR 01CF
ENCODING 463
SWIDTH 320 0
DWIDTH 8 0
BBX 9 22 0 0
BITMAP
1000
3B80
1F00
0E00
0000
1F00
3F00
3E00
3E00
3E00
3E00
3E00
3E00
3E00
3E00
7E00
7E00
7E00
7E00
7E00
7E00
F000
ENDCHAR
STARTCHAR 01D0
ENCODING 464
SWIDTH 320 0
DWIDTH 8 0
BBX 9 22 0 0
BITMAP
1000
3B80
1F00
0E00
0000
1F00
3F00
3E00
3E00
3E00
3E00
3E00
3E00
3E00
3E00
7E00
7E00
7E00
7E00
7E00
7E00
F000
ENDCHAR
STARTCHAR 01D1
ENCODING 465
SWIDTH 520 0
DWIDTH 13 0
BBX 13 22 0 0
BITMAP
6300
7700
3E00
1C00
0000
0E00
1F80
3FC0
3FE0
7FF0
7FF0
7CF8
F8F8
F8F8
F8F8
7FF8
7FF8
7FF8
7FF0
3FF0
1FE0
07C0
ENDCHAR
STARTCHAR 01D2
ENCODING 466
SWIDTH 520 0
DWIDTH 13 0
BBX 13 22 0 0
BITMAP
6300
7700
3E00
1C00
0000
0E00
1F80
3FC0
3FE0
7FF0
7FF0
7CF8
F8F8
F8F8
F8F8
7FF8
7FF8
7FF8
7FF0
3FF0
1FE0
07C0
ENDCHAR
STARTCHAR 01D3
ENCODING 467
SWIDTH 520 0
DWIDTH 13 0
BBX 13 21 0 0
BITMAP
0400
0EF0
07E0
03C0
0000
3C78
3C78
7878
7878
7878
7878
7878
F878
FC78
7EF8
7FF8
7FF0
7FF0
3FF0
3FE0
1FC0
ENDCHAR
STARTCHAR 01D4
ENCODING 468
SWIDTH 520 0
DWIDTH 13 0
BBX 13 21 0 0
BITMAP
0400
0EF0
07E0
03C0
0000
3C78
3C78
7878
7878
7878
7878
7878
F878
FC78
7EF8
7FF8
7FF0
7FF0
3FF0
3FE0
1FC0
ENDCHAR
STARTCHAR 01D5
ENCODING 469
SWIDTH 520 0
DWIDTH 13 0
BBX 13 22 0 0
BITMAP
0F80
0FF0
0000
0660
0EE0
0440
3C78
3C78
7878
7878
7878
7878
7878
F878
FC78
7EF8
7FF8
7FF0
7FF0
3FF0
3FE0
1FC0
ENDCHAR
STARTCHAR 01D6
ENCODING 470
SWIDTH 520 0
DWIDTH 13 0
BBX 13 22 0 0
BITMAP
0F80
0FF0
0000
0660
0EE0
0440
3C78
3C78
7878
7878
7878
7878
7878
F878
FC78
7EF8
7FF8
7FF0
7FF0
3FF0
3FE0
1FC0
ENDCHAR
STARTCHAR 01D7
ENCODING 471
SWIDTH 520 0
DWIDTH 13 0
BBX 13 22 0 0
BITMAP
00F0
00E0
01C0
0660
0EE0
0440
3C78
3C78
7878
7878
7878
7878
7878
F878
FC78
7EF8
7FF8
7FF0
7FF0
3FF0
3FE0
1FC0
ENDCHAR
STARTCHAR 01D8
ENCODING 472
SWIDTH 520 0
DWIDTH 13 0
BBX 13 22 0 0
BITMAP
00F0
00E0
01C0
0660
0EE0
0440
3C78
3C78
7878
7878
7878
7878
7878
F878
FC78
7EF8
7FF8
7FF0
7FF0
3FF0
3FE0
1FC0
ENDCHAR
STARTCHAR 01D9
ENCODING 473
SWIDTH 520 0
DWIDTH 13 0
BBX 13 22 0 0
BITMAP
0420
07E0
03C0
0660
0EE0
0440
3C78
3C78
7878
7878
7878
7878
7878
F878
FC78
7EF8
7FF8
7FF0
7FF0
3FF0
3FE0
1FC0
ENDCHAR
STARTCHAR 01DA
ENCODING 474
SWIDTH 520 0
DWIDTH 13 0
BBX 13 22 0 0
BITMAP
0420
07E0
03C0
0660
0EE0
0440
3C78
3C78
7878
7878
7878
7878
7878
F878
FC78
7EF8
7FF8
7FF0
7FF0
3FF0
3FE0
1FC0
ENDCHAR
STARTCHAR 01DB
ENCODING 475
SWIDTH 520 0
DWIDTH 13 0
BBX 13 22 0 0
BITMAP
0E00
0700
0380
0660
0EE0
0440
3C78
3C78
7878
7878
7878
7878
7878
F878
FC78
7EF8
7FF8
7FF0
7FF0
3FF0
3FE0
1FC0
ENDCHAR
STARTCHAR 01DC
ENCODING 476
SWIDTH 520 0
DWIDTH 13 0
BBX 13 22 0 0
BITMAP
0E00
0700
0380
0660
0EE0
0440
3C78
3C78
7878
7878
7878
7878
7878
F878
FC78
7EF8
7FF8
7FF0
7FF0
3FF0
3FE0
1FC0
ENDCHAR
STARTCHAR 01DE
ENCODING 478
SWIDTH 600 0
DWIDTH 15 0
BBX 15 24 0 -1
BITMAP
07F0
07F0
0000
0670
0770
0200
01C0
01C0
01C0
03E0
03E0
07E0
07E0
07F0
0FF0
0EF0
1CF8
19F8
3FF8
3FFC
7CFC
787E
787E
C000
ENDCHAR
STARTCHAR 01DF
ENCODING 479
SWIDTH 600 0
DWIDTH 15 0
BBX 15 24 0 -1
BITMAP
07F0
07F0
0000
0670
0770
0200
01C0
01C0
01C0
03E0
03E0
07E0
07E0
07F0
0FF0
0EF0
1CF8
19F8
3FF8
3FFC
7CFC
787E
787E
C000
ENDCHAR
STARTCHAR 01E0
ENCODING 480
SWIDTH 600 0
DWIDTH 15 0
BBX 15 24 0 -1
BITMAP
07F0
07F0
0000
00C0
01C0
0000
01C0
01C0
01C0
03E0
03E0
07E0
07E0
07F0
0FF0
0EF0
1CF8
19F8
3FF8
3FFC
7CFC
787E
787E
C000
ENDCHAR
STARTCHAR 01E1
ENCODING 481
SWIDTH 600 0
DWIDTH 15 0
BBX 15 24 0 -1
BITMAP
07F0
07F0
0000
00C0
01C0
0000
01C0
01C0
01C0
03E0
03E0
07E0
07E0
07F0
0FF0
0EF0
1CF8
19F8
3FF8
3FFC
7CFC
787E
787E
C000
ENDCHAR
STARTCHAR 01E2
ENCODING 482
SWIDTH 720 0
DWIDTH 18 0
BBX 17 20 1 0
BITMAP
01FC00
03FC00
000000
03FE00
03FC00
07FC00
07FC00
07FC00
0FE000
0FE000
0FFC00
1FFC00
19F000
39F100
3BFF00
7FFF80
7DFF80
F9FF80
F0FF00
F0F000
ENDCHAR
STARTCHAR 01E3
ENCODING 483
SWIDTH 720 0
DWIDTH 18 0
BBX 17 20 1 0
BITMAP
01FC00
03FC00
000000
03FE00
03FC00
07FC00
07FC00
07FC00
0FE000
0FE000
0FFC00
1FFC00
19F000
39F100
3BFF00
7FFF80
7DFF80
F9FF80
F0FF00
F0F000
ENDCHAR
STARTCHAR 01E4
ENCODING 484
SWIDTH 520 0
DWIDTH 13 0
BBX 13 17 0 0
BITMAP
03E0
07F0
0FF8
0FF0
1E00
1E00
FE00
FE78
FEF8
38F8
3CF8
3EF8
3FF8
3FF8
3FF0
1FC0
0E00
ENDCHAR
STARTCHAR 01E5
ENCODING 485
SWIDTH 520 0
DWIDTH 13 0
BBX 13 17 0 0
BITMAP
03E0
07F0
0FF8
0FF0
1E00
1E00
FE00
FE78
FEF8
38F8
3CF8
3EF8
3FF8
3FF8
3FF0
1FC0
0E00
ENDCHAR
STARTCHAR 01E6
ENCODING 486
SWIDTH 480 0
DWIDTH 12 0
BBX 12 22 0 0
BITMAP
0840
1DE0
0FC0
0780
0000
07C0
0FE0
1FF0
3FE0
3C00
3800
7800
70F0
71F0
71F0
71F0
F9F0
FFF0
7FF0
7FC0
3F80
1C00
ENDCHAR
STARTCHAR 01E7
ENCODING 487
SWIDTH 480 0
DWIDTH 12 0
BBX 12 22 0 0
BITMAP
0840
1DE0
0FC0
0780
0000
07C0
0FE0
1FF0
3FE0
3C00
3800
7800
70F0
71F0
71F0
71F0
F9F0
FFF0
7FF0
7FC0
3F80
1C00
ENDCHAR
STARTCHAR 01E8
ENCODING 488
SWIDTH 520 0
DWIDTH 13 0
BBX 13 22 0 0
BITMAP
0200
0770
03E0
01C0
0000
FE20
7E78
7EF8
7EF0
7FE0
7FE0
7FC0
7FC0
FF80
FF80
FFC0
FFE0
FFF0
FEF0
FE78
7E78
7E20
ENDCHAR
STARTCHAR 01E9
ENCODING 489
SWIDTH 520 0
DWIDTH 13 0
BBX 13 22 0 0
BITMAP
0200
0770
03E0
01C0
0000
FE20
7E78
7EF8
7EF0
7FE0
7FE0
7FC0
7FC0
FF80
FF80
FFC0
FFE0
FFF0
FEF0
FE78
7E78
7E20
ENDCHAR
STARTCHAR 01EA
ENCODING 490
SWIDTH 520 0
DWIDTH 13 0
BBX 13 21 0 -3
BITMAP
0E00
1F80
3FC0
3FE0
7FF0
7FF0
7CF8
F8F8
F8F8
F8F8
7FF8
7FF8
7FF8
7FF0
3FF0
1FE0
07C0
0300
0700
07F0
03F0
ENDCHAR
STARTCHAR 01EB
ENCODING 491
SWIDTH 520 0
DWIDTH 13 0
BBX 13 21 0 -3
BITMAP
0E00
1F80
3FC0
3FE0
7FF0
7FF0
7CF8
F8F8
F8F8
F8F8
7FF8
7FF8
7FF8
7FF0
3FF0
1FE0
07C0
0300
0700
07F0
03F0
ENDCHAR
STARTCHAR 01EC
ENCODING 492
SWIDTH 520 0
DWIDTH 13 0
BBX 13 24 0 -4
BITMAP
7F00
7F80
0000
0E00
1F80
3FC0
3FE0
7FF0
7FF0
7CF8
F8F8
F8F8
F8F8
7FF8
7FF8
7FF8
7FF0
3FF0
1FE0
07C0
0300
0700
07F0
03F0
ENDCHAR
STARTCHAR 01ED
ENCODING 493
SWIDTH 520 0
DWIDTH 13 0
BBX 13 24 0 -4
BITMAP
7F00
7F80
0000
0E00
1F80
3FC0
3FE0
7FF0
7FF0
7CF8
F8F8
F8F8
F8F8
7FF8
7FF8
7FF8
7FF0
3FF0
1FE0
07C0
0300
0700
07F0
03F0
ENDCHAR
STARTCHAR 01EE
ENCODING 494
SWIDTH 480 0
DWIDTH 12 0
BBX 12 21 0 0
BITMAP
3BC0
1F80
0F00
0000
7FC0
7FE0
3FC0
01C0
0780
0F00
1FC0
3FE0
3FE0
00F0
0070
0070
F0F0
FFF0
FFE0
7FE0
1F80
ENDCHAR
STARTCHAR 01EF
ENCODING 495
SWIDTH 480 0
DWIDTH 12 0
BBX 12 21 0 0
BITMAP
3BC0
1F80
0F00
0000
7FC0
7FE0
3FC0
01C0
0780
0F00
1FC0
3FE0
3FE0
00F0
0070
0070
F0F0
FFF0
FFE0
7FE0
1F80
ENDCHAR
STARTCHAR 01F0
ENCODING 496
SWIDTH 440 0
DWIDTH 11 0
BBX 12 22 0 0
BITMAP
0400
0EF0
07E0
03C0
0000
07C0
07E0
07E0
07E0
07E0
07E0
07E0
07E0
07E0
07E0
07E0
33E0
FBE0
FBC0
7FC0
3F80
1F00
ENDCHAR
STARTCHAR 01F4
ENCODING 500
SWIDTH 480 0
DWIDTH 12 0
BBX 12 22 0 0
BITMAP
01C0
01C0
0380
0300
0000
07C0
0FE0
1FF0
3FE0
3C00
3800
7800
70F0
71F0
71F0
71F0
F9F0
FFF0
7FF0
7FC0
3F80
1C00
ENDCHAR
STARTCHAR 01F5
ENCODING 501
SWIDTH 480 0
DWIDTH 12 0
BBX 12 22 0 0
BITMAP
01C0
01C0
0380
0300
0000
07C0
0FE0
1FF0
3FE0
3C00
3800
7800
70F0
71F0
71F0
71F0
F9F0
FFF0
7FF0
7FC0
3F80
1C00
ENDCHAR
STARTCHAR 01F8
ENCODING 504
SWIDTH 560 0
DWIDTH 14 0
BBX 14 22 0 0
BITMAP
0E00
0F00
0780
0380
0000
1818
3E7C
3E7C
3E7C
7E78
7F78
7F78
7F78
7F78
7FF8
7FF8
7DF8
7DF8
7DF8
7CF8
7CF8
F060
ENDCHAR
STARTCHAR 01F9
ENCODING 505
SWIDTH 560 0
DWIDTH 14 0
BBX 14 22 0 0
BITMAP
0E00
0F00
0780
0380
0000
1818
3E7C
3E7C
3E7C
7E78
7F78
7F78
7F78
7F78
7FF8
7FF8
7DF8
7DF8
7DF8
7CF8
7CF8
F060
ENDCHAR
STARTCHAR 01FE
ENCODING 510
SWIDTH 520 0
DWIDTH 13 0
BBX 13 22 0 0
BITMAP
0380
0780
0700
0E00
0038
0E78
1FF8
3FF0
3FE0
7FF0
7FF0
7BF8
F7F8
F778
FE78
7EF8
7FF8
7FF8
7FF0
7FF0
7FE0
E7C0
ENDCHAR
STARTCHAR 01FF
ENCODING 511
SWIDTH 520 0
DWIDTH 13 0
BBX 13 22 0 0
BITMAP
0380
0780
0700
0E00
0038
0E78
1FF8
3FF0
3FE0
7FF0
7FF0
7BF8
F7F8
F778
FE78
7EF8
7FF8
7FF8
7FF0
7FF0
7FE0
E7C0
ENDCHAR
STARTCHAR 0218
ENCODING 536
SWIDTH 480 0
DWIDTH 12 0
BBX 12 21 0 -4
BITMAP
0FF0
1FF0
3FE0
3FE0
7FC0
7FC0
7C40
3E00
3F80
1FE0
03E0
01F0
6BF0
FFF0
FFE0
7FC0
1F80
0E00
0E00
0E00
0C00
ENDCHAR
STARTCHAR 0219
ENCODING 537
SWIDTH 480 0
DWIDTH 12 0
BBX 12 21 0 -4
BITMAP
0FF0
1FF0
3FE0
3FE0
7FC0
7FC0
7C40
3E00
3F80
1FE0
03E0
01F0
6BF0
FFF0
FFE0
7FC0
1F80
0E00
0E00
0E00
0C00
ENDCHAR
STARTCHAR 021A
ENCODING 538
SWIDTH 560 0
DWIDTH 14 0
BBX 14 21 0 -4
BITMAP
7FF8
7FF8
7FFC
7FFC
FFFC
73C0
0380
0380
0780
0780
0780
0780
0780
0780
0780
0780
0380
0300
0780
0700
0700
ENDCHAR
STARTCHAR 021B
ENCODING 539
SWIDTH 560 0
DWIDTH 14 0
BBX 14 21 0 -4
BITMAP
7FF8
7FF8
7FFC
7FFC
FFFC
73C0
0380
0380
0780
0780
0780
0780
0780
0780
0780
0780
0380
0300
0780
0700
0700
ENDCHAR
STARTCHAR 021E
ENCODING 542
SWIDTH 560 0
DWIDTH 14 0
BBX 13 22 1 0
BITMAP
0420
0EF0
07E0
03C0
0000
3C00
7CF8
7CF8
7CF8
7CF0
7CF0
7FF0
7FF0
FFF0
FFF0
FFF0
FDF0
FDF0
F9F0
F9F0
F9F0
3900
ENDCHAR
STARTCHAR 021F
ENCODING 543
SWIDTH 560 0
DWIDTH 14 0
BBX 13 22 1 0
BITMAP
0420
0EF0
07E0
03C0
0000
3C00
7CF8
7CF8
7CF8
7CF0
7CF0
7FF0
7FF0
FFF0
FFF0
FFF0
FDF0
FDF0
F9F0
F9F0
F9F0
3900
ENDCHAR
STARTCHAR 0224
ENCODING 548
SWIDTH 600 0
DWIDTH 15 0
BBX 15 20 0 -3
BITMAP
0FF8
7FF0
7FE0
FFE0
E3C0
03C0
0380
0780
0780
0F00
0F00
0F00
1E3C
1FFE
1FFE
1FFE
003C
00FC
00FC
00F8
ENDCHAR
STARTCHAR 0225
ENCODING 549
SWIDTH 600 0
DWIDTH 15 0
BBX 15 20 0 -3
BITMAP
0FF8
7FF0
7FE0
FFE0
E3C0
03C0
0380
0780
0780
0F00
0F00
0F00
1E3C
1FFE
1FFE
1FFE
003C
00FC
00FC
00F8
ENDCHAR
STARTCHAR 0226
ENCODING 550
SWIDTH 600 0
DWIDTH 15 0
BBX 15 21 0 -1
BITMAP
01C0
01C0
0080
01C0
01C0
01C0
03E0
03E0
07E0
07E0
07F0
0FF0
0EF0
1CF8
19F8
3FF8
3FFC
7CFC
787E
787E
C000
ENDCHAR
STARTCHAR 0227
ENCODING 551
SWIDTH 600 0
DWIDTH 15 0
BBX 15 21 0 -1
BITMAP
01C0
01C0
0080
01C0
01C0
01C0
03E0
03E0
07E0
07E0
07F0
0FF0
0EF0
1CF8
19F8
3FF8
3FFC
7CFC
787E
787E
C000
ENDCHAR
STARTCHAR 0228
ENCODING 552
SWIDTH 480 0
DWIDTH 12 0
BBX 12 21 0 -4
BITMAP
7FC0
FF80
7F80
7F80
7F80
7C00
3C00
3F80
3F80
3E00
3E20
3FE0
1FE0
1FF0
1FF0
1FE0
1F80
0380
01E0
0FE0
07E0
ENDCHAR
STARTCHAR 0229
ENCODING 553
SWIDTH 480 0
DWIDTH 12 0
BBX 12 21 0 -4
BITMAP
7FC0
FF80
7F80
7F80
7F80
7C00
3C00
3F80
3F80
3E00
3E20
3FE0
1FE0
1FF0
1FF0
1FE0
1F80
0380
01E0
0FE0
07E0
ENDCHAR
STARTCHAR 022A
ENCODING 554
SWIDTH 520 0
DWIDTH 13 0
BBX 13 23 0 0
BITMAP
7C00
7F80
0000
3300
7300
0300
0E00
1F80
3FC0
3FE0
7FF0
7FF0
7CF8
F8F8
F8F8
F8F8
7FF8
7FF8
7FF8
7FF0
3FF0
1FE0
07C0
ENDCHAR
STARTCHAR 022B
ENCODING 555
SWIDTH 520 0
DWIDTH 13 0
BBX 13 23 0 0
BITMAP
7C00
7F80
0000
3300
7300
0300
0E00
1F80
3FC0
3FE0
7FF0
7FF0
7CF8
F8F8
F8F8
F8F8
7FF8
7FF8
7FF8
7FF0
3FF0
1FE0
07C0
ENDCHAR
STARTCHAR 022C
ENCODING 556
SWIDTH 520 0
DWIDTH 13 0
BBX 13 23 0 0
BITMAP
7F00
7F80
0000
3B80
7F00
0000
0E00
1F80
3FC0
3FE0
7FF0
7FF0
7CF8
F8F8
F8F8
F8F8
7FF8
7FF8
7FF8
7FF0
3FF0
1FE0
07C0
ENDCHAR
STARTCHAR 022D
ENCODING 557
SWIDTH 520 0
DWIDTH 13 0
BBX 13 23 0 0
BITMAP
7F00
7F80
0000
3B80
7F00
0000
0E00
1F80
3FC0
3FE0
7FF0
7FF0
7CF8
F8F8
F8F8
F8F8
7FF8
7FF8
7FF8
7FF0
3FF0
1FE0
07C0
ENDCHAR
STARTCHAR 022E
ENCODING 558
SWIDTH 520 0
DWIDTH 13 0
BBX 13 21 0 0
BITMAP
0800
1C00
1C00
0000
0E00
1F80
3FC0
3FE0
7FF0
7FF0
7CF8
F8F8
F8F8
F8F8
7FF8
7FF8
7FF8
7FF0
3FF0
1FE0
07C0
ENDCHAR
STARTCHAR 022F
ENCODING 559
SWIDTH 520 0
DWIDTH 13 0
BBX 13 21 0 0
BITMAP
0800
1C00
1C00
0000
0E00
1F80
3FC0
3FE0
7FF0
7FF0
7CF8
F8F8
F8F8
F8F8
7FF8
7FF8
7FF8
7FF0
3FF0
1FE0
07C0
ENDCHAR
STARTCHAR 0230
ENCODING 560
SWIDTH 520 0
DWIDTH 13 0
BBX 13 23 0 0
BITMAP
7F00
7F80
0000
0C00
0C00
0000
0E00
1F80
3FC0
3FE0
7FF0
7FF0
7CF8
F8F8
F8F8
F8F8
7FF8
7FF8
7FF8
7FF0
3FF0
1FE0
07C0
ENDCHAR
STARTCHAR 0231
ENCODING 561
SWIDTH 520 0
DWIDTH 13 0
BBX 13 23 0 0
BITMAP
7F00
7F80
0000
0C00
0C00
0000
0E00
1F80
3FC0
3FE0
7FF0
7FF0
7CF8
F8F8
F8F8
F8F8
7FF8
7FF8
7FF8
7FF0
3FF0
1FE0
07C0
ENDCHAR
STARTCHAR 0232
ENCODING 562
SWIDTH 600 0
DWIDTH 15 0
BBX 14 20 1 0
BITMAP
1FC0
1FC0
0000
003C
F078
F078
F8F0
78F0
7DE0
3DE0
3FE0
1FC0
1FC0
0F80
0F80
0780
0780
0780
0780
0780
ENDCHAR
STARTCHAR 0233
ENCODING 563
SWIDTH 600 0
DWIDTH 15 0
BBX 14 20 1 0
BITMAP
1FC0
1FC0
0000
003C
F078
F078
F8F0
78F0
7DE0
3DE0
3FE0
1FC0
1FC0
0F80
0F80
0780
0780
0780
0780
0780
ENDCHAR
STARTCHAR 0241
ENCODING 577
SWIDTH 440 0
DWIDTH 11 0
BBX 11 18 0 0
BITMAP
0800
3FC0
7FE0
7FE0
F1E0
21E0
01E0
01E0
03E0
07C0
1F80
1F00
1E00
1E00
1E00
1E00
1E00
1E00
ENDCHAR
STARTCHAR 0242
ENCODING 578
SWIDTH 440 0
DWIDTH 11 0
BBX 11 18 0 0
BITMAP
0800
3FC0
7FE0
7FE0
F1E0
21E0
01E0
01E0
03E0
07C0
1F80
1F00
1E00
1E00
1E00
1E00
1E00
1E00
ENDCHAR
STARTCHAR 0243
ENCODING 579
SWIDTH 520 0
DWIDTH 13 0
BBX 13 17 0 0
BITMAP
7F00
7F80
FFC0
7FC0
79E0
79C0
79C0
7F80
7FE0
3FF0
3CF0
FF78
FFF8
7FF0
3FF0
3FE0
1E00
ENDCHAR
STARTCHAR 0244
ENCODING 580
SWIDTH 560 0
DWIDTH 14 0
BBX 14 17 0 0
BITMAP
3C38
3C3C
3C3C
3C3C
7FFC
7FFC
FFFC
7C7C
7C7C
7E78
7FF8
7FF8
7FF0
3FF0
3FE0
1FC0
0200
ENDCHAR
STARTCHAR 0253
ENCODING 595
SWIDTH 640 0
DWIDTH 16 0
BBX 17 17 0 0
BITMAP
1FF000
3FF800
7FFC00
7FFC00
F79C00
E79C00
679C00
77F800
7FFE00
3FFE00
3BCF00
03CF80
03CF00
03FF00
03FF00
03FE00
01E000
ENDCHAR
STARTCHAR 0254
ENCODING 596
SWIDTH 480 0
DWIDTH 12 0
BBX 12 17 0 0
BITMAP
1E00
7F80
FFC0
7FE0
7FE0
03F0
01F0
01F0
01F0
63F0
7FF0
7FF0
7FE0
7FE0
7FC0
3FC0
0C00
ENDCHAR
STARTCHAR 0256
ENCODING 598
SWIDTH 480 0
DWIDTH 12 0
BBX 12 17 0 0
BITMAP
3E00
7F80
7FC0
7FE0
7FE0
7CF0
FE70
FF70
FFF0
FDE0
3FE0
3FC0
3FC0
1F80
1F00
1E00
1800
ENDCHAR
STARTCHAR 0257
ENCODING 599
SWIDTH 600 0
DWIDTH 15 0
BBX 16 17 0 0
BITMAP
1FC0
3FF8
7FF8
7FFC
F7FE
E78E
678E
77CF
7FCE
3FDE
3BFC
03FC
03F8
03F8
03F0
01C0
0100
ENDCHAR
STARTCHAR 0259
ENCODING 601
SWIDTH 480 0
DWIDTH 12 0
BBX 11 17 1 0
BITMAP
7E00
FF00
FF80
FF80
03C0
01C0
0FC0
FFC0
FFE0
FFE0
F1E0
F3E0
FFE0
FFE0
7FC0
3F80
0F00
ENDCHAR
STARTCHAR 025B
ENCODING 603
SWIDTH 480 0
DWIDTH 12 0
BBX 12 17 0 0
BITMAP
1F80
3FC0
7FE0
7C00
F800
7800
7C00
7F80
3F80
3F00
3C00
7C00
7C10
7FF0
3FF0
1FE0
0FC0
ENDCHAR
STARTCHAR 0260
ENCODING 608
SWIDTH 480 0
DWIDTH 12 0
BBX 12 21 0 0
BITMAP
00F0
01F0
03F0
03C0
07C0
0FE0
1FF0
3FE0
3C00
3800
7800
70F0
71F0
71F0
71F0
F9F0
FFF0
7FF0
7FC0
3F80
1C00
ENDCHAR
STARTCHAR 0263
ENCODING 611
SWIDTH 600 0
DWIDTH 15 0
BBX 15 20 0 -3
BITMAP
F010
783E
783E
783C
387C
3C78
3CF8
1EF0
1EF0
0FF0
07E0
07C0
07C0
0FE0
0EE0
0CE0
0CE0
0FE0
0FC0
0780
ENDCHAR
STARTCHAR 0268
ENCODING 616
SWIDTH 360 0
DWIDTH 9 0
BBX 9 17 0 0
BITMAP
1F00
1F00
1F00
1F00
3F00
3F00
3F00
FF80
FF80
FF80
3E00
3E00
3E00
3E00
3E00
7E00
7800
ENDCHAR
STARTCHAR 0272
ENCODING 626
SWIDTH 560 0
DWIDTH 14 0
BBX 16 20 -2 -3
BITMAP
0606
0F9F
0F9F
0F9F
1F9E
1FDE
1FDE
1FDE
1FDE
1FFE
1FFE
1F7E
1F7E
1F7E
1E3E
3E3E
3E18
FE00
FC00
F800
ENDCHAR
STARTCHAR 0278
ENCODING 632
SWIDTH 640 0
DWIDTH 16 0
BBX 16 20 0 -1
BITMAP
0100
03E0
03E0
3FFE
7FFE
7FFF
7FFF
7FFF
FBFF
FBCF
FBCF
FBDF
7BDF
7FFE
7FFE
7FFC
7FFC
17F8
0780
0780
ENDCHAR
STARTCHAR 0289
ENCODING 649
SWIDTH 560 0
DWIDTH 14 0
BBX 14 17 0 0
BITMAP
3C38
3C3C
3C3C
3C3C
7FFC
7FFC
FFFC
7C7C
7C7C
7E78
7FF8
7FF8
7FF0
3FF0
3FE0
1FC0
0200
ENDCHAR
STARTCHAR 028B
ENCODING 651
SWIDTH 560 0
DWIDTH 14 0
BBX 14 17 0 0
BITMAP
73C0
F3E0
F1F0
F0F8
F878
F878
787C
787C
7C7C
7CFC
7FFC
3FF8
3FF8
1FF8
1FF0
0FE0
0080
ENDCHAR
STARTCHAR 0292
ENCODING 658
SWIDTH 480 0
DWIDTH 12 0
BBX 12 17 0 0
BITMAP
7FC0
7FE0
3FC0
01C0
0780
0F00
1FC0
3FE0
3FE0
00F0
0070
0070
F0F0
FFF0
FFE0
7FE0
1F80
ENDCHAR
STARTCHAR 0294
ENCODING 660
SWIDTH 440 0
DWIDTH 11 0
BBX 11 18 0 0
BITMAP
0800
3FC0
7FE0
7FE0
F1E0
21E0
01E0
01E0
03E0
07C0
1F80
1F00
1E00
1E00
1E00
1E00
1E00
1E00
ENDCHAR
STARTCHAR 0295
ENCODING 661
SWIDTH 440 0
DWIDTH 11 0
BBX 11 18 0 0
BITMAP
0100
7FC0
7FE0
FFE0
F9E0
F840
F800
7800
7800
7E00
3F00
0F80
0F80
0780
0780
0780
0780
0700
ENDCHAR
STARTCHAR 0296
ENCODING 662
SWIDTH 440 0
DWIDTH 11 0
BBX 10 18 1 0
BITMAP
3000
3C00
3C00
3C00
3C00
3C00
3E00
3F00
1F80
07C0
03C0
03C0
03C0
C3C0
FFC0
FFC0
FFC0
7F00
ENDCHAR
STARTCHAR 02B9
ENCODING 697
SWIDTH 200 0
DWIDTH 5 0
BBX 4 9 1 9
BITMAP
70
70
F0
E0
E0
C0
C0
C0
C0
ENDCHAR
STARTCHAR 02BA
ENCODING 698
SWIDTH 360 0
DWIDTH 9 0
BBX 9 9 1 9
BITMAP
7300
7780
F700
E700
E600
CE00
CE00
CC00
C400
ENDCHAR
STARTCHAR 02BB
ENCODING 699
SWIDTH 200 0
DWIDTH 5 0
BBX 5 9 0 9
BITMAP
30
38
78
78
78
F0
F0
F0
70
ENDCHAR
STARTCHAR 02BC
ENCODING 700
SWIDTH 200 0
DWIDTH 5 0
BBX 5 9 0 9
BITMAP
78
78
78
78
78
70
F0
60
20
ENDCHAR
STARTCHAR 02BD
ENCODING 701
SWIDTH 200 0
DWIDTH 5 0
BBX 5 9 0 9
BITMAP
70
F0
F0
78
78
78
78
38
30
ENDCHAR
STARTCHAR 02C6
ENCODING 710
SWIDTH 320 0
DWIDTH 8 0
BBX 8 4 0 18
BITMAP
08
3C
7E
F7
ENDCHAR
STARTCHAR 02C7
ENCODING 711
SWIDTH 320 0
DWIDTH 8 0
BBX 8 4 0 18
BITMAP
40
FF
7E
3C
ENDCHAR
STARTCHAR 02C8
ENCODING 712
SWIDTH 120 0
DWIDTH 3 0
BBX 3 4 0 18
BITMAP
E0
E0
E0
C0
ENDCHAR
STARTCHAR 02C9
ENCODING 713
SWIDTH 320 0
DWIDTH 8 0
BBX 8 2 0 18
BITMAP
FF
FF
ENDCHAR
STARTCHAR 02CA
ENCODING 714
SWIDTH 200 0
DWIDTH 5 0
BBX 4 4 1 18
BITMAP
70
70
E0
C0
ENDCHAR
STARTCHAR 02CB
ENCODING 715
SWIDTH 200 0
DWIDTH 5 0
BBX 4 4 1 18
BITMAP
E0
E0
70
30
ENDCHAR
STARTCHAR 02CC
ENCODING 716
SWIDTH 120 0
DWIDTH 3 0
BBX 3 4 0 -4
BITMAP
C0
E0
E0
E0
ENDCHAR
STARTCHAR 02CD
ENCODING 717
SWIDTH 320 0
DWIDTH 8 0
BBX 8 2 0 -3
BITMAP
FF
FF
ENDCHAR
STARTCHAR 02D0
ENCODING 720
SWIDTH 200 0
DWIDTH 5 0
BBX 5 12 0 0
BITMAP
F8
78
70
30
20
00
00
20
70
70
78
F8
ENDCHAR
STARTCHAR 02D1
ENCODING 721
SWIDTH 200 0
DWIDTH 5 0
BBX 5 5 0 7
BITMAP
F8
78
70
30
20
ENDCHAR
STARTCHAR 02D8
ENCODING 728
SWIDTH 320 0
DWIDTH 8 0
BBX 7 3 1 18
BITMAP
CE
FC
78
ENDCHAR
STARTCHAR 02D9
ENCODING 729
SWIDTH 120 0
DWIDTH 3 0
BBX 3 2 0 17
BITMAP
60
E0
ENDCHAR
STARTCHAR 02DA
ENCODING 730
SWIDTH 320 0
DWIDTH 8 0
BBX 8 7 0 15
BITMAP
08
7E
67
E7
67
7E
3C
ENDCHAR
STARTCHAR 02DB
ENCODING 731
SWIDTH 280 0
DWIDTH 7 0
BBX 7 5 0 -3
BITMAP
30
60
60
FE
7E
ENDCHAR
STARTCHAR 02DC
ENCODING 732
SWIDTH 320 0
DWIDTH 8 0
BBX 8 3 0 18
BITMAP
77
FF
FE
ENDCHAR
STARTCHAR 02DD
ENCODING 733
SWIDTH 400 0
DWIDTH 10 0
BBX 9 4 1 18
BITMAP
7380
7700
EF00
CE00
ENDCHAR
STARTCHAR 0300
ENCODING 768
SWIDTH 0 0
DWIDTH 0 0
BBX 5 4 -10 18
BITMAP
E0
F0
70
38
ENDCHAR
STARTCHAR 0301
ENCODING 769
SWIDTH 0 0
DWIDTH 0 0
BBX 5 4 -7 18
BITMAP
38
70
F0
E0
ENDCHAR
STARTCHAR 0302
ENCODING 770
SWIDTH 0 0
DWIDTH 0 0
BBX 8 4 -11 18
BITMAP
08
3C
7E
E7
ENDCHAR
STARTCHAR 0303
ENCODING 771
SWIDTH 0 0
DWIDTH 0 0
BBX 8 3 -11 18
BITMAP
77
FF
FE
ENDCHAR
STARTCHAR 0304
ENCODING 772
SWIDTH 0 0
DWIDTH 0 0
BBX 8 2 -11 18
BITMAP
FF
FF
ENDCHAR
STARTCHAR 0305
ENCODING 773
SWIDTH 0 0
DWIDTH 0 0
BBX 9 3 -11 17
BITMAP
FF00
FF80
FF80
ENDCHAR
STARTCHAR 0306
ENCODING 774
SWIDTH 0 0
DWIDTH 0 0
BBX 8 3 -11 18
BITMAP
E7
7E
3E
ENDCHAR
STARTCHAR 0307
ENCODING 775
SWIDTH 0 0
DWIDTH 0 0
BBX 2 3 -8 17
BITMAP
C0
C0
40
ENDCHAR
STARTCHAR 0308
ENCODING 776
SWIDTH 0 0
DWIDTH 0 0
BBX 7 2 -10 17
BITMAP
CC
CE
ENDCHAR
STARTCHAR 030A
ENCODING 778
SWIDTH 0 0
DWIDTH 0 0
BBX 8 6 -11 17
BITMAP
1C
7E
67
E7
7E
3E
ENDCHAR
STARTCHAR 030B
ENCODING 779
SWIDTH 0 0
DWIDTH 0 0
BBX 9 4 -10 18
BITMAP
3B80
7B80
7700
E600
ENDCHAR
STARTCHAR 030C
ENCODING 780
SWIDTH 0 0
DWIDTH 0 0
BBX 8 4 -11 18
BITMAP
40
FF
7E
3C
ENDCHAR
STARTCHAR 030D
ENCODING 781
SWIDTH 0 0
DWIDTH 0 0
BBX 2 4 -8 18
BITMAP
C0
C0
C0
C0
ENDCHAR
STARTCHAR 0311
ENCODING 785
SWIDTH 0 0
DWIDTH 0 0
BBX 8 3 -11 18
BITMAP
3C
7E
E7
ENDCHAR
STARTCHAR 0323
ENCODING 803
SWIDTH 0 0
DWIDTH 0 0
BBX 2 3 -8 -4
BITMAP
C0
C0
C0
ENDCHAR
STARTCHAR 0326
ENCODING 806
SWIDTH 0 0
DWIDTH 0 0
BBX 3 4 -9 -4
BITMAP
E0
E0
E0
C0
ENDCHAR
STARTCHAR 0327
ENCODING 807
SWIDTH 0 0
DWIDTH 0 0
BBX 7 6 -11 -4
BITMAP
38
38
38
0E
FE
7E
ENDCHAR
STARTCHAR 0328
ENCODING 808
SWIDTH 0 0
DWIDTH 0 0
BBX 7 6 -10 -4
BITMAP
20
60
60
E0
FE
7E
ENDCHAR
STARTCHAR 0329
ENCODING 809
SWIDTH 0 0
DWIDTH 0 0
BBX 2 4 -8 -4
BITMAP
C0
C0
C0
C0
ENDCHAR
STARTCHAR 0331
ENCODING 817
SWIDTH 0 0
DWIDTH 0 0
BBX 8 2 -11 -3
BITMAP
FF
FF
ENDCHAR
STARTCHAR 0342
ENCODING 834
SWIDTH 0 0
DWIDTH 0 0
BBX 8 3 -11 18
BITMAP
77
FF
FE
ENDCHAR
STARTCHAR 0344
ENCODING 836
SWIDTH 0 0
DWIDTH 0 0
BBX 6 4 -10 17
BITMAP
18
30
CC
CC
ENDCHAR
STARTCHAR 0345
ENCODING 837
SWIDTH 0 0
DWIDTH 0 0
BBX 4 4 -8 -4
BITMAP
C0
C0
F0
70
ENDCHAR
STARTCHAR 0374
ENCODING 884
SWIDTH 200 0
DWIDTH 5 0
BBX 5 4 0 14
BITMAP
38
70
60
E0
ENDCHAR
STARTCHAR 0375
ENCODING 885
SWIDTH 200 0
DWIDTH 5 0
BBX 5 4 0 -4
BITMAP
18
38
70
F0
ENDCHAR
STARTCHAR 037A
ENCODING 890
SWIDTH 200 0
DWIDTH 5 0
BBX 5 4 0 -4
BITMAP
C0
C0
78
78
ENDCHAR
STARTCHAR 037B
ENCODING 891
SWIDTH 480 0
DWIDTH 12 0
BBX 12 17 0 0
BITMAP
1E00
7F80
FFC0
7FE0
7FE0
03F0
01F0
01F0
01F0
63F0
7FF0
7FF0
7FE0
7FE0
7FC0
3FC0
0C00
ENDCHAR
STARTCHAR 037E
ENCODING 894
SWIDTH 200 0
DWIDTH 5 0
BBX 5 16 0 -4
BITMAP
78
78
F8
70
00
00
00
00
78
78
78
78
70
F0
70
60
ENDCHAR
STARTCHAR 037F
ENCODING 895
SWIDTH 440 0
DWIDTH 11 0
BBX 11 17 0 0
BITMAP
07C0
07E0
07E0
07E0
07E0
07E0
07E0
07E0
07E0
07E0
07E0
33E0
FBE0
FBC0
7FC0
3F80
1F00
ENDCHAR
STARTCHAR 0384
ENCODING 900
SWIDTH 160 0
DWIDTH 4 0
BBX 4 4 0 14
BITMAP
30
60
60
C0
ENDCHAR
STARTCHAR 0385
ENCODING 901
SWIDTH 280 0
DWIDTH 7 0
BBX 7 4 0 17
BITMAP
0C
18
66
E6
ENDCHAR
STARTCHAR 0386
ENCODING 902
SWIDTH 600 0
DWIDTH 15 0
BBX 15 19 0 -1
BITMAP
0C00
1DC0
19C0
19C0
03E0
03E0
07E0
07E0
07F0
0FF0
0EF0
1CF8
19F8
3FF8
3FFC
7CFC
787E
787E
C000
ENDCHAR
STARTCHAR 0387
ENCODING 903
SWIDTH 200 0
DWIDTH 5 0
BBX 5 4 0 8
BITMAP
78
78
F8
70
ENDCHAR
STARTCHAR 0388
ENCODING 904
SWIDTH 560 0
DWIDTH 14 0
BBX 14 18 0 0
BITMAP
7000
7FF0
DFF0
DFE0
1FE0
0FE0
0F00
0F00
0FE0
0FE0
0780
0788
07FC
07FC
07FC
07FC
07F8
0380
ENDCHAR
STARTCHAR 0389
ENCODING 905
SWIDTH 600 0
DWIDTH 15 0
BBX 15 18 0 0
BITMAP
7000
6F80
DF1E
DF3E
1F3E
1F3E
1F3E
1FFC
1FFC
1FFC
1FFE
3FFE
3F3E
3F7C
3F7C
3F7C
3F3C
1E60
ENDCHAR
STARTCHAR 038A
ENCODING 906
SWIDTH 360 0
DWIDTH 9 0
BBX 9 18 0 0
BITMAP
7000
6F00
CF80
DF80
1F80
1F00
1F00
1F00
1F00
1F00
1F00
1F00
1F00
1F00
1F00
3F00
3F00
3800
ENDCHAR
STARTCHAR 038C
ENCODING 908
SWIDTH 520 0
DWIDTH 13 0
BBX 13 18 0 0
BITMAP
7400
6F00
DF80
DFE0
3FE0
3FF0
7FF8
7CF8
7C78
7878
7CF8
7EF8
7FF8
3FF8
3FF8
3FF0
1FF0
07C0
ENDCHAR
STARTCHAR 038E
ENCODING 910
SWIDTH 680 0
DWIDTH 17 0
BBX 17 18 0 0
BITMAP
700000
600780
DE0F00
DE0F00
1F1E00
0F1E00
0FBC00
07BC00
07F800
03F800
03F800
01F000
01F000
00F000
00F000
00F000
00F000
00F000
ENDCHAR
STARTCHAR 038F
ENCODING 911
SWIDTH 640 0
DWIDTH 16 0
BBX 16 18 0 0
BITMAP
7000
6FF0
DFF8
FFFC
3FFE
3FFE
7C1E
7C1E
780F
380F
380E
3C0E
1C1E
1E3C
7E3F
7E3F
7F3F
7F3F
ENDCHAR
STARTCHAR 0390
ENCODING 912
SWIDTH 320 0
DWIDTH 8 0
BBX 9 22 0 0
BITMAP
0600
0600
3380
3B80
1000
1F00
3F00
3E00
3E00
3E00
3E00
3E00
3E00
3E00
3E00
7E00
7E00
7E00
7E00
7E00
7E00
F000
ENDCHAR
STARTCHAR 0391
ENCODING 913
SWIDTH 600 0
DWIDTH 15 0
BBX 15 18 0 -1
BITMAP
01C0
01C0
01C0
03E0
03E0
07E0
07E0
07F0
0FF0
0EF0
1CF8
19F8
3FF8
3FFC
7CFC
787E
787E
C000
ENDCHAR
STARTCHAR 0392
ENCODING 914
SWIDTH 520 0
DWIDTH 13 0
BBX 13 17 0 0
BITMAP
7F00
7F80
FFC0
7FC0
79E0
79C0
79C0
7F80
7FE0
3FF0
3CF0
3CF8
3CF8
3FF0
3FF0
3FE0
1E00
ENDCHAR
STARTCHAR 0393
ENCODING 915
SWIDTH 480 0
DWIDTH 12 0
BBX 12 18 0 0
BITMAP
0080
7FF0
FFF0
FFF0
FE00
F800
F800
F800
7800
F800
F800
F800
F800
F800
7800
7800
7800
7000
ENDCHAR
STARTCHAR 0394
ENCODING 916
SWIDTH 560 0
DWIDTH 14 0
BBX 14 17 0 0
BITMAP
0180
03E0
07E0
07E0
0FE0
0FF0
1FF0
1FF0
3EF0
3EF8
3E78
7C78
7C7C
7C7C
FFFC
FFFC
FFFC
ENDCHAR
STARTCHAR 0395
ENCODING 917
SWIDTH 480 0
DWIDTH 12 0
BBX 12 17 0 0
BITMAP
7FC0
FF80
7F80
7F80
7F80
7C00
3C00
3F80
3F80
3E00
3E20
3FE0
1FE0
1FF0
1FF0
1FE0
1E00
ENDCHAR
STARTCHAR 0396
ENCODING 918
SWIDTH 600 0
DWIDTH 15 0
BBX 15 17 0 0
BITMAP
0FF8
7FF0
7FE0
FFE0
E3C0
03C0
0380
0780
0780
0F00
0F00
0F00
1EFC
1FFE
1FFC
1FF8
01E0
ENDCHAR
STARTCHAR 0397
ENCODING 919
SWIDTH 560 0
DWIDTH 14 0
BBX 13 17 1 0
BITMAP
3C00
7CF8
7CF8
7CF8
7CF0
7CF0
7FF0
7FF0
FFF0
FFF0
FFF0
FDF0
FDF0
F9F0
F9F0
F9F0
3900
ENDCHAR
STARTCHAR 0398
ENCODING 920
SWIDTH 520 0
DWIDTH 13 0
BBX 13 17 0 0
BITMAP
1F80
3FE0
7FF0
7FF0
7FF0
7FF8
F8F8
FFF8
FFF8
7FF8
78F8
7FF8
3FF0
3FF0
1FF0
0FE0
07C0
ENDCHAR
STARTCHAR 0399
ENCODING 921
SWIDTH 320 0
DWIDTH 8 0
BBX 8 17 0 0
BITMAP
1F
3F
3E
3E
3E
3E
3E
3E
3E
3E
7E
7E
7E
7E
7E
7E
F0
ENDCHAR
STARTCHAR 039A
ENCODING 922
SWIDTH 520 0
DWIDTH 13 0
BBX 13 17 0 0
BITMAP
FE20
7E78
7EF8
7EF0
7FE0
7FE0
7FC0
7FC0
FF80
FF80
FFC0
FFE0
FFF0
FEF0
FE78
7E78
7E20
ENDCHAR
STARTCHAR 039B
ENCODING 923
SWIDTH 560 0
DWIDTH 14 0
BBX 14 17 0 0
BITMAP
0C00
1E00
1F00
1F00
1F80
1FC0
3FC0
3FE0
3DE0
3DF0
7DF0
7DF8
7CF8
7CFC
7CFC
FC3C
7000
ENDCHAR
STARTCHAR 039C
ENCODING 924
SWIDTH 640 0
DWIDTH 16 0
BBX 16 17 0 0
BITMAP
100C
181C
181C
3C3C
3E3C
3E7E
3F7E
3FFE
3FFE
7FFE
7EBE
7C3E
7C3E
783F
783F
F83F
F818
ENDCHAR
STARTCHAR 039D
ENCODING 925
SWIDTH 560 0
DWIDTH 14 0
BBX 14 17 0 0
BITMAP
1818
3E7C
3E7C
3E7C
7E78
7F78
7F78
7F78
7F78
7FF8
7FF8
7DF8
7DF8
7DF8
7CF8
7CF8
F060
ENDCHAR
STARTCHAR 039E
ENCODING 926
SWIDTH 480 0
DWIDTH 12 0
BBX 12 17 0 0
BITMAP
7FE0
7FF0
FFF0
FFF0
0000
0000
3FC0
3FC0
3FC0
3FC0
0000
0000
2000
FFF0
FFF0
FFF0
17E0
ENDCHAR
STARTCHAR 039F
ENCODING 927
SWIDTH 520 0
DWIDTH 13 0
BBX 13 17 0 1
BITMAP
0E00
1F80
3FC0
3FE0
7FF0
7FF0
7CF8
F8F8
F8F8
F8F8
7FF8
7FF8
7FF8
7FF0
3FF0
1FE0
07C0
ENDCHAR
STARTCHAR 03A0
ENCODING 928
SWIDTH 520 0
DWIDTH 13 0
BBX 13 17 0 0
BITMAP
7FF8
FFF8
FFF8
FFF8
7878
7878
7878
7878
7878
7878
7878
7878
7878
7878
7878
7878
7838
ENDCHAR
STARTCHAR 03A1
ENCODING 929
SWIDTH 480 0
DWIDTH 12 0
BBX 12 17 0 0
BITMAP
3F00
7FC0
7FE0
7FE0
7CF0
7C70
7CF0
7DF0
7FF0
7FE0
7E00
7E00
FE00
7E00
FE00
FE00
FE00
ENDCHAR
STARTCHAR 03A3
ENCODING 931
SWIDTH 480 0
DWIDTH 12 0
BBX 12 17 0 0
BITMAP
FFF0
FFF0
FFF0
FFF0
7C00
3E00
1F80
07C0
03C0
07C0
0F00
1E00
7C00
7FF0
7FF0
7FF0
7FF0
ENDCHAR
STARTCHAR 03A4
ENCODING 932
SWIDTH 560 0
DWIDTH 14 0
BBX 14 17 0 0
BITMAP
7FF8
7FF8
7FFC
7FFC
FFFC
73C0
0380
0380
0780
0780
0780
0780
0780
0780
0780
0780
0380
ENDCHAR
STARTCHAR 03A5
ENCODING 933
SWIDTH 600 0
DWIDTH 15 0
BBX 14 17 1 0
BITMAP
003C
F078
F078
F8F0
78F0
7DE0
3DE0
3FE0
1FC0
1FC0
0F80
0F80
0780
0780
0780
0780
0780
ENDCHAR
STARTCHAR 03A6
ENCODING 934
SWIDTH 640 0
DWIDTH 16 0
BBX 16 20 0 -1
BITMAP
0100
03E0
03E0
3FFE
7FFE
7FFF
7FFF
7FFF
FBFF
FBCF
FBCF
FBDF
7BDF
7FFE
7FFE
7FFC
7FFC
17F8
0780
0780
ENDCHAR
STARTCHAR 03A7
ENCODING 935
SWIDTH 560 0
DWIDTH 14 0
BBX 14 16 0 0
BITMAP
003C
787C
FC7C
7CF8
7EF8
3EF0
1FF0
1FE0
0FE0
0FE0
0FE0
1FE0
1FF0
3EF0
3E78
7C70
ENDCHAR
STARTCHAR 03A8
ENCODING 936
SWIDTH 720 0
DWIDTH 18 0
BBX 18 17 0 0
BITMAP
F00380
F1E7C0
F1E7C0
F1E7C0
F1E780
71E780
71E780
79E780
7DEF80
7FFF00
3FFF00
1FFE00
07FC00
01E000
01E000
01E000
01E000
ENDCHAR
STARTCHAR 03A9
ENCODING 937
SWIDTH 600 0
DWIDTH 15 0
BBX 15 17 0 0
BITMAP
1FE0
3FF0
3FF8
7FFC
7FFC
783C
781E
781E
781E
781E
781C
383C
3C38
FE7E
FE7E
FE7E
FE7E
ENDCHAR
STARTCHAR 03AA
ENCODING 938
SWIDTH 320 0
DWIDTH 8 0
BBX 9 20 0 0
BITMAP
3B80
3B80
1000
1F00
3F00
3E00
3E00
3E00
3E00
3E00
3E00
3E00
3E00
7E00
7E00
7E00
7E00
7E00
7E00
F000
ENDCHAR
STARTCHAR 03AB
ENCODING 939
SWIDTH 600 0
DWIDTH 15 0
BBX 14 20 1 0
BITMAP
0CC0
1CC0
0000
003C
F078
F078
F8F0
78F0
7DE0
3DE0
3FE0
1FC0
1FC0
0F80
0F80
0780
0780
0780
0780
0780
ENDCHAR
STARTCHAR 03AC
ENCODING 940
SWIDTH 600 0
DWIDTH 15 0
BBX 15 19 0 -1
BITMAP
0C00
1DC0
19C0
19C0
03E0
03E0
07E0
07E0
07F0
0FF0
0EF0
1CF8
19F8
3FF8
3FFC
7CFC
787E
787E
C000
ENDCHAR
STARTCHAR 03AD
ENCODING 941
SWIDTH 560 0
DWIDTH 14 0
BBX 14 18 0 0
BITMAP
7000
7FF0
DFF0
DFE0
1FE0
0FE0
0F00
0F00
0FE0
0FE0
0780
0788
07FC
07FC
07FC
07FC
07F8
0380
ENDCHAR
STARTCHAR 03AE
ENCODING 942
SWIDTH 600 0
DWIDTH 15 0
BBX 15 18 0 0
BITMAP
7000
6F80
DF1E
DF3E
1F3E
1F3E
1F3E
1FFC
1FFC
1FFC
1FFE
3FFE
3F3E
3F7C
3F7C
3F7C
3F3C
1E60
ENDCHAR
STARTCHAR 03AF
ENCODING 943
SWIDTH 360 0
DWIDTH 9 0
BBX 9 18 0 0
BITMAP
7000
6F00
CF80
DF80
1F80
1F00
1F00
1F00
1F00
1F00
1F00
1F00
1F00
1F00
1F00
3F00
3F00
3800
ENDCHAR
STARTCHAR 03B0
ENCODING 944
SWIDTH 600 0
DWIDTH 15 0
BBX 14 22 1 0
BITMAP
0180
0300
0CC0
1CC0
0000
003C
F078
F078
F8F0
78F0
7DE0
3DE0
3FE0
1FC0
1FC0
0F80
0F80
0780
0780
0780
0780
0780
ENDCHAR
STARTCHAR 03B1
ENCODING 945
SWIDTH 600 0
DWIDTH 15 0
BBX 15 18 0 -1
BITMAP
01C0
01C0
01C0
03E0
03E0
07E0
07E0
07F0
0FF0
0EF0
1CF8
19F8
3FF8
3FFC
7CFC
787E
787E
C000
ENDCHAR
STARTCHAR 03B2
ENCODING 946
SWIDTH 520 0
DWIDTH 13 0
BBX 13 17 0 0
BITMAP
7F00
7F80
FFC0
7FC0
79E0
79C0
79C0
7F80
7FE0
3FF0
3CF0
3CF8
3CF8
3FF0
3FF0
3FE0
1E00
ENDCHAR
STARTCHAR 03B3
ENCODING 947
SWIDTH 480 0
DWIDTH 12 0
BBX 12 18 0 0
BITMAP
0080
7FF0
FFF0
FFF0
FE00
F800
F800
F800
7800
F800
F800
F800
F800
F800
7800
7800
7800
7000
ENDCHAR
STARTCHAR 03B4
ENCODING 948
SWIDTH 560 0
DWIDTH 14 0
BBX 14 17 0 0
BITMAP
0180
03E0
07E0
07E0
0FE0
0FF0
1FF0
1FF0
3EF0
3EF8
3E78
7C78
7C7C
7C7C
FFFC
FFFC
FFFC
ENDCHAR
STARTCHAR 03B5
ENCODING 949
SWIDTH 480 0
DWIDTH 12 0
BBX 12 17 0 0
BITMAP
7FC0
FF80
7F80
7F80
7F80
7C00
3C00
3F80
3F80
3E00
3E20
3FE0
1FE0
1FF0
1FF0
1FE0
1E00
ENDCHAR
STARTCHAR 03B6
ENCODING 950
SWIDTH 600 0
DWIDTH 15 0
BBX 15 17 0 0
BITMAP
0FF8
7FF0
7FE0
FFE0
E3C0
03C0
0380
0780
0780
0F00
0F00
0F00
1EFC
1FFE
1FFC
1FF8
01E0
ENDCHAR
STARTCHAR 03B7
ENCODING 951
SWIDTH 560 0
DWIDTH 14 0
BBX 13 17 1 0
BITMAP
3C00
7CF8
7CF8
7CF8
7CF0
7CF0
7FF0
7FF0
FFF0
FFF0
FFF0
FDF0
FDF0
F9F0
F9F0
F9F0
3900
ENDCHAR
STARTCHAR 03B8
ENCODING 952
SWIDTH 520 0
DWIDTH 13 0
BBX 13 17 0 0
BITMAP
1F80
3FE0
7FF0
7FF0
7FF0
7FF8
F8F8
FFF8
FFF8
7FF8
78F8
7FF8
3FF0
3FF0
1FF0
0FE0
07C0
ENDCHAR
STARTCHAR 03B9
ENCODING 953
SWIDTH 320 0
DWIDTH 8 0
BBX 8 17 0 0
BITMAP
1F
3F
3E
3E
3E
3E
3E
3E
3E
3E
7E
7E
7E
7E
7E
7E
F0
ENDCHAR
STARTCHAR 03BA
ENCODING 954
SWIDTH 520 0
DWIDTH 13 0
BBX 13 17 0 0
BITMAP
FE20
7E78
7EF8
7EF0
7FE0
7FE0
7FC0
7FC0
FF80
FF80
FFC0
FFE0
FFF0
FEF0
FE78
7E78
7E20
ENDCHAR
STARTCHAR 03BB
ENCODING 955
SWIDTH 560 0
DWIDTH 14 0
BBX 14 17 0 0
BITMAP
0C00
1E00
1F00
1F00
1F80
1FC0
3FC0
3FE0
3DE0
3DF0
7DF0
7DF8
7CF8
7CFC
7CFC
FC3C
7000
ENDCHAR
STARTCHAR 03BC
ENCODING 956
SWIDTH 640 0
DWIDTH 16 0
BBX 16 17 0 0
BITMAP
100C
181C
181C
3C3C
3E3C
3E7E
3F7E
3FFE
3FFE
7FFE
7EBE
7C3E
7C3E
783F
783F
F83F
F818
ENDCHAR
STARTCHAR 03BD
ENCODING 957
SWIDTH 560 0
DWIDTH 14 0
BBX 14 17 0 0
BITMAP
1818
3E7C
3E7C
3E7C
7E78
7F78
7F78
7F78
7F78
7FF8
7FF8
7DF8
7DF8
7DF8
7CF8
7CF8
F060
ENDCHAR
STARTCHAR 03BE
ENCODING 958
SWIDTH 480 0
DWIDTH 12 0
BBX 12 17 0 0
BITMAP
7FE0
7FF0
FFF0
FFF0
0000
0000
3FC0
3FC0
3FC0
3FC0
0000
0000
2000
FFF0
FFF0
FFF0
17E0
ENDCHAR
STARTCHAR 03BF
ENCODING 959
SWIDTH 520 0
DWIDTH 13 0
BBX 13 17 0 1
BITMAP
0E00
1F80
3FC0
3FE0
7FF0
7FF0
7CF8
F8F8
F8F8
F8F8
7FF8
7FF8
7FF8
7FF0
3FF0
1FE0
07C0
ENDCHAR
STARTCHAR 03C0
ENCODING 960
SWIDTH 520 0
DWIDTH 13 0
BBX 13 17 0 0
BITMAP
7FF8
FFF8
FFF8
FFF8
7878
7878
7878
7878
7878
7878
7878
7878
7878
7878
7878
7878
7838
ENDCHAR
STARTCHAR 03C1
ENCODING 961
SWIDTH 480 0
DWIDTH 12 0
BBX 12 17 0 0
BITMAP
3F00
7FC0
7FE0
7FE0
7CF0
7C70
7CF0
7DF0
7FF0
7FE0
7E00
7E00
FE00
7E00
FE00
FE00
FE00
ENDCHAR
STARTCHAR 03C2
ENCODING 962
SWIDTH 480 0
DWIDTH 12 0
BBX 12 20 0 -3
BITMAP
0380
1FE0
3FF0
7FF0
7FF0
7C00
F800
F000
F000
F800
7C00
7F00
7FE0
3FF0
1FF0
07F0
01F0
07F0
07E0
07C0
ENDCHAR
STARTCHAR 03C3
ENCODING 963
SWIDTH 480 0
DWIDTH 12 0
BBX 12 17 0 0
BITMAP
FFF0
FFF0
FFF0
FFF0
7C00
3E00
1F80
07C0
03C0
07C0
0F00
1E00
7C00
7FF0
7FF0
7FF0
7FF0
ENDCHAR
STARTCHAR 03C4
ENCODING 964
SWIDTH 560 0
DWIDTH 14 0
BBX 14 17 0 0
BITMAP
7FF8
7FF8
7FFC
7FFC
FFFC
73C0
0380
0380
0780
0780
0780
0780
0780
0780
0780
0780
0380
ENDCHAR
STARTCHAR 03C5
ENCODING 965
SWIDTH 600 0
DWIDTH 15 0
BBX 14 17 1 0
BITMAP
003C
F078
F078
F8F0
78F0
7DE0
3DE0
3FE0
1FC0
1FC0
0F80
0F80
0780
0780
0780
0780
0780
ENDCHAR
STARTCHAR 03C6
ENCODING 966
SWIDTH 640 0
DWIDTH 16 0
BBX 16 20 0 -1
BITMAP
0100
03E0
03E0
3FFE
7FFE
7FFF
7FFF
7FFF
FBFF
FBCF
FBCF
FBDF
7BDF
7FFE
7FFE
7FFC
7FFC
17F8
0780
0780
ENDCHAR
STARTCHAR 03C7
ENCODING 967
SWIDTH 560 0
DWIDTH 14 0
BBX 14 16 0 0
BITMAP
003C
787C
FC7C
7CF8
7EF8
3EF0
1FF0
1FE0
0FE0
0FE0
0FE0
1FE0
1FF0
3EF0
3E78
7C70
ENDCHAR
STARTCHAR 03C8
ENCODING 968
SWIDTH 720 0
DWIDTH 18 0
BBX 18 17 0 0
BITMAP
F00380
F1E7C0
F1E7C0
F1E7C0
F1E780
71E780
71E780
79E780
7DEF80
7FFF00
3FFF00
1FFE00
07FC00
01E000
01E000
01E000
01E000
ENDCHAR
STARTCHAR 03C9
ENCODING 969
SWIDTH 600 0
DWIDTH 15 0
BBX 15 17 0 0
BITMAP
1FE0
3FF0
3FF8
7FFC
7FFC
783C
781E
781E
781E
781E
781C
383C
3C38
FE7E
FE7E
FE7E
FE7E
ENDCHAR
STARTCHAR 03CA
ENCODING 970
SWIDTH 320 0
DWIDTH 8 0
BBX 9 20 0 0
BITMAP
3B80
3B80
1000
1F00
3F00
3E00
3E00
3E00
3E00
3E00
3E00
3E00
3E00
7E00
7E00
7E00
7E00
7E00
7E00
F000
ENDCHAR
STARTCHAR 03CB
ENCODING 971
SWIDTH 600 0
DWIDTH 15 0
BBX 14 20 1 0
BITMAP
0CC0
1CC0
0000
003C
F078
F078
F8F0
78F0
7DE0
3DE0
3FE0
1FC0
1FC0
0F80
0F80
0780
0780
0780
0780
0780
ENDCHAR
STARTCHAR 03CC
ENCODING 972
SWIDTH 520 0
DWIDTH 13 0
BBX 13 18 0 0
BITMAP
7400
6F00
DF80
DFE0
3FE0
3FF0
7FF8
7CF8
7C78
7878
7CF8
7EF8
7FF8
3FF8
3FF8
3FF0
1FF0
07C0
ENDCHAR
STARTCHAR 03CD
ENCODING 973
SWIDTH 680 0
DWIDTH 17 0
BBX 17 18 0 0
BITMAP
700000
600780
DE0F00
DE0F00
1F1E00
0F1E00
0FBC00
07BC00
07F800
03F800
03F800
01F000
01F000
00F000
00F000
00F000
00F000
00F000
ENDCHAR
STARTCHAR 03CE
ENCODING 974
SWIDTH 640 0
DWIDTH 16 0
BBX 16 18 0 0
BITMAP
7000
6FF0
DFF8
FFFC
3FFE
3FFE
7C1E
7C1E
780F
380F
380E
3C0E
1C1E
1E3C
7E3F
7E3F
7F3F
7F3F
ENDCHAR
STARTCHAR 03D2
ENCODING 978
SWIDTH 640 0
DWIDTH 16 0
BBX 16 17 0 0
BITMAP
E00C
783E
7C3F
7C7F
1E7E
0EFE
0EE0
0FE0
07C0
07C0
07C0
0780
0780
0780
0780
0780
0780
ENDCHAR
STARTCHAR 03D3
ENCODING 979
SWIDTH 720 0
DWIDTH 18 0
BBX 18 18 0 0
BITMAP
700000
7C0380
DF07C0
CF8FC0
0F8FC0
03DFC0
03DF80
01FC00
01F800
01F800
01F000
00F000
00F000
00F000
00F000
00F000
00F000
00F000
ENDCHAR
STARTCHAR 03D4
ENCODING 980
SWIDTH 640 0
DWIDTH 16 0
BBX 16 20 0 0
BITMAP
0660
0E60
0000
E00C
783E
7C3F
7C7F
1E7E
0EFE
0EE0
0FE0
07C0
07C0
07C0
0780
0780
0780
0780
0780
0780
ENDCHAR
STARTCHAR 03D5
ENCODING 981
SWIDTH 640 0
DWIDTH 16 0
BBX 16 20 0 -1
BITMAP
0100
03E0
03E0
3FFE
7FFE
7FFF
7FFF
7FFF
FBFF
FBCF
FBCF
FBDF
7BDF
7FFE
7FFE
7FFC
7FFC
17F8
0780
0780
ENDCHAR
STARTCHAR 03D8
ENCODING 984
SWIDTH 520 0
DWIDTH 13 0
BBX 13 20 0 -3
BITMAP
07E0
1FE0
3FF0
3FF0
7FF0
7FF8
78F8
7878
F878
F878
7CF8
7FF8
7FF0
7FF0
3FE0
3FC0
0F80
0780
0780
0780
ENDCHAR
STARTCHAR 03D9
ENCODING 985
SWIDTH 520 0
DWIDTH 13 0
BBX 13 20 0 -3
BITMAP
07E0
1FE0
3FF0
3FF0
7FF0
7FF8
78F8
7878
F878
F878
7CF8
7FF8
7FF0
7FF0
3FE0
3FC0
0F80
0780
0780
0780
ENDCHAR
STARTCHAR 03DA
ENCODING 986
SWIDTH 480 0
DWIDTH 12 0
BBX 12 20 0 -2
BITMAP
0FF0
3FF0
3FF0
7FF0
7E00
F800
F800
F000
F000
F000
F800
7E00
7FC0
3FE0
3FF0
0FF0
01F0
07E0
07E0
07C0
ENDCHAR
STARTCHAR 03DB
ENCODING 987
SWIDTH 480 0
DWIDTH 12 0
BBX 12 20 0 -2
BITMAP
0FF0
3FF0
3FF0
7FF0
7E00
F800
F800
F000
F000
F000
F800
7E00
7FC0
3FE0
3FF0
0FF0
01F0
07E0
07E0
07C0
ENDCHAR
STARTCHAR 03F2
ENCODING 1010
SWIDTH 480 0
DWIDTH 12 0
BBX 12 17 0 0
BITMAP
07C0
1FE0
3FF0
7FF0
7FF0
7E00
FC00
F800
7800
FC30
7FF0
7FF0
7FF0
3FF0
3FE0
1FC0
0300
ENDCHAR
STARTCHAR 03F3
ENCODING 1011
SWIDTH 440 0
DWIDTH 11 0
BBX 11 17 0 0
BITMAP
07C0
07E0
07E0
07E0
07E0
07E0
07E0
07E0
07E0
07E0
07E0
33E0
FBE0
FBC0
7FC0
3F80
1F00
ENDCHAR
STARTCHAR 03F4
ENCODING 1012
SWIDTH 520 0
DWIDTH 13 0
BBX 13 17 0 0
BITMAP
1F80
3FC0
3FE0
7FF0
7FF0
7DF0
78F8
FFF8
FFF8
F8F8
7CF8
7FF8
7FF8
3FF0
3FF0
1FE0
07C0
ENDCHAR
STARTCHAR 03F7
ENCODING 1015
SWIDTH 480 0
DWIDTH 12 0
BBX 12 17 0 0
BITMAP
F800
F800
FE00
7FC0
7FE0
7FE0
78E0
78F0
78F0
78F0
7DF0
7FF0
7FE0
7FC0
7C00
7C00
7C00
ENDCHAR
STARTCHAR 03F8
ENCODING 1016
SWIDTH 480 0
DWIDTH 12 0
BBX 12 17 0 0
BITMAP
F800
F800
FE00
7FC0
7FE0
7FE0
78E0
78F0
78F0
78F0
7DF0
7FF0
7FE0
7FC0
7C00
7C00
7C00
ENDCHAR
STARTCHAR 03F9
ENCODING 1017
SWIDTH 480 0
DWIDTH 12 0
BBX 12 17 0 0
BITMAP
07C0
1FE0
3FF0
7FF0
7FF0
7E00
FC00
F800
7800
FC30
7FF0
7FF0
7FF0
3FF0
3FE0
1FC0
0300
ENDCHAR
STARTCHAR 03FA
ENCODING 1018
SWIDTH 600 0
DWIDTH 15 0
BBX 15 17 0 0
BITMAP
2018
7078
7CF8
7FF8
7FF8
7FFC
7F7C
7C7C
7C7C
7C3C
7C3C
7C3C
FC3E
FC3E
FC1E
FC1E
741E
ENDCHAR
STARTCHAR 03FB
ENCODING 1019
SWIDTH 600 0
DWIDTH 15 0
BBX 15 17 0 0
BITMAP
2018
7078
7CF8
7FF8
7FF8
7FFC
7F7C
7C7C
7C7C
7C3C
7C3C
7C3C
FC3E
FC3E
FC1E
FC1E
741E
ENDCHAR
STARTCHAR 03FD
ENCODING 1021
SWIDTH 480 0
DWIDTH 12 0
BBX 12 17 0 0
BITMAP
1E00
7F80
FFC0
7FE0
7FE0
03F0
01F0
01F0
01F0
63F0
7FF0
7FF0
7FE0
7FE0
7FC0
3FC0
0C00
ENDCHAR
STARTCHAR 0400
ENCODING 1024
SWIDTH 480 0
DWIDTH 12 0
BBX 12 22 0 0
BITMAP
7000
7000
3800
1C00
0000
7FC0
FF80
7F80
7F80
7F80
7C00
3C00
3F80
3F80
3E00
3E20
3FE0
1FE0
1FF0
1FF0
1FE0
1E00
ENDCHAR
STARTCHAR 0401
ENCODING 1025
SWIDTH 480 0
DWIDTH 12 0
BBX 12 21 0 0
BITMAP
0600
6600
6600
0000
7FC0
FF80
7F80
7F80
7F80
7C00
3C00
3F80
3F80
3E00
3E20
3FE0
1FE0
1FF0
1FF0
1FE0
1E00
ENDCHAR
STARTCHAR 0402
ENCODING 1026
SWIDTH 680 0
DWIDTH 17 0
BBX 17 20 0 -3
BITMAP
7FFC00
FFFC00
FFFC00
FFFC00
078000
07F800
07FE00
07FF00
07FF00
07CF00
078F80
078780
078700
078700
078700
078700
038F00
001F00
001F00
001E00
ENDCHAR
STARTCHAR 0403
ENCODING 1027
SWIDTH 480 0
DWIDTH 12 0
BBX 12 22 0 0
BITMAP
03C0
0380
0700
0700
0080
7FF0
FFF0
FFF0
FE00
F800
F800
F800
7800
F800
F800
F800
F800
F800
7800
7800
7800
7000
ENDCHAR
STARTCHAR 0404
ENCODING 1028
SWIDTH 480 0
DWIDTH 12 0
BBX 12 17 0 0
BITMAP
0FC0
1FE0
3FF0
3FF0
7FF0
7FF0
7800
FFC0
FFC0
FFC0
F980
7C00
7FF0
7FF0
3FF0
1FE0
0380
ENDCHAR
STARTCHAR 0405
ENCODING 1029
SWIDTH 480 0
DWIDTH 12 0
BBX 12 17 0 0
BITMAP
0FF0
1FF0
3FE0
3FE0
7FC0
7FC0
7C40
3E00
3F80
1FE0
03E0
01F0
6BF0
FFF0
FFE0
7FC0
1F80
ENDCHAR
STARTCHAR 0406
ENCODING 1030
SWIDTH 320 0
DWIDTH 8 0
BBX 8 17 0 0
BITMAP
1F
3F
3E
3E
3E
3E
3E
3E
3E
3E
7E
7E
7E
7E
7E
7E
F0
ENDCHAR
STARTCHAR 0407
ENCODING 1031
SWIDTH 320 0
DWIDTH 8 0
BBX 9 20 0 0
BITMAP
3B80
3B80
1000
1F00
3F00
3E00
3E00
3E00
3E00
3E00
3E00
3E00
3E00
7E00
7E00
7E00
7E00
7E00
7E00
F000
ENDCHAR
STARTCHAR 0408
ENCODING 1032
SWIDTH 440 0
DWIDTH 11 0
BBX 11 17 0 0
BITMAP
07C0
07E0
07E0
07E0
07E0
07E0
07E0
07E0
07E0
07E0
07E0
33E0
FBE0
FBC0
7FC0
3F80
1F00
ENDCHAR
STARTCHAR 0409
ENCODING 1033
SWIDTH 720 0
DWIDTH 18 0
BBX 18 17 0 0
BITMAP
07F000
0FF000
0FF000
0FF000
0FF000
1FF000
1FFE00
1EFF00
3EFF80
3EF380
3CF1C0
7CF1C0
7CF3C0
7CF3C0
7CFF80
FCFF80
70FF00
ENDCHAR
STARTCHAR 040A
ENCODING 1034
SWIDTH 720 0
DWIDTH 18 0
BBX 17 17 1 0
BITMAP
3DE000
79E000
7DE000
79E000
79E000
79E000
7FFC00
FFFE00
FFFF00
FFE700
FFE380
F9E380
F9E780
F9E780
F9FF00
F9FF00
31FE00
ENDCHAR
STARTCHAR 040B
ENCODING 1035
SWIDTH 680 0
DWIDTH 17 0
BBX 17 17 0 0
BITMAP
7FFC00
FFFC00
FFFC00
FFFC00
078000
07F800
07FE00
07FF00
07FF00
07CF00
078F80
078F80
078F00
078F00
078F80
078700
038F00
ENDCHAR
STARTCHAR 040C
ENCODING 1036
SWIDTH 520 0
DWIDTH 13 0
BBX 13 22 0 0
BITMAP
0070
00F0
00E0
01C0
0000
FE20
7E78
7EF8
7EF0
7FE0
7FE0
7FC0
7FC0
FF80
FF80
FFC0
FFE0
FFF0
FEF0
FE78
7E78
7E20
ENDCHAR
STARTCHAR 040D
ENCODING 1037
SWIDTH 560 0
DWIDTH 14 0
BBX 14 22 0 0
BITMAP
3800
1C00
1E00
0E00
0000
7070
F9F0
79F0
79F0
79F8
79F8
79F8
7BF8
7BF8
7FF8
7F78
7F78
7E78
7E78
3E78
3E7C
183C
ENDCHAR
STARTCHAR 040E
ENCODING 1038
SWIDTH 480 0
DWIDTH 12 0
BBX 11 21 1 0
BITMAP
3380
3F00
1E00
0000
F3E0
F3E0
FBE0
FBC0
7BC0
7FC0
3FC0
3FC0
1F80
1F80
0F80
0F80
FF80
FF80
FF00
FE00
F000
ENDCHAR
STARTCHAR 040F
ENCODING 1039
SWIDTH 520 0
DWIDTH 13 0
BBX 13 19 0 -3
BITMAP
78F8
78F8
78F8
78F8
F8F8
F8F8
F8F8
F878
F078
F078
F0F8
FFF8
FFF8
FFF8
FFF8
3F80
0780
0780
0780
ENDCHAR
STARTCHAR 0410
ENCODING 1040
SWIDTH 600 0
DWIDTH 15 0
BBX 15 18 0 -1
BITMAP
01C0
01C0
01C0
03E0
03E0
07E0
07E0
07F0
0FF0
0EF0
1CF8
19F8
3FF8
3FFC
7CFC
787E
787E
C000
ENDCHAR
STARTCHAR 0411
ENCODING 1041
SWIDTH 480 0
DWIDTH 12 0
BBX 11 17 1 0
BITMAP
FF80
FFE0
FFE0
FFC0
FFE0
F800
F800
FFC0
FFE0
FFE0
F9E0
F8E0
F9E0
FFC0
FFC0
FF80
3C00
ENDCHAR
STARTCHAR 0412
ENCODING 1042
SWIDTH 520 0
DWIDTH 13 0
BBX 13 17 0 0
BITMAP
7F00
7F80
FFC0
7FC0
79E0
79C0
79C0
7F80
7FE0
3FF0
3CF0
3CF8
3CF8
3FF0
3FF0
3FE0
1E00
ENDCHAR
STARTCHAR 0413
ENCODING 1043
SWIDTH 480 0
DWIDTH 12 0
BBX 12 18 0 0
BITMAP
0080
7FF0
FFF0
FFF0
FE00
F800
F800
F800
7800
F800
F800
F800
F800
F800
7800
7800
7800
7000
ENDCHAR
STARTCHAR 0414
ENCODING 1044
SWIDTH 600 0
DWIDTH 15 0
BBX 15 20 0 -3
BITMAP
0180
03C0
03E0
07E0
07E0
0FE0
0FE0
0FF0
1EF0
1EF0
1EF0
3E78
3C78
3C78
FFFE
FFFC
7FFC
701C
783C
783C
ENDCHAR
STARTCHAR 0415
ENCODING 1045
SWIDTH 480 0
DWIDTH 12 0
BBX 12 17 0 0
BITMAP
7FC0
FF80
7F80
7F80
7F80
7C00
3C00
3F80
3F80
3E00
3E20
3FE0
1FE0
1FF0
1FF0
1FE0
1E00
ENDCHAR
STARTCHAR 0416
ENCODING 1046
SWIDTH 680 0
DWIDTH 17 0
BBX 17 17 0 0
BITMAP
008300
FBCF00
7FCF00
7DCF00
7DFF00
3DFE00
3FFE00
1FFC00
1FFC00
1FFE00
3FFF00
3FFF80
7DEF80
7DEF80
7DE780
7CE700
384000
ENDCHAR
STARTCHAR 0417
ENCODING 1047
SWIDTH 480 0
DWIDTH 12 0
BBX 12 17 0 0
BITMAP
7F80
7FC0
FFE0
F3E0
01E0
01E0
03E0
1FC0
1FC0
1FE0
01F0
01F0
7FF0
3FF0
3FE0
3FC0
1F80
ENDCHAR
STARTCHAR 0418
ENCODING 1048
SWIDTH 560 0
DWIDTH 14 0
BBX 14 17 0 0
BITMAP
7070
F9F0
79F0
79F0
79F8
79F8
79F8
7BF8
7BF8
7FF8
7F78
7F78
7E78
7E78
3E78
3E7C
183C
ENDCHAR
STARTCHAR 0419
ENCODING 1049
SWIDTH 560 0
DWIDTH 14 0
BBX 14 21 0 0
BITMAP
19C0
1F80
0F00
0000
7070
F9F0
79F0
79F0
79F8
79F8
79F8
7BF8
7BF8
7FF8
7F78
7F78
7E78
7E78
3E78
3E7C
183C
ENDCHAR
STARTCHAR 041A
ENCODING 1050
SWIDTH 520 0
DWIDTH 13 0
BBX 13 17 0 0
BITMAP
FE20
7E78
7EF8
7EF0
7FE0
7FE0
7FC0
7FC0
FF80
FF80
FFC0
FFE0
FFF0
FEF0
FE78
7E78
7E20
ENDCHAR
STARTCHAR 041B
ENCODING 1051
SWIDTH 560 0
DWIDTH 14 0
BBX 14 17 0 0
BITMAP
0C00
1E00
1F00
1F00
1F80
1FC0
3FC0
3FE0
3DE0
3DF0
7DF0
7DF8
7CF8
7CFC
7CFC
FC3C
7000
ENDCHAR
STARTCHAR 041C
ENCODING 1052
SWIDTH 640 0
DWIDTH 16 0
BBX 16 17 0 0
BITMAP
100C
181C
181C
3C3C
3E3C
3E7E
3F7E
3FFE
3FFE
7FFE
7EBE
7C3E
7C3E
783F
783F
F83F
F818
ENDCHAR
STARTCHAR 041D
ENCODING 1053
SWIDTH 560 0
DWIDTH 14 0
BBX 13 17 1 0
BITMAP
3C00
7CF8
7CF8
7CF8
7CF0
7CF0
7FF0
7FF0
FFF0
FFF0
FFF0
FDF0
FDF0
F9F0
F9F0
F9F0
3900
ENDCHAR
STARTCHAR 041E
ENCODING 1054
SWIDTH 520 0
DWIDTH 13 0
BBX 13 17 0 1
BITMAP
0E00
1F80
3FC0
3FE0
7FF0
7FF0
7CF8
F8F8
F8F8
F8F8
7FF8
7FF8
7FF8
7FF0
3FF0
1FE0
07C0
ENDCHAR
STARTCHAR 041F
ENCODING 1055
SWIDTH 520 0
DWIDTH 13 0
BBX 13 17 0 0
BITMAP
7FF8
FFF8
FFF8
FFF8
7878
7878
7878
7878
7878
7878
7878
7878
7878
7878
7878
7878
7838
ENDCHAR
STARTCHAR 0420
ENCODING 1056
SWIDTH 480 0
DWIDTH 12 0
BBX 12 17 0 0
BITMAP
3F00
7FC0
7FE0
7FE0
7CF0
7C70
7CF0
7DF0
7FF0
7FE0
7E00
7E00
FE00
7E00
FE00
FE00
FE00
ENDCHAR
STARTCHAR 0421
ENCODING 1057
SWIDTH 480 0
DWIDTH 12 0
BBX 12 17 0 0
BITMAP
07C0
1FE0
3FF0
7FF0
7FF0
7E00
FC00
F800
7800
FC30
7FF0
7FF0
7FF0
3FF0
3FE0
1FC0
0300
ENDCHAR
STARTCHAR 0422
ENCODING 1058
SWIDTH 560 0
DWIDTH 14 0
BBX 14 17 0 0
BITMAP
7FF8
7FF8
7FFC
7FFC
FFFC
73C0
0380
0380
0780
0780
0780
0780
0780
0780
0780
0780
0380
ENDCHAR
STARTCHAR 0423
ENCODING 1059
SWIDTH 480 0
DWIDTH 12 0
BBX 11 17 1 0
BITMAP
F3E0
F3E0
FBE0
FBC0
7BC0
7FC0
3FC0
3FC0
1F80
1F80
0F80
0F80
FF80
FF80
FF00
FE00
F000
ENDCHAR
STARTCHAR 0424
ENCODING 1060
SWIDTH 640 0
DWIDTH 16 0
BBX 16 20 0 -1
BITMAP
0100
03E0
03E0
3FFE
7FFE
7FFF
7FFF
7FFF
FBFF
FBCF
FBCF
FBDF
7BDF
7FFE
7FFE
7FFC
7FFC
17F8
0780
0780
ENDCHAR
STARTCHAR 0425
ENCODING 1061
SWIDTH 560 0
DWIDTH 14 0
BBX 14 16 0 0
BITMAP
003C
787C
FC7C
7CF8
7EF8
3EF0
1FF0
1FE0
0FE0
0FE0
0FE0
1FE0
1FF0
3EF0
3E78
7C70
ENDCHAR
STARTCHAR 0426
ENCODING 1062
SWIDTH 520 0
DWIDTH 13 0
BBX 13 19 0 -3
BITMAP
7878
7878
7878
7878
7878
7878
7878
7878
7878
7878
7878
FFF8
FFF8
FFF8
FFF8
00F8
0078
0078
0078
ENDCHAR
STARTCHAR 0427
ENCODING 1063
SWIDTH 520 0
DWIDTH 13 0
BBX 12 17 0 0
BITMAP
00E0
F9E0
F1E0
F8F0
F8F0
F8F0
78F0
78F0
7FF0
7FF0
3FF0
1FF0
00F0
00F0
00F0
00F0
0070
ENDCHAR
STARTCHAR 0428
ENCODING 1064
SWIDTH 720 0
DWIDTH 18 0
BBX 18 17 0 0
BITMAP
7003C0
F8E3C0
F8E3C0
F8E3C0
78E3C0
78E3C0
78E3C0
78F3C0
78F3C0
78F3C0
78F3C0
78F3C0
7FFFC0
7FFFC0
7FFFC0
3FFFC0
3FFF80
ENDCHAR
STARTCHAR 0429
ENCODING 1065
SWIDTH 720 0
DWIDTH 18 0
BBX 18 20 0 -3
BITMAP
7803C0
F8E3C0
F8E380
F8E380
F8E380
78E7C0
78E780
7CE780
7CE780
7CE780
7CE780
7CE780
7FFF80
7FFF80
7FFF80
3FFF80
3FFF80
000780
000780
000780
ENDCHAR
STARTCHAR 042A
ENCODING 1066
SWIDTH 600 0
DWIDTH 15 0
BBX 14 17 1 0
BITMAP
FC00
FC00
FE00
FE00
FE00
1FC0
1FF0
1FF8
0FFC
0F3C
0F1C
1F1C
1F1C
0F7C
0FFC
0FF8
0F80
ENDCHAR
STARTCHAR 042B
ENCODING 1067
SWIDTH 640 0
DWIDTH 16 0
BBX 16 17 0 0
BITMAP
F807
F807
F807
7807
7807
7E07
7FC7
7FE7
7FE7
78E7
78F7
78F7
78F7
7DF7
7FE7
7FC7
0001
ENDCHAR
STARTCHAR 042C
ENCODING 1068
SWIDTH 480 0
DWIDTH 12 0
BBX 12 17 0 0
BITMAP
F800
F800
F800
7800
7800
7E00
7FC0
7FC0
7FE0
78E0
78F0
78F0
78F0
7DF0
7FF0
7FE0
7FC0
ENDCHAR
STARTCHAR 042D
ENCODING 1069
SWIDTH 480 0
DWIDTH 12 0
BBX 12 17 0 0
BITMAP
1F00
7FC0
7FC0
7FE0
7FE0
7FF0
40F0
1FF0
1FF0
1FF0
18F0
01F0
7FF0
FFE0
FFC0
7F80
1C00
ENDCHAR
STARTCHAR 042E
ENCODING 1070
SWIDTH 640 0
DWIDTH 16 0
BBX 17 18 0 0
BITMAP
003000
387C00
3CFE00
3CFE00
3CFE00
3CFF00
3DFF00
7FEF00
7FE780
7FC780
7FE700
7FE700
7CFF00
7CFF00
FE7F00
FE7F00
7E3E00
001C00
ENDCHAR
STARTCHAR 042F
ENCODING 1071
SWIDTH 520 0
DWIDTH 13 0
BBX 12 18 1 -1
BITMAP
1FE0
3FE0
FFE0
E7E0
C3E0
E3E0
E7E0
FFE0
7FF0
1FF0
3FF0
3BF0
7BF0
7BF0
F3F0
F3F0
F3E0
E000
ENDCHAR
STARTCHAR 0430
ENCODING 1072
SWIDTH 600 0
DWIDTH 15 0
BBX 15 18 0 -1
BITMAP
01C0
01C0
01C0
03E0
03E0
07E0
07E0
07F0
0FF0
0EF0
1CF8
19F8
3FF8
3FFC
7CFC
787E
787E
C000
ENDCHAR
STARTCHAR 0431
ENCODING 1073
SWIDTH 480 0
DWIDTH 12 0
BBX 11 17 1 0
BITMAP
FF80
FFE0
FFE0
FFC0
FFE0
F800
F800
FFC0
FFE0
FFE0
F9E0
F8E0
F9E0
FFC0
FFC0
FF80
3C00
ENDCHAR
STARTCHAR 0432
ENCODING 1074
SWIDTH 520 0
DWIDTH 13 0
BBX 13 17 0 0
BITMAP
7F00
7F80
FFC0
7FC0
79E0
79C0
79C0
7F80
7FE0
3FF0
3CF0
3CF8
3CF8
3FF0
3FF0
3FE0
1E00
ENDCHAR
STARTCHAR 0433
ENCODING 1075
SWIDTH 480 0
DWIDTH 12 0
BBX 12 18 0 0
BITMAP
0080
7FF0
FFF0
FFF0
FE00
F800
F800
F800
7800
F800
F800
F800
F800
F800
7800
7800
7800
7000
ENDCHAR
STARTCHAR 0434
ENCODING 1076
SWIDTH 600 0
DWIDTH 15 0
BBX 15 20 0 -3
BITMAP
0180
03C0
03E0
07E0
07E0
0FE0
0FE0
0FF0
1EF0
1EF0
1EF0
3E78
3C78
3C78
FFFE
FFFC
7FFC
701C
783C
783C
ENDCHAR
STARTCHAR 0435
ENCODING 1077
SWIDTH 480 0
DWIDTH 12 0
BBX 12 17 0 0
BITMAP
7FC0
FF80
7F80
7F80
7F80
7C00
3C00
3F80
3F80
3E00
3E20
3FE0
1FE0
1FF0
1FF0
1FE0
1E00
ENDCHAR
STARTCHAR 0436
ENCODING 1078
SWIDTH 680 0
DWIDTH 17 0
BBX 17 17 0 0
BITMAP
008300
FBCF00
7FCF00
7DCF00
7DFF00
3DFE00
3FFE00
1FFC00
1FFC00
1FFE00
3FFF00
3FFF80
7DEF80
7DEF80
7DE780
7CE700
384000
ENDCHAR
STARTCHAR 0437
ENCODING 1079
SWIDTH 480 0
DWIDTH 12 0
BBX 12 17 0 0
BITMAP
7F80
7FC0
FFE0
F3E0
01E0
01E0
03E0
1FC0
1FC0
1FE0
01F0
01F0
7FF0
3FF0
3FE0
3FC0
1F80
ENDCHAR
STARTCHAR 0438
ENCODING 1080
SWIDTH 560 0
DWIDTH 14 0
BBX 14 17 0 0
BITMAP
7070
F9F0
79F0
79F0
79F8
79F8
79F8
7BF8
7BF8
7FF8
7F78
7F78
7E78
7E78
3E78
3E7C
183C
ENDCHAR
STARTCHAR 0439
ENCODING 1081
SWIDTH 560 0
DWIDTH 14 0
BBX 14 21 0 0
BITMAP
19C0
1F80
0F00
0000
7070
F9F0
79F0
79F0
79F8
79F8
79F8
7BF8
7BF8
7FF8
7F78
7F78
7E78
7E78
3E78
3E7C
183C
ENDCHAR
STARTCHAR 043A
ENCODING 1082
SWIDTH 520 0
DWIDTH 13 0
BBX 13 17 0 0
BITMAP
FE20
7E78
7EF8
7EF0
7FE0
7FE0
7FC0
7FC0
FF80
FF80
FFC0
FFE0
FFF0
FEF0
FE78
7E78
7E20
ENDCHAR
STARTCHAR 043B
ENCODING 1083
SWIDTH 560 0
DWIDTH 14 0
BBX 14 17 0 0
BITMAP
0C00
1E00
1F00
1F00
1F80
1FC0
3FC0
3FE0
3DE0
3DF0
7DF0
7DF8
7CF8
7CFC
7CFC
FC3C
7000
ENDCHAR
STARTCHAR 043C
ENCODING 1084
SWIDTH 640 0
DWIDTH 16 0
BBX 16 17 0 0
BITMAP
100C
181C
181C
3C3C
3E3C
3E7E
3F7E
3FFE
3FFE
7FFE
7EBE
7C3E
7C3E
783F
783F
F83F
F818
ENDCHAR
STARTCHAR 043D
ENCODING 1085
SWIDTH 560 0
DWIDTH 14 0
BBX 13 17 1 0
BITMAP
3C00
7CF8
7CF8
7CF8
7CF0
7CF0
7FF0
7FF0
FFF0
FFF0
FFF0
FDF0
FDF0
F9F0
F9F0
F9F0
3900
ENDCHAR
STARTCHAR 043E
ENCODING 1086
SWIDTH 520 0
DWIDTH 13 0
BBX 13 17 0 1
BITMAP
0E00
1F80
3FC0
3FE0
7FF0
7FF0
7CF8
F8F8
F8F8
F8F8
7FF8
7FF8
7FF8
7FF0
3FF0
1FE0
07C0
ENDCHAR
STARTCHAR 043F
ENCODING 1087
SWIDTH 520 0
DWIDTH 13 0
BBX 13 17 0 0
BITMAP
7FF8
FFF8
FFF8
FFF8
7878
7878
7878
7878
7878
7878
7878
7878
7878
7878
7878
7878
7838
ENDCHAR
STARTCHAR 0440
ENCODING 1088
SWIDTH 480 0
DWIDTH 12 0
BBX 12 17 0 0
BITMAP
3F00
7FC0
7FE0
7FE0
7CF0
7C70
7CF0
7DF0
7FF0
7FE0
7E00
7E00
FE00
7E00
FE00
FE00
FE00
ENDCHAR
STARTCHAR 0441
ENCODING 1089
SWIDTH 480 0
DWIDTH 12 0
BBX 12 17 0 0
BITMAP
07C0
1FE0
3FF0
7FF0
7FF0
7E00
FC00
F800
7800
FC30
7FF0
7FF0
7FF0
3FF0
3FE0
1FC0
0300
ENDCHAR
STARTCHAR 0442
ENCODING 1090
SWIDTH 560 0
DWIDTH 14 0
BBX 14 17 0 0
BITMAP
7FF8
7FF8
7FFC
7FFC
FFFC
73C0
0380
0380
0780
0780
0780
0780
0780
0780
0780
0780
0380
ENDCHAR
STARTCHAR 0443
ENCODING 1091
SWIDTH 480 0
DWIDTH 12 0
BBX 11 17 1 0
BITMAP
F3E0
F3E0
FBE0
FBC0
7BC0
7FC0
3FC0
3FC0
1F80
1F80
0F80
0F80
FF80
FF80
FF00
FE00
F000
ENDCHAR
STARTCHAR 0444
ENCODING 1092
SWIDTH 640 0
DWIDTH 16 0
BBX 16 20 0 -1
BITMAP
0100
03E0
03E0
3FFE
7FFE
7FFF
7FFF
7FFF
FBFF
FBCF
FBCF
FBDF
7BDF
7FFE
7FFE
7FFC
7FFC
17F8
0780
0780
ENDCHAR
STARTCHAR 0445
ENCODING 1093
SWIDTH 560 0
DWIDTH 14 0
BBX 14 16 0 0
BITMAP
003C
787C
FC7C
7CF8
7EF8
3EF0
1FF0
1FE0
0FE0
0FE0
0FE0
1FE0
1FF0
3EF0
3E78
7C70
ENDCHAR
STARTCHAR 0446
ENCODING 1094
SWIDTH 520 0
DWIDTH 13 0
BBX 13 19 0 -3
BITMAP
7878
7878
7878
7878
7878
7878
7878
7878
7878
7878
7878
FFF8
FFF8
FFF8
FFF8
00F8
0078
0078
0078
ENDCHAR
STARTCHAR 0447
ENCODING 1095
SWIDTH 520 0
DWIDTH 13 0
BBX 12 17 0 0
BITMAP
00E0
F9E0
F1E0
F8F0
F8F0
F8F0
78F0
78F0
7FF0
7FF0
3FF0
1FF0
00F0
00F0
00F0
00F0
0070
ENDCHAR
STARTCHAR 0448
ENCODING 1096
SWIDTH 720 0
DWIDTH 18 0
BBX 18 17 0 0
BITMAP
7003C0
F8E3C0
F8E3C0
F8E3C0
78E3C0
78E3C0
78E3C0
78F3C0
78F3C0
78F3C0
78F3C0
78F3C0
7FFFC0
7FFFC0
7FFFC0
3FFFC0
3FFF80
ENDCHAR
STARTCHAR 0449
ENCODING 1097
SWIDTH 720 0
DWIDTH 18 0
BBX 18 20 0 -3
BITMAP
7803C0
F8E3C0
F8E380
F8E380
F8E380
78E7C0
78E780
7CE780
7CE780
7CE780
7CE780
7CE780
7FFF80
7FFF80
7FFF80
3FFF80
3FFF80
000780
000780
000780
ENDCHAR
STARTCHAR 044A
ENCODING 1098
SWIDTH 600 0
DWIDTH 15 0
BBX 14 17 1 0
BITMAP
FC00
FC00
FE00
FE00
FE00
1FC0
1FF0
1FF8
0FFC
0F3C
0F1C
1F1C
1F1C
0F7C
0FFC
0FF8
0F80
ENDCHAR
STARTCHAR 044B
ENCODING 1099
SWIDTH 640 0
DWIDTH 16 0
BBX 16 17 0 0
BITMAP
F807
F807
F807
7807
7807
7E07
7FC7
7FE7
7FE7
78E7
78F7
78F7
78F7
7DF7
7FE7
7FC7
0001
ENDCHAR
STARTCHAR 044C
ENCODING 1100
SWIDTH 480 0
DWIDTH 12 0
BBX 12 17 0 0
BITMAP
F800
F800
F800
7800
7800
7E00
7FC0
7FC0
7FE0
78E0
78F0
78F0
78F0
7DF0
7FF0
7FE0
7FC0
ENDCHAR
STARTCHAR 044D
ENCODING 1101
SWIDTH 480 0
DWIDTH 12 0
BBX 12 17 0 0
BITMAP
1F00
7FC0
7FC0
7FE0
7FE0
7FF0
40F0
1FF0
1FF0
1FF0
18F0
01F0
7FF0
FFE0
FFC0
7F80
1C00
ENDCHAR
STARTCHAR 044E
ENCODING 1102
SWIDTH 640 0
DWIDTH 16 0
BBX 17 18 0 0
BITMAP
003000
387C00
3CFE00
3CFE00
3CFE00
3CFF00
3DFF00
7FEF00
7FE780
7FC780
7FE700
7FE700
7CFF00
7CFF00
FE7F00
FE7F00
7E3E00
001C00
ENDCHAR
STARTCHAR 044F
ENCODING 1103
SWIDTH 520 0
DWIDTH 13 0
BBX 12 18 1 -1
BITMAP
1FE0
3FE0
FFE0
E7E0
C3E0
E3E0
E7E0
FFE0
7FF0
1FF0
3FF0
3BF0
7BF0
7BF0
F3F0
F3F0
F3E0
E000
ENDCHAR
STARTCHAR 0450
ENCODING 1104
SWIDTH 480 0
DWIDTH 12 0
BBX 12 22 0 0
BITMAP
7000
7000
3800
1C00
0000
7FC0
FF80
7F80
7F80
7F80
7C00
3C00
3F80
3F80
3E00
3E20
3FE0
1FE0
1FF0
1FF0
1FE0
1E00
ENDCHAR
STARTCHAR 0451
ENCODING 1105
SWIDTH 480 0
DWIDTH 12 0
BBX 12 21 0 0
BITMAP
0600
6600
6600
0000
7FC0
FF80
7F80
7F80
7F80
7C00
3C00
3F80
3F80
3E00
3E20
3FE0
1FE0
1FF0
1FF0
1FE0
1E00
ENDCHAR
STARTCHAR 0452
ENCODING 1106
SWIDTH 680 0
DWIDTH 17 0
BBX 17 20 0 -3
BITMAP
7FFC00
FFFC00
FFFC00
FFFC00
078000
07F800
07FE00
07FF00
07FF00
07CF00
078F80
078780
078700
078700
078700
078700
038F00
001F00
001F00
001E00
ENDCHAR
STARTCHAR 0453
ENCODING 1107
SWIDTH 480 0
DWIDTH 12 0
BBX 12 22 0 0
BITMAP
03C0
0380
0700
0700
0080
7FF0
FFF0
FFF0
FE00
F800
F800
F800
7800
F800
F800
F800
F800
F800
7800
7800
7800
7000
ENDCHAR
STARTCHAR 0454
ENCODING 1108
SWIDTH 480 0
DWIDTH 12 0
BBX 12 17 0 0
BITMAP
0FC0
1FE0
3FF0
3FF0
7FF0
7FF0
7800
FFC0
FFC0
FFC0
F980
7C00
7FF0
7FF0
3FF0
1FE0
0380
ENDCHAR
STARTCHAR 0455
ENCODING 1109
SWIDTH 480 0
DWIDTH 12 0
BBX 12 17 0 0
BITMAP
0FF0
1FF0
3FE0
3FE0
7FC0
7FC0
7C40
3E00
3F80
1FE0
03E0
01F0
6BF0
FFF0
FFE0
7FC0
1F80
ENDCHAR
STARTCHAR 0456
ENCODING 1110
SWIDTH 320 0
DWIDTH 8 0
BBX 8 17 0 0
BITMAP
1F
3F
3E
3E
3E
3E
3E
3E
3E
3E
7E
7E
7E
7E
7E
7E
F0
ENDCHAR
STARTCHAR 0457
ENCODING 1111
SWIDTH 320 0
DWIDTH 8 0
BBX 9 20 0 0
BITMAP
3B80
3B80
1000
1F00
3F00
3E00
3E00
3E00
3E00
3E00
3E00
3E00
3E00
7E00
7E00
7E00
7E00
7E00
7E00
F000
ENDCHAR
STARTCHAR 0458
ENCODING 1112
SWIDTH 440 0
DWIDTH 11 0
BBX 11 17 0 0
BITMAP
07C0
07E0
07E0
07E0
07E0
07E0
07E0
07E0
07E0
07E0
07E0
33E0
FBE0
FBC0
7FC0
3F80
1F00
ENDCHAR
STARTCHAR 0459
ENCODING 1113
SWIDTH 720 0
DWIDTH 18 0
BBX 18 17 0 0
BITMAP
07F000
0FF000
0FF000
0FF000
0FF000
1FF000
1FFE00
1EFF00
3EFF80
3EF380
3CF1C0
7CF1C0
7CF3C0
7CF3C0
7CFF80
FCFF80
70FF00
ENDCHAR
STARTCHAR 045A
ENCODING 1114
SWIDTH 720 0
DWIDTH 18 0
BBX 17 17 1 0
BITMAP
3DE000
79E000
7DE000
79E000
79E000
79E000
7FFC00
FFFE00
FFFF00
FFE700
FFE380
F9E380
F9E780
F9E780
F9FF00
F9FF00
31FE00
ENDCHAR
STARTCHAR 045B
ENCODING 1115
SWIDTH 680 0
DWIDTH 17 0
BBX 17 17 0 0
BITMAP
7FFC00
FFFC00
FFFC00
FFFC00
078000
07F800
07FE00
07FF00
07FF00
07CF00
078F80
078F80
078F00
078F00
078F80
078700
038F00
ENDCHAR
STARTCHAR 045C
ENCODING 1116
SWIDTH 520 0
DWIDTH 13 0
BBX 13 22 0 0
BITMAP
0070
00F0
00E0
01C0
0000
FE20
7E78
7EF8
7EF0
7FE0
7FE0
7FC0
7FC0
FF80
FF80
FFC0
FFE0
FFF0
FEF0
FE78
7E78
7E20
ENDCHAR
STARTCHAR 045D
ENCODING 1117
SWIDTH 560 0
DWIDTH 14 0
BBX 14 22 0 0
BITMAP
3800
1C00
1E00
0E00
0000
7070
F9F0
79F0
79F0
79F8
79F8
79F8
7BF8
7BF8
7FF8
7F78
7F78
7E78
7E78
3E78
3E7C
183C
ENDCHAR
STARTCHAR 045E
ENCODING 1118
SWIDTH 480 0
DWIDTH 12 0
BBX 11 21 1 0
BITMAP
3380
3F00
1E00
0000
F3E0
F3E0
FBE0
FBC0
7BC0
7FC0
3FC0
3FC0
1F80
1F80
0F80
0F80
FF80
FF80
FF00
FE00
F000
ENDCHAR
STARTCHAR 045F
ENCODING 1119
SWIDTH 520 0
DWIDTH 13 0
BBX 13 19 0 -3
BITMAP
78F8
78F8
78F8
78F8
F8F8
F8F8
F8F8
F878
F078
F078
F0F8
FFF8
FFF8
FFF8
FFF8
3F80
0780
0780
0780
ENDCHAR
STARTCHAR 0462
ENCODING 1122
SWIDTH 600 0
DWIDTH 15 0
BBX 15 17 0 0
BITMAP
0F00
7FF0
7FF8
FFF8
FFC0
0FC0
0FF8
0FFC
0FFC
0F1E
0F8E
0F8E
0F9E
0F9E
07FE
07FC
07F8
ENDCHAR
STARTCHAR 0463
ENCODING 1123
SWIDTH 600 0
DWIDTH 15 0
BBX 15 17 0 0
BITMAP
0F00
7FF0
7FF8
FFF8
FFC0
0FC0
0FF8
0FFC
0FFC
0F1E
0F8E
0F8E
0F9E
0F9E
07FE
07FC
07F8
ENDCHAR
STARTCHAR 0474
ENCODING 1140
SWIDTH 560 0
DWIDTH 14 0
BBX 14 17 0 0
BITMAP
201C
F87C
78FC
78FC
78FC
7DE0
3DE0
3DE0
3DC0
1FC0
1FC0
1FC0
0F80
0F80
0F80
0F00
0300
ENDCHAR
STARTCHAR 0475
ENCODING 1141
SWIDTH 560 0
DWIDTH 14 0
BBX 14 17 0 0
BITMAP
201C
F87C
78FC
78FC
78FC
7DE0
3DE0
3DE0
3DC0
1FC0
1FC0
1FC0
0F80
0F80
0F80
0F00
0300
ENDCHAR
STARTCHAR 0476
ENCODING 1142
SWIDTH 560 0
DWIDTH 14 0
BBX 14 22 0 0
BITMAP
7700
7780
3B80
19C0
0000
201C
F87C
78FC
78FC
78FC
7DE0
3DE0
3DE0
3DC0
1FC0
1FC0
1FC0
0F80
0F80
0F80
0F00
0300
ENDCHAR
STARTCHAR 0477
ENCODING 1143
SWIDTH 560 0
DWIDTH 14 0
BBX 14 22 0 0
BITMAP
7700
7780
3B80
19C0
0000
201C
F87C
78FC
78FC
78FC
7DE0
3DE0
3DE0
3DC0
1FC0
1FC0
1FC0
0F80
0F80
0F80
0F00
0300
ENDCHAR
STARTCHAR 0480
ENCODING 1152
SWIDTH 480 0
DWIDTH 12 0
BBX 12 20 0 -2
BITMAP
0FF0
3FF0
3FF0
7FF0
7E00
F800
F800
F000
F000
F000
F000
F800
7C30
7FF0
3FF0
1FF0
0FF0
00F0
00F0
00F0
ENDCHAR
STARTCHAR 0481
ENCODING 1153
SWIDTH 480 0
DWIDTH 12 0
BBX 12 20 0 -2
BITMAP
0FF0
3FF0
3FF0
7FF0
7E00
F800
F800
F000
F000
F000
F000
F800
7C30
7FF0
3FF0
1FF0
0FF0
00F0
00F0
00F0
ENDCHAR
STARTCHAR 048C
ENCODING 1164
SWIDTH 520 0
DWIDTH 13 0
BBX 13 17 0 0
BITMAP
3C00
7F00
FF00
FF00
FE00
3F00
3FE0
3FF0
3FF0
3C78
3C38
3E38
3E78
3E78
3FF8
1FF0
1FE0
ENDCHAR
STARTCHAR 048D
ENCODING 1165
SWIDTH 520 0
DWIDTH 13 0
BBX 13 17 0 0
BITMAP
3C00
7F00
FF00
FF00
FE00
3F00
3FE0
3FF0
3FF0
3C78
3C38
3E38
3E78
3E78
3FF8
1FF0
1FE0
ENDCHAR
STARTCHAR 0490
ENCODING 1168
SWIDTH 480 0
DWIDTH 12 0
BBX 12 21 0 0
BITMAP
00F0
00F0
00F0
00F0
7FF0
FFF0
FFF0
FE00
F800
F800
F800
7800
F800
F800
F800
F800
F800
7800
7800
7800
7000
ENDCHAR
STARTCHAR 0491
ENCODING 1169
SWIDTH 480 0
DWIDTH 12 0
BBX 12 21 0 0
BITMAP
00F0
00F0
00F0
00F0
7FF0
FFF0
FFF0
FE00
F800
F800
F800
7800
F800
F800
F800
F800
F800
7800
7800
7800
7000
ENDCHAR
STARTCHAR 0492
ENCODING 1170
SWIDTH 520 0
DWIDTH 13 0
BBX 13 18 0 0
BITMAP
0060
3FF8
3FF8
3FF8
3F00
3C00
3C00
3C00
3C00
FFC0
FFC0
FFC0
3C00
3C00
3C00
3C00
3E00
3E00
ENDCHAR
STARTCHAR 0493
ENCODING 1171
SWIDTH 520 0
DWIDTH 13 0
BBX 13 18 0 0
BITMAP
0060
3FF8
3FF8
3FF8
3F00
3C00
3C00
3C00
3C00
FFC0
FFC0
FFC0
3C00
3C00
3C00
3C00
3E00
3E00
ENDCHAR
STARTCHAR 0496
ENCODING 1174
SWIDTH 680 0
DWIDTH 17 0
BBX 17 20 0 -3
BITMAP
018700
FBCF00
7BDF00
7FDE00
7FDE00
3FFE00
3FFC00
1FFC00
1FFC00
1FFC00
3FFE00
3FFF00
7DFF00
7DEF80
7DEF80
79E780
30C380
000380
000380
000380
ENDCHAR
STARTCHAR 0497
ENCODING 1175
SWIDTH 680 0
DWIDTH 17 0
BBX 17 20 0 -3
BITMAP
018700
FBCF00
7BDF00
7FDE00
7FDE00
3FFE00
3FFC00
1FFC00
1FFC00
1FFC00
3FFE00
3FFF00
7DFF00
7DEF80
7DEF80
79E780
30C380
000380
000380
000380
ENDCHAR
STARTCHAR 0498
ENCODING 1176
SWIDTH 480 0
DWIDTH 12 0
BBX 12 21 0 -4
BITMAP
7F80
7FC0
FFE0
F3E0
01E0
01E0
03E0
1FC0
1FC0
1FE0
01F0
01F0
7FF0
3FF0
3FE0
3FC0
1F80
0380
01C0
0FC0
0FC0
ENDCHAR
STARTCHAR 0499
ENCODING 1177
SWIDTH 480 0
DWIDTH 12 0
BBX 12 21 0 -4
BITMAP
7F80
7FC0
FFE0
F3E0
01E0
01E0
03E0
1FC0
1FC0
1FE0
01F0
01F0
7FF0
3FF0
3FE0
3FC0
1F80
0380
01C0
0FC0
0FC0
ENDCHAR
STARTCHAR 049A
ENCODING 1178
SWIDTH 520 0
DWIDTH 13 0
BBX 14 20 0 -3
BITMAP
FE60
7E78
7EF0
7FF0
7FE0
7FC0
7FC0
7F80
FF80
FF80
FFC0
FFE0
FFE0
FEFC
FEFC
7E78
7C78
0038
0038
0038
ENDCHAR
STARTCHAR 049B
ENCODING 1179
SWIDTH 520 0
DWIDTH 13 0
BBX 14 20 0 -3
BITMAP
FE60
7E78
7EF0
7FF0
7FE0
7FC0
7FC0
7F80
FF80
FF80
FFC0
FFE0
FFE0
FEFC
FEFC
7E78
7C78
0038
0038
0038
ENDCHAR
STARTCHAR 04A0
ENCODING 1184
SWIDTH 600 0
DWIDTH 15 0
BBX 15 17 0 0
BITMAP
FF88
FF9E
FFBE
FFBC
7FF8
1FF8
1FF0
1FF0
3FE0
3FE0
3FF0
3FF8
3FFC
3FBC
3F9E
3F9E
1F88
ENDCHAR
STARTCHAR 04A1
ENCODING 1185
SWIDTH 600 0
DWIDTH 15 0
BBX 15 17 0 0
BITMAP
FF88
FF9E
FFBE
FFBC
7FF8
1FF8
1FF0
1FF0
3FE0
3FE0
3FF0
3FF8
3FFC
3FBC
3F9E
3F9E
1F88
ENDCHAR
STARTCHAR 04A2
ENCODING 1186
SWIDTH 560 0
DWIDTH 14 0
BBX 13 20 1 -3
BITMAP
3C00
7CF0
7CF0
7CF0
7CF0
7CF0
7FF0
7FF0
FFF0
FFF0
FFF0
F9F0
F9F0
F9F8
F9F8
F9F8
3178
0070
0070
0070
ENDCHAR
STARTCHAR 04A3
ENCODING 1187
SWIDTH 560 0
DWIDTH 14 0
BBX 13 20 1 -3
BITMAP
3C00
7CF0
7CF0
7CF0
7CF0
7CF0
7FF0
7FF0
FFF0
FFF0
FFF0
F9F0
F9F0
F9F8
F9F8
F9F8
3178
0070
0070
0070
ENDCHAR
STARTCHAR 04A4
ENCODING 1188
SWIDTH 640 0
DWIDTH 16 0
BBX 15 17 1 0
BITMAP
3C00
7CFE
7CFE
7CFE
7CFE
7CF0
7FF0
7FF0
FFF0
FFF0
FFF0
FDF0
FDF0
F9F0
F9F0
F9F0
3900
ENDCHAR
STARTCHAR 04A5
ENCODING 1189
SWIDTH 640 0
DWIDTH 16 0
BBX 15 17 1 0
BITMAP
3C00
7CFE
7CFE
7CFE
7CFE
7CF0
7FF0
7FF0
FFF0
FFF0
FFF0
FDF0
FDF0
F9F0
F9F0
F9F0
3900
ENDCHAR
STARTCHAR 04AA
ENCODING 1194
SWIDTH 480 0
DWIDTH 12 0
BBX 12 21 0 -4
BITMAP
07C0
1FE0
3FF0
7FF0
7FF0
7E00
FC00
F800
7800
FC30
7FF0
7FF0
7FF0
3FF0
3FE0
1FC0
0F00
0F00
0380
3F80
1F80
ENDCHAR
STARTCHAR 04AB
ENCODING 1195
SWIDTH 480 0
DWIDTH 12 0
BBX 12 21 0 -4
BITMAP
07C0
1FE0
3FF0
7FF0
7FF0
7E00
FC00
F800
7800
FC30
7FF0
7FF0
7FF0
3FF0
3FE0
1FC0
0F00
0F00
0380
3F80
1F80
ENDCHAR
STARTCHAR 04AC
ENCODING 1196
SWIDTH 560 0
DWIDTH 14 0
BBX 14 20 0 -3
BITMAP
7FF8
7FF8
7FFC
7FFC
FFFC
73C0
0380
0380
0780
0780
0780
0780
0780
07E0
07E0
07E0
03E0
00E0
00E0
01E0
ENDCHAR
STARTCHAR 04AD
ENCODING 1197
SWIDTH 560 0
DWIDTH 14 0
BBX 14 20 0 -3
BITMAP
7FF8
7FF8
7FFC
7FFC
FFFC
73C0
0380
0380
0780
0780
0780
0780
0780
07E0
07E0
07E0
03E0
00E0
00E0
01E0
ENDCHAR
STARTCHAR 04AE
ENCODING 1198
SWIDTH 600 0
DWIDTH 15 0
BBX 14 17 1 0
BITMAP
003C
F078
F078
F8F0
78F0
7DE0
3DE0
3FE0
1FC0
1FC0
0F80
0F80
0780
0780
0780
0780
0780
ENDCHAR
STARTCHAR 04AF
ENCODING 1199
SWIDTH 600 0
DWIDTH 15 0
BBX 14 17 1 0
BITMAP
003C
F078
F078
F8F0
78F0
7DE0
3DE0
3FE0
1FC0
1FC0
0F80
0F80
0780
0780
0780
0780
0780
ENDCHAR
STARTCHAR 04B0
ENCODING 1200
SWIDTH 600 0
DWIDTH 15 0
BBX 14 17 1 0
BITMAP
003C
F078
F078
F8F0
78F0
7DE0
3DE0
3FE0
1FC0
1FC0
0F80
1FC0
7FF0
7FF0
7FD0
0780
0780
ENDCHAR
STARTCHAR 04B1
ENCODING 1201
SWIDTH 600 0
DWIDTH 15 0
BBX 14 17 1 0
BITMAP
003C
F078
F078
F8F0
78F0
7DE0
3DE0
3FE0
1FC0
1FC0
0F80
1FC0
7FF0
7FF0
7FD0
0780
0780
ENDCHAR
STARTCHAR 04B2
ENCODING 1202
SWIDTH 560 0
DWIDTH 14 0
BBX 14 20 0 -3
BITMAP
0038
787C
F878
7CF8
7CF0
3FF0
3FE0
1FE0
0FC0
0FC0
0FC0
1FE0
1FE0
3EFC
3CFC
7C7C
001C
003C
003C
0038
ENDCHAR
STARTCHAR 04B3
ENCODING 1203
SWIDTH 560 0
DWIDTH 14 0
BBX 14 20 0 -3
BITMAP
0038
787C
F878
7CF8
7CF0
3FF0
3FE0
1FE0
0FC0
0FC0
0FC0
1FE0
1FE0
3EFC
3CFC
7C7C
001C
003C
003C
0038
ENDCHAR
STARTCHAR 04B6
ENCODING 1206
SWIDTH 520 0
DWIDTH 13 0
BBX 13 20 0 -3
BITMAP
00E0
F1E0
F1E0
F1E0
F1E0
F9E0
79E0
79E0
7FE0
7FE0
3FE0
1EF0
00F0
00F8
00F8
00F8
00F8
0070
0070
0070
ENDCHAR
STARTCHAR 04B7
ENCODING 1207
SWIDTH 520 0
DWIDTH 13 0
BBX 13 20 0 -3
BITMAP
00E0
F1E0
F1E0
F1E0
F1E0
F9E0
79E0
79E0
7FE0
7FE0
3FE0
1EF0
00F0
00F8
00F8
00F8
00F8
0070
0070
0070
ENDCHAR
STARTCHAR 04B8
ENCODING 1208
SWIDTH 520 0
DWIDTH 13 0
BBX 12 17 0 0
BITMAP
00E0
F9E0
F1E0
F0F0
F8F0
FEF0
7EF0
7EF0
7FF0
7FF0
3FF0
1FF0
06F0
06F0
00F0
00F0
0070
ENDCHAR
STARTCHAR 04B9
ENCODING 1209
SWIDTH 520 0
DWIDTH 13 0
BBX 12 17 0 0
BITMAP
00E0
F9E0
F1E0
F0F0
F8F0
FEF0
7EF0
7EF0
7FF0
7FF0
3FF0
1FF0
06F0
06F0
00F0
00F0
0070
ENDCHAR
STARTCHAR 04BA
ENCODING 1210
SWIDTH 520 0
DWIDTH 13 0
BBX 12 17 1 0
BITMAP
6000
F000
F000
F000
F000
F780
FFC0
FFE0
FFE0
F9E0
F1F0
F1F0
71F0
70F0
78F0
78F0
7880
ENDCHAR
STARTCHAR 04BB
ENCODING 1211
SWIDTH 520 0
DWIDTH 13 0
BBX 12 17 1 0
BITMAP
6000
F000
F000
F000
F000
F780
FFC0
FFE0
FFE0
F9E0
F1F0
F1F0
71F0
70F0
78F0
78F0
7880
ENDCHAR
STARTCHAR 04BC
ENCODING 1212
SWIDTH 560 0
DWIDTH 14 0
BBX 14 17 0 0
BITMAP
07E0
1FF0
1FF8
3FF8
3FF8
3E78
3E78
FFFC
FFFC
FFFC
1C00
1C00
0F00
0FFC
07FC
07F8
01E0
ENDCHAR
STARTCHAR 04BD
ENCODING 1213
SWIDTH 560 0
DWIDTH 14 0
BBX 14 17 0 0
BITMAP
07E0
1FF0
1FF8
3FF8
3FF8
3E78
3E78
FFFC
FFFC
FFFC
1C00
1C00
0F00
0FFC
07FC
07F8
01E0
ENDCHAR
STARTCHAR 04BE
ENCODING 1214
SWIDTH 560 0
DWIDTH 14 0
BBX 14 20 0 -3
BITMAP
07E0
1FF0
1FF8
3FF8
3FF8
3E78
3E78
FFFC
FFFC
FFFC
1C00
1C00
0F00
0FFC
07FC
07F8
03E0
03C0
03C0
03C0
ENDCHAR
STARTCHAR 04BF
ENCODING 1215
SWIDTH 560 0
DWIDTH 14 0
BBX 14 20 0 -3
BITMAP
07E0
1FF0
1FF8
3FF8
3FF8
3E78
3E78
FFFC
FFFC
FFFC
1C00
1C00
0F00
0FFC
07FC
07F8
03E0
03C0
03C0
03C0
ENDCHAR
STARTCHAR 04C0
ENCODING 1216
SWIDTH 160 0
DWIDTH 4 0
BBX 4 17 0 0
BITMAP
70
70
F0
F0
70
70
70
70
70
70
70
70
70
70
70
70
70
ENDCHAR
STARTCHAR 04C1
ENCODING 1217
SWIDTH 680 0
DWIDTH 17 0
BBX 17 22 0 0
BITMAP
006000
0C6000
0FE000
07C000
000000
008300
FBCF00
7FCF00
7DCF00
7DFF00
3DFE00
3FFE00
1FFC00
1FFC00
1FFE00
3FFF00
3FFF80
7DEF80
7DEF80
7DE780
7CE700
384000
ENDCHAR
STARTCHAR 04C2
ENCODING 1218
SWIDTH 680 0
DWIDTH 17 0
BBX 17 22 0 0
BITMAP
006000
0C6000
0FE000
07C000
000000
008300
FBCF00
7FCF00
7DCF00
7DFF00
3DFE00
3FFE00
1FFC00
1FFC00
1FFE00
3FFF00
3FFF80
7DEF80
7DEF80
7DE780
7CE700
384000
ENDCHAR
STARTCHAR 04CB
ENCODING 1227
SWIDTH 520 0
DWIDTH 13 0
BBX 12 20 0 -3
BITMAP
00E0
F9E0
F1E0
F8F0
F8F0
F8F0
78F0
78F0
7FF0
7FF0
3FF0
1FF0
00F0
01F0
01F0
01F0
01F0
01C0
01C0
01C0
ENDCHAR
STARTCHAR 04CC
ENCODING 1228
SWIDTH 520 0
DWIDTH 13 0
BBX 12 20 0 -3
BITMAP
00E0
F9E0
F1E0
F8F0
F8F0
F8F0
78F0
78F0
7FF0
7FF0
3FF0
1FF0
00F0
01F0
01F0
01F0
01F0
01C0
01C0
01C0
ENDCHAR
STARTCHAR 04CF
ENCODING 1231
SWIDTH 160 0
DWIDTH 4 0
BBX 4 17 0 0
BITMAP
70
70
F0
F0
70
70
70
70
70
70
70
70
70
70
70
70
70
ENDCHAR
STARTCHAR 04D0
ENCODING 1232
SWIDTH 600 0
DWIDTH 15 0
BBX 15 22 0 -1
BITMAP
0670
07E0
03C0
0000
01C0
01C0
01C0
03E0
03E0
07E0
07E0
07F0
0FF0
0EF0
1CF8
19F8
3FF8
3FFC
7CFC
787E
787E
C000
ENDCHAR
STARTCHAR 04D1
ENCODING 1233
SWIDTH 600 0
DWIDTH 15 0
BBX 15 22 0 -1
BITMAP
0670
07E0
03C0
0000
01C0
01C0
01C0
03E0
03E0
07E0
07E0
07F0
0FF0
0EF0
1CF8
19F8
3FF8
3FFC
7CFC
787E
787E
C000
ENDCHAR
STARTCHAR 04D2
ENCODING 1234
SWIDTH 600 0
DWIDTH 15 0
BBX 15 21 0 -1
BITMAP
0770
0770
0000
01C0
01C0
01C0
03E0
03E0
07E0
07E0
07F0
0FF0
0EF0
1CF8
19F8
3FF8
3FFC
7CFC
787E
787E
C000
ENDCHAR
STARTCHAR 04D3
ENCODING 1235
SWIDTH 600 0
DWIDTH 15 0
BBX 15 21 0 -1
BITMAP
0770
0770
0000
01C0
01C0
01C0
03E0
03E0
07E0
07E0
07F0
0FF0
0EF0
1CF8
19F8
3FF8
3FFC
7CFC
787E
787E
C000
ENDCHAR
STARTCHAR 04D4
ENCODING 1236
SWIDTH 720 0
DWIDTH 18 0
BBX 17 17 1 0
BITMAP
03FE00
03FC00
07FC00
07FC00
07FC00
0FE000
0FE000
0FFC00
1FFC00
19F000
39F100
3BFF00
7FFF80
7DFF80
F9FF80
F0FF00
F0F000
ENDCHAR
STARTCHAR 04D5
ENCODING 1237
SWIDTH 720 0
DWIDTH 18 0
BBX 17 17 1 0
BITMAP
03FE00
03FC00
07FC00
07FC00
07FC00
0FE000
0FE000
0FFC00
1FFC00
19F000
39F100
3BFF00
7FFF80
7DFF80
F9FF80
F0FF00
F0F000
ENDCHAR
STARTCHAR 04D6
ENCODING 1238
SWIDTH 480 0
DWIDTH 12 0
BBX 12 22 0 0
BITMAP
0300
6F00
7E00
3C00
0000
7FC0
FF80
7F80
7F80
7F80
7C00
3C00
3F80
3F80
3E00
3E20
3FE0
1FE0
1FF0
1FF0
1FE0
1E00
ENDCHAR
STARTCHAR 04D7
ENCODING 1239
SWIDTH 480 0
DWIDTH 12 0
BBX 12 22 0 0
BITMAP
0300
6F00
7E00
3C00
0000
7FC0
FF80
7F80
7F80
7F80
7C00
3C00
3F80
3F80
3E00
3E20
3FE0
1FE0
1FF0
1FF0
1FE0
1E00
ENDCHAR
STARTCHAR 04D8
ENCODING 1240
SWIDTH 480 0
DWIDTH 12 0
BBX 11 17 1 0
BITMAP
7E00
FF00
FF80
FF80
03C0
01C0
0FC0
FFC0
FFE0
FFE0
F1E0
F3E0
FFE0
FFE0
7FC0
3F80
0F00
ENDCHAR
STARTCHAR 04D9
ENCODING 1241
SWIDTH 480 0
DWIDTH 12 0
BBX 11 17 1 0
BITMAP
7E00
FF00
FF80
FF80
03C0
01C0
0FC0
FFC0
FFE0
FFE0
F1E0
F3E0
FFE0
FFE0
7FC0
3F80
0F00
ENDCHAR
STARTCHAR 04DA
ENCODING 1242
SWIDTH 480 0
DWIDTH 12 0
BBX 11 20 1 0
BITMAP
6600
6600
0000
7E00
FF00
FF80
FF80
03C0
01C0
0FC0
FFC0
FFE0
FFE0
F1E0
F3E0
FFE0
FFE0
7FC0
3F80
0F00
ENDCHAR
STARTCHAR 04DB
ENCODING 1243
SWIDTH 480 0
DWIDTH 12 0
BBX 11 20 1 0
BITMAP
6600
6600
0000
7E00
FF00
FF80
FF80
03C0
01C0
0FC0
FFC0
FFE0
FFE0
F1E0
F3E0
FFE0
FFE0
7FC0
3F80
0F00
ENDCHAR
STARTCHAR 04DC
ENCODING 1244
SWIDTH 680 0
DWIDTH 17 0
BBX 17 20 0 0
BITMAP
0E6000
066000
000000
008300
FBCF00
7FCF00
7DCF00
7DFF00
3DFE00
3FFE00
1FFC00
1FFC00
1FFE00
3FFF00
3FFF80
7DEF80
7DEF80
7DE780
7CE700
384000
ENDCHAR
STARTCHAR 04DD
ENCODING 1245
SWIDTH 680 0
DWIDTH 17 0
BBX 17 20 0 0
BITMAP
0E6000
066000
000000
008300
FBCF00
7FCF00
7DCF00
7DFF00
3DFE00
3FFE00
1FFC00
1FFC00
1FFE00
3FFF00
3FFF80
7DEF80
7DEF80
7DE780
7CE700
384000
ENDCHAR
STARTCHAR 04DE
ENCODING 1246
SWIDTH 480 0
DWIDTH 12 0
BBX 12 20 0 0
BITMAP
3380
3300
0000
7F80
7FC0
FFE0
F3E0
01E0
01E0
03E0
1FC0
1FC0
1FE0
01F0
01F0
7FF0
3FF0
3FE0
3FC0
1F80
ENDCHAR
STARTCHAR 04DF
ENCODING 1247
SWIDTH 480 0
DWIDTH 12 0
BBX 12 20 0 0
BITMAP
3380
3300
0000
7F80
7FC0
FFE0
F3E0
01E0
01E0
03E0
1FC0
1FC0
1FE0
01F0
01F0
7FF0
3FF0
3FE0
3FC0
1F80
ENDCHAR
STARTCHAR 04E0
ENCODING 1248
SWIDTH 480 0
DWIDTH 12 0
BBX 12 17 0 0
BITMAP
7FC0
7FE0
3FC0
01C0
0780
0F00
1FC0
3FE0
3FE0
00F0
0070
0070
F0F0
FFF0
FFE0
7FE0
1F80
ENDCHAR
STARTCHAR 04E1
ENCODING 1249
SWIDTH 480 0
DWIDTH 12 0
BBX 12 17 0 0
BITMAP
7FC0
7FE0
3FC0
01C0
0780
0F00
1FC0
3FE0
3FE0
00F0
0070
0070
F0F0
FFF0
FFE0
7FE0
1F80
ENDCHAR
STARTCHAR 04E2
ENCODING 1250
SWIDTH 560 0
DWIDTH 14 0
BBX 14 20 0 0
BITMAP
3FC0
3FC0
0000
7070
F9F0
79F0
79F0
79F8
79F8
79F8
7BF8
7BF8
7FF8
7F78
7F78
7E78
7E78
3E78
3E7C
183C
ENDCHAR
STARTCHAR 04E3
ENCODING 1251
SWIDTH 560 0
DWIDTH 14 0
BBX 14 20 0 0
BITMAP
3FC0
3FC0
0000
7070
F9F0
79F0
79F0
79F8
79F8
79F8
7BF8
7BF8
7FF8
7F78
7F78
7E78
7E78
3E78
3E7C
183C
ENDCHAR
STARTCHAR 04E4
ENCODING 1252
SWIDTH 560 0
DWIDTH 14 0
BBX 14 20 0 0
BITMAP
1980
19C0
0000
7070
F9F0
79F0
79F0
79F8
79F8
79F8
7BF8
7BF8
7FF8
7F78
7F78
7E78
7E78
3E78
3E7C
183C
ENDCHAR
STARTCHAR 04E5
ENCODING 1253
SWIDTH 560 0
DWIDTH 14 0
BBX 14 20 0 0
BITMAP
1980
19C0
0000
7070
F9F0
79F0
79F0
79F8
79F8
79F8
7BF8
7BF8
7FF8
7F78
7F78
7E78
7E78
3E78
3E7C
183C
ENDCHAR
STARTCHAR 04E6
ENCODING 1254
SWIDTH 520 0
DWIDTH 13 0
BBX 13 20 0 0
BITMAP
3300
7300
0000
0E00
1F80
3FC0
3FE0
7FF0
7FF0
7CF8
F8F8
F8F8
F8F8
7FF8
7FF8
7FF8
7FF0
3FF0
1FE0
07C0
ENDCHAR
STARTCHAR 04E7
ENCODING 1255
SWIDTH 520 0
DWIDTH 13 0
BBX 13 20 0 0
BITMAP
3300
7300
0000
0E00
1F80
3FC0
3FE0
7FF0
7FF0
7CF8
F8F8
F8F8
F8F8
7FF8
7FF8
7FF8
7FF0
3FF0
1FE0
07C0
ENDCHAR
STARTCHAR 04E8
ENCODING 1256
SWIDTH 520 0
DWIDTH 13 0
BBX 13 17 0 0
BITMAP
1F80
3FE0
7FF0
7FF0
7FF0
7FF8
F8F8
FFF8
FFF8
7FF8
78F8
7FF8
3FF0
3FF0
1FF0
0FE0
07C0
ENDCHAR
STARTCHAR 04E9
ENCODING 1257
SWIDTH 520 0
DWIDTH 13 0
BBX 13 17 0 0
BITMAP
1F80
3FE0
7FF0
7FF0
7FF0
7FF8
F8F8
FFF8
FFF8
7FF8
78F8
7FF8
3FF0
3FF0
1FF0
0FE0
07C0
ENDCHAR
STARTCHAR 04EA
ENCODING 1258
SWIDTH 520 0
DWIDTH 13 0
BBX 13 20 0 0
BITMAP
1980
1980
0000
1F80
3FE0
7FF0
7FF0
7FF0
7FF8
F8F8
FFF8
FFF8
7FF8
78F8
7FF8
3FF0
3FF0
1FF0
0FE0
07C0
ENDCHAR
STARTCHAR 04EB
ENCODING 1259
SWIDTH 520 0
DWIDTH 13 0
BBX 13 20 0 0
BITMAP
1980
1980
0000
1F80
3FE0
7FF0
7FF0
7FF0
7FF8
F8F8
FFF8
FFF8
7FF8
78F8
7FF8
3FF0
3FF0
1FF0
0FE0
07C0
ENDCHAR
STARTCHAR 04EC
ENCODING 1260
SWIDTH 480 0
DWIDTH 12 0
BBX 12 20 0 0
BITMAP
3300
7300
0000
1F00
7FC0
7FC0
7FE0
7FE0
7FF0
40F0
1FF0
1FF0
1FF0
18F0
01F0
7FF0
FFE0
FFC0
7F80
1C00
ENDCHAR
STARTCHAR 04ED
ENCODING 1261
SWIDTH 480 0
DWIDTH 12 0
BBX 12 20 0 0
BITMAP
3300
7300
0000
1F00
7FC0
7FC0
7FE0
7FE0
7FF0
40F0
1FF0
1FF0
1FF0
18F0
01F0
7FF0
FFE0
FFC0
7F80
1C00
ENDCHAR
STARTCHAR 04EE
ENCODING 1262
SWIDTH 480 0
DWIDTH 12 0
BBX 11 20 1 0
BITMAP
3F80
7F80
0000
F3E0
F3E0
FBE0
FBC0
7BC0
7FC0
3FC0
3FC0
1F80
1F80
0F80
0F80
FF80
FF80
FF00
FE00
F000
ENDCHAR
STARTCHAR 04EF
ENCODING 1263
SWIDTH 480 0
DWIDTH 12 0
BBX 11 20 1 0
BITMAP
3F80
7F80
0000
F3E0
F3E0
FBE0
FBC0
7BC0
7FC0
3FC0
3FC0
1F80
1F80
0F80
0F80
FF80
FF80
FF00
FE00
F000
ENDCHAR
STARTCHAR 04F0
ENCODING 1264
SWIDTH 480 0
DWIDTH 12 0
BBX 11 20 1 0
BITMAP
3380
3300
0000
F3E0
F3E0
FBE0
FBC0
7BC0
7FC0
3FC0
3FC0
1F80
1F80
0F80
0F80
FF80
FF80
FF00
FE00
F000
ENDCHAR
STARTCHAR 04F1
ENCODING 1265
SWIDTH 480 0
DWIDTH 12 0
BBX 11 20 1 0
BITMAP
3380
3300
0000
F3E0
F3E0
FBE0
FBC0
7BC0
7FC0
3FC0
3FC0
1F80
1F80
0F80
0F80
FF80
FF80
FF00
FE00
F000
ENDCHAR
STARTCHAR 04F2
ENCODING 1266
SWIDTH 480 0
DWIDTH 12 0
BBX 12 22 1 0
BITMAP
0EF0
1EE0
1DC0
3980
0000
F3E0
F3E0
FBE0
FBC0
7BC0
7FC0
3FC0
3FC0
1F80
1F80
0F80
0F80
FF80
FF80
FF00
FE00
F000
ENDCHAR
STARTCHAR 04F3
ENCODING 1267
SWIDTH 480 0
DWIDTH 12 0
BBX 12 22 1 0
BITMAP
0EF0
1EE0
1DC0
3980
0000
F3E0
F3E0
FBE0
FBC0
7BC0
7FC0
3FC0
3FC0
1F80
1F80
0F80
0F80
FF80
FF80
FF00
FE00
F000
ENDCHAR
STARTCHAR 04F4
ENCODING 1268
SWIDTH 520 0
DWIDTH 13 0
BBX 12 20 0 0
BITMAP
1980
3980
0000
00E0
F9E0
F1E0
F8F0
F8F0
F8F0
78F0
78F0
7FF0
7FF0
3FF0
1FF0
00F0
00F0
00F0
00F0
0070
ENDCHAR
STARTCHAR 04F5
ENCODING 1269
SWIDTH 520 0
DWIDTH 13 0
BBX 12 20 0 0
BITMAP
1980
3980
0000
00E0
F9E0
F1E0
F8F0
F8F0
F8F0
78F0
78F0
7FF0
7FF0
3FF0
1FF0
00F0
00F0
00F0
00F0
0070
ENDCHAR
STARTCHAR 04F6
ENCODING 1270
SWIDTH 480 0
DWIDTH 12 0
BBX 12 21 0 -3
BITMAP
0080
7FF0
FFF0
FFF0
FE00
F800
F800
F800
7800
F800
F800
F800
F800
F800
7E00
7E00
7E00
7E00
1E00
1E00
1C00
ENDCHAR
STARTCHAR 04F7
ENCODING 1271
SWIDTH 480 0
DWIDTH 12 0
BBX 12 21 0 -3
BITMAP
0080
7FF0
FFF0
FFF0
FE00
F800
F800
F800
7800
F800
F800
F800
F800
F800
7E00
7E00
7E00
7E00
1E00
1E00
1C00
ENDCHAR
STARTCHAR 04F8
ENCODING 1272
SWIDTH 640 0
DWIDTH 16 0
BBX 16 20 0 0
BITMAP
0330
0730
0000
F807
F807
F807
7807
7807
7E07
7FC7
7FE7
7FE7
78E7
78F7
78F7
78F7
7DF7
7FE7
7FC7
0001
ENDCHAR
STARTCHAR 04F9
ENCODING 1273
SWIDTH 640 0
DWIDTH 16 0
BBX 16 20 0 0
BITMAP
0330
0730
0000
F807
F807
F807
7807
7807
7E07
7FC7
7FE7
7FE7
78E7
78F7
78F7
78F7
7DF7
7FE7
7FC7
0001
ENDCHAR
STARTCHAR 0500
ENCODING 1280
SWIDTH 480 0
DWIDTH 12 0
BBX 12 17 0 0
BITMAP
00F0
00F0
01F0
01F0
01F0
03F0
1FF0
3FF0
7FF0
79E0
71E0
71E0
F1E0
F9E0
7FE0
3FE0
3FE0
ENDCHAR
STARTCHAR 0501
ENCODING 1281
SWIDTH 480 0
DWIDTH 12 0
BBX 12 17 0 0
BITMAP
00F0
00F0
01F0
01F0
01F0
03F0
1FF0
3FF0
7FF0
79E0
71E0
71E0
F1E0
F9E0
7FE0
3FE0
3FE0
ENDCHAR
STARTCHAR 0510
ENCODING 1296
SWIDTH 480 0
DWIDTH 12 0
BBX 12 17 0 0
BITMAP
1FE0
3FF0
3FF0
7E70
7C00
7C00
3C00
3F80
3F80
7F80
7800
F800
FFE0
7FE0
7FE0
3FC0
1FC0
ENDCHAR
STARTCHAR 0511
ENCODING 1297
SWIDTH 480 0
DWIDTH 12 0
BBX 12 17 0 0
BITMAP
1FE0
3FF0
3FF0
7E70
7C00
7C00
3C00
3F80
3F80
7F80
7800
F800
FFE0
7FE0
7FE0
3FC0
1FC0
ENDCHAR
STARTCHAR 0524
ENCODING 1316
SWIDTH 520 0
DWIDTH 13 0
BBX 14 20 0 -3
BITMAP
7FF8
FFF8
FFF8
FFF8
F878
7878
78F8
78F8
78F8
78F8
78F8
78F8
78F8
787C
787C
7878
7878
0038
0038
0038
ENDCHAR
STARTCHAR 0525
ENCODING 1317
SWIDTH 520 0
DWIDTH 13 0
BBX 14 20 0 -3
BITMAP
7FF8
FFF8
FFF8
FFF8
F878
7878
78F8
78F8
78F8
78F8
78F8
78F8
78F8
787C
787C
7878
7878
0038
0038
0038
ENDCHAR
STARTCHAR 0526
ENCODING 1318
SWIDTH 520 0
DWIDTH 13 0
BBX 12 20 1 -3
BITMAP
6000
F000
F000
F000
F000
FF00
FFC0
FFC0
FFE0
F1E0
F1E0
F1E0
F1E0
F1F0
71F0
79F0
79F0
00E0
00E0
00E0
ENDCHAR
STARTCHAR 0527
ENCODING 1319
SWIDTH 520 0
DWIDTH 13 0
BBX 12 20 1 -3
BITMAP
6000
F000
F000
F000
F000
FF00
FFC0
FFC0
FFE0
F1E0
F1E0
F1E0
F1E0
F1F0
71F0
79F0
79F0
00E0
00E0
00E0
ENDCHAR
STARTCHAR 052E
ENCODING 1326
SWIDTH 560 0
DWIDTH 14 0
BBX 15 20 0 -3
BITMAP
0C00
1E00
1E00
1F00
1F80
3F80
3FC0
3FC0
3FE0
3DE0
7DF0
7DF0
7DF8
78FE
78FE
F83C
601C
001C
001C
001C
ENDCHAR
STARTCHAR 052F
ENCODING 1327
SWIDTH 560 0
DWIDTH 14 0
BBX 15 20 0 -3
BITMAP
0C00
1E00
1E00
1F00
1F80
3F80
3FC0
3FC0
3FE0
3DE0
7DF0
7DF0
7DF8
78FE
78FE
F83C
601C
001C
001C
001C
ENDCHAR
STARTCHAR 058F
ENCODING 1423
SWIDTH 520 0
DWIDTH 13 0
BBX 13 17 0 1
BITMAP
1F00
7F80
7FC0
7BC0
71E0
F1E0
F1E0
F7F8
0FF8
0FE0
01E0
01F8
0FF8
0FF8
01E0
01E0
01E0
ENDCHAR
STARTCHAR 1E02
ENCODING 7682
SWIDTH 520 0
DWIDTH 13 0
BBX 13 20 0 0
BITMAP
3800
3800
0000
7F00
7F80
FFC0
7FC0
79E0
79C0
79C0
7F80
7FE0
3FF0
3CF0
3CF8
3CF8
3FF0
3FF0
3FE0
1E00
ENDCHAR
STARTCHAR 1E03
ENCODING 7683
SWIDTH 520 0
DWIDTH 13 0
BBX 13 20 0 0
BITMAP
3800
3800
0000
7F00
7F80
FFC0
7FC0
79E0
79C0
79C0
7F80
7FE0
3FF0
3CF0
3CF8
3CF8
3FF0
3FF0
3FE0
1E00
ENDCHAR
STARTCHAR 1E06
ENCODING 7686
SWIDTH 520 0
DWIDTH 13 0
BBX 13 20 0 -3
BITMAP
7F00
7F80
FFC0
7FC0
79E0
79C0
79C0
7F80
7FE0
3FF0
3CF0
3CF8
3CF8
3FF0
3FF0
3FE0
1E00
0000
1FE0
1FE0
ENDCHAR
STARTCHAR 1E07
ENCODING 7687
SWIDTH 520 0
DWIDTH 13 0
BBX 13 20 0 -3
BITMAP
7F00
7F80
FFC0
7FC0
79E0
79C0
79C0
7F80
7FE0
3FF0
3CF0
3CF8
3CF8
3FF0
3FF0
3FE0
1E00
0000
1FE0
1FE0
ENDCHAR
STARTCHAR 1E08
ENCODING 7688
SWIDTH 480 0
DWIDTH 12 0
BBX 12 26 0 -4
BITMAP
00E0
00E0
01C0
0180
0000
07C0
1FE0
3FF0
7FF0
7FF0
7E00
FC00
F800
7800
FC30
7FF0
7FF0
7FF0
3FF0
3FE0
1FC0
0F00
0F00
0380
3F80
1F80
ENDCHAR
STARTCHAR 1E09
ENCODING 7689
SWIDTH 480 0
DWIDTH 12 0
BBX 12 26 0 -4
BITMAP
00E0
00E0
01C0
0180
0000
07C0
1FE0
3FF0
7FF0
7FF0
7E00
FC00
F800
7800
FC30
7FF0
7FF0
7FF0
3FF0
3FE0
1FC0
0F00
0F00
0380
3F80
1F80
ENDCHAR
STARTCHAR 1E0A
ENCODING 7690
SWIDTH 440 0
DWIDTH 11 0
BBX 11 20 0 0
BITMAP
3000
3000
0000
7C00
FF00
FF80
FFC0
FFC0
78E0
78E0
78E0
79E0
79C0
7FC0
7FC0
3F80
3F00
3E00
3C00
1000
ENDCHAR
STARTCHAR 1E0B
ENCODING 7691
SWIDTH 440 0
DWIDTH 11 0
BBX 11 20 0 0
BITMAP
3000
3000
0000
7C00
FF00
FF80
FFC0
FFC0
78E0
78E0
78E0
79E0
79C0
7FC0
7FC0
3F80
3F00
3E00
3C00
1000
ENDCHAR
STARTCHAR 1E0C
ENCODING 7692
SWIDTH 440 0
DWIDTH 11 0
BBX 11 21 0 -4
BITMAP
7C00
FF00
FF80
FFC0
FFC0
78E0
78E0
78E0
79E0
79C0
7FC0
7FC0
3F80
3F00
3E00
3C00
1000
0000
0C00
0C00
0C00
ENDCHAR
STARTCHAR 1E0D
ENCODING 7693
SWIDTH 440 0
DWIDTH 11 0
BBX 11 21 0 -4
BITMAP
7C00
FF00
FF80
FFC0
FFC0
78E0
78E0
78E0
79E0
79C0
7FC0
7FC0
3F80
3F00
3E00
3C00
1000
0000
0C00
0C00
0C00
ENDCHAR
STARTCHAR 1E0E
ENCODING 7694
SWIDTH 440 0
DWIDTH 11 0
BBX 11 20 0 -3
BITMAP
7C00
FF00
FF80
FFC0
FFC0
78E0
78E0
78E0
79E0
79C0
7FC0
7FC0
3F80
3F00
3E00
3C00
1000
0000
1FC0
1FC0
ENDCHAR
STARTCHAR 1E0F
ENCODING 7695
SWIDTH 440 0
DWIDTH 11 0
BBX 11 20 0 -3
BITMAP
7C00
FF00
FF80
FFC0
FFC0
78E0
78E0
78E0
79E0
79C0
7FC0
7FC0
3F80
3F00
3E00
3C00
1000
0000
1FC0
1FC0
ENDCHAR
STARTCHAR 1E10
ENCODING 7696
SWIDTH 440 0
DWIDTH 11 0
BBX 11 21 0 -4
BITMAP
7C00
FF00
FF80
FFC0
FFC0
78E0
78E0
78E0
79E0
79C0
7FC0
7FC0
3F80
3F00
3E00
3E00
1E00
0E00
0780
3B80
3F80
ENDCHAR
STARTCHAR 1E11
ENCODING 7697
SWIDTH 440 0
DWIDTH 11 0
BBX 11 21 0 -4
BITMAP
7C00
FF00
FF80
FFC0
FFC0
78E0
78E0
78E0
79E0
79C0
7FC0
7FC0
3F80
3F00
3E00
3E00
1E00
0E00
0780
3B80
3F80
ENDCHAR
STARTCHAR 1E1C
ENCODING 7708
SWIDTH 480 0
DWIDTH 12 0
BBX 12 26 0 -4
BITMAP
0300
6F00
7E00
3C00
0000
7FC0
FF80
7F80
7F80
7F80
7C00
3C00
3F80
3F80
3E00
3E20
3FE0
1FE0
1FF0
1FF0
1FE0
1F80
0380
01E0
0FE0
07E0
ENDCHAR
STARTCHAR 1E1D
ENCODING 7709
SWIDTH 480 0
DWIDTH 12 0
BBX 12 26 0 -4
BITMAP
0300
6F00
7E00
3C00
0000
7FC0
FF80
7F80
7F80
7F80
7C00
3C00
3F80
3F80
3E00
3E20
3FE0
1FE0
1FF0
1FF0
1FE0
1F80
0380
01E0
0FE0
07E0
ENDCHAR
STARTCHAR 1E1E
ENCODING 7710
SWIDTH 480 0
DWIDTH 12 0
BBX 12 21 0 0
BITMAP
0400
0E00
0E00
0080
7FF0
FFF0
FFF0
FE00
F800
F800
FF00
7F00
FF00
FD00
F800
F800
F800
7800
7800
7800
7000
ENDCHAR
STARTCHAR 1E1F
ENCODING 7711
SWIDTH 480 0
DWIDTH 12 0
BBX 12 21 0 0
BITMAP
0400
0E00
0E00
0080
7FF0
FFF0
FFF0
FE00
F800
F800
FF00
7F00
FF00
FD00
F800
F800
F800
7800
7800
7800
7000
ENDCHAR
STARTCHAR 1E24
ENCODING 7716
SWIDTH 560 0
DWIDTH 14 0
BBX 13 21 1 -4
BITMAP
3C00
7CF8
7CF8
7CF8
7CF0
7CF0
7FF0
7FF0
FFF0
FFF0
FFF0
FDF0
FDF0
F9F0
F9F0
F9F0
3900
0000
0600
0600
0600
ENDCHAR
STARTCHAR 1E25
ENCODING 7717
SWIDTH 560 0
DWIDTH 14 0
BBX 13 21 1 -4
BITMAP
3C00
7CF8
7CF8
7CF8
7CF0
7CF0
7FF0
7FF0
FFF0
FFF0
FFF0
FDF0
FDF0
F9F0
F9F0
F9F0
3900
0000
0600
0600
0600
ENDCHAR
STARTCHAR 1E28
ENCODING 7720
SWIDTH 560 0
DWIDTH 14 0
BBX 14 21 0 -4
BITMAP
1E00
3E7C
3E7C
3E7C
3E78
3E78
3FF8
3FF8
7FF8
7FF8
7FF8
7EF8
7EF8
7CF8
7CF8
7CF8
3C80
3C00
0E00
FE00
7E00
ENDCHAR
STARTCHAR 1E29
ENCODING 7721
SWIDTH 560 0
DWIDTH 14 0
BBX 14 21 0 -4
BITMAP
1E00
3E7C
3E7C
3E7C
3E78
3E78
3FF8
3FF8
7FF8
7FF8
7FF8
7EF8
7EF8
7CF8
7CF8
7CF8
3C80
3C00
0E00
FE00
7E00
ENDCHAR
STARTCHAR 1E2A
ENCODING 7722
SWIDTH 560 0
DWIDTH 14 0
BBX 13 21 1 -4
BITMAP
3C00
7CF8
7CF8
7CF8
7CF0
7CF0
7FF0
7FF0
FFF0
FFF0
FFF0
FDF0
FDF0
F9F0
F9F0
F9F0
3900
30C0
1BC0
1F80
0F00
ENDCHAR
STARTCHAR 1E2B
ENCODING 7723
SWIDTH 560 0
DWIDTH 14 0
BBX 13 21 1 -4
BITMAP
3C00
7CF8
7CF8
7CF8
7CF0
7CF0
7FF0
7FF0
FFF0
FFF0
FFF0
FDF0
FDF0
F9F0
F9F0
F9F0
3900
30C0
1BC0
1F80
0F00
ENDCHAR
STARTCHAR 1E30
ENCODING 7728
SWIDTH 520 0
DWIDTH 13 0
BBX 13 22 0 0
BITMAP
0070
00F0
00E0
01C0
0000
FE20
7E78
7EF8
7EF0
7FE0
7FE0
7FC0
7FC0
FF80
FF80
FFC0
FFE0
FFF0
FEF0
FE78
7E78
7E20
ENDCHAR
STARTCHAR 1E31
ENCODING 7729
SWIDTH 520 0
DWIDTH 13 0
BBX 13 22 0 0
BITMAP
0070
00F0
00E0
01C0
0000
FE20
7E78
7EF8
7EF0
7FE0
7FE0
7FC0
7FC0
FF80
FF80
FFC0
FFE0
FFF0
FEF0
FE78
7E78
7E20
ENDCHAR
STARTCHAR 1E34
ENCODING 7732
SWIDTH 520 0
DWIDTH 13 0
BBX 13 20 0 -3
BITMAP
FE20
7E78
7EF8
7EF0
7FE0
7FE0
7FC0
7FC0
FF80
FF80
FFC0
FFE0
FFF0
FEF0
FE78
7E78
7E20
0000
1FC0
1FC0
ENDCHAR
STARTCHAR 1E35
ENCODING 7733
SWIDTH 520 0
DWIDTH 13 0
BBX 13 20 0 -3
BITMAP
FE20
7E78
7EF8
7EF0
7FE0
7FE0
7FC0
7FC0
FF80
FF80
FFC0
FFE0
FFF0
FEF0
FE78
7E78
7E20
0000
1FC0
1FC0
ENDCHAR
STARTCHAR 1E36
ENCODING 7734
SWIDTH 480 0
DWIDTH 12 0
BBX 11 21 1 -4
BITMAP
1F00
3F00
7F00
7F00
7F00
7E00
7E00
7E00
7E00
7E00
FE00
FC00
FFE0
FFE0
FFE0
FFE0
FF80
0000
0C00
0C00
0C00
ENDCHAR
STARTCHAR 1E37
ENCODING 7735
SWIDTH 480 0
DWIDTH 12 0
BBX 11 21 1 -4
BITMAP
1F00
3F00
7F00
7F00
7F00
7E00
7E00
7E00
7E00
7E00
FE00
FC00
FFE0
FFE0
FFE0
FFE0
FF80
0000
0C00
0C00
0C00
ENDCHAR
STARTCHAR 1E3A
ENCODING 7738
SWIDTH 480 0
DWIDTH 12 0
BBX 11 20 1 -3
BITMAP
1F00
3F00
7F00
7F00
7F00
7E00
7E00
7E00
7E00
7E00
FE00
FC00
FFE0
FFE0
FFE0
FFE0
FF80
0000
3F80
3F80
ENDCHAR
STARTCHAR 1E3B
ENCODING 7739
SWIDTH 480 0
DWIDTH 12 0
BBX 11 20 1 -3
BITMAP
1F00
3F00
7F00
7F00
7F00
7E00
7E00
7E00
7E00
7E00
FE00
FC00
FFE0
FFE0
FFE0
FFE0
FF80
0000
3F80
3F80
ENDCHAR
STARTCHAR 1E3E
ENCODING 7742
SWIDTH 640 0
DWIDTH 16 0
BBX 16 22 0 0
BITMAP
0038
0070
00E0
00E0
0000
100C
181C
181C
3C3C
3E3C
3E7E
3F7E
3FFE
3FFE
7FFE
7EBE
7C3E
7C3E
783F
783F
F83F
F818
ENDCHAR
STARTCHAR 1E3F
ENCODING 7743
SWIDTH 640 0
DWIDTH 16 0
BBX 16 22 0 0
BITMAP
0038
0070
00E0
00E0
0000
100C
181C
181C
3C3C
3E3C
3E7E
3F7E
3FFE
3FFE
7FFE
7EBE
7C3E
7C3E
783F
783F
F83F
F818
ENDCHAR
STARTCHAR 1E40
ENCODING 7744
SWIDTH 640 0
DWIDTH 16 0
BBX 16 20 0 0
BITMAP
01C0
01C0
0000
100C
181C
181C
3C3C
3E3C
3E7E
3F7E
3FFE
3FFE
7FFE
7EBE
7C3E
7C3E
783F
783F
F83F
F818
ENDCHAR
STARTCHAR 1E41
ENCODING 7745
SWIDTH 640 0
DWIDTH 16 0
BBX 16 20 0 0
BITMAP
01C0
01C0
0000
100C
181C
181C
3C3C
3E3C
3E7E
3F7E
3FFE
3FFE
7FFE
7EBE
7C3E
7C3E
783F
783F
F83F
F818
ENDCHAR
STARTCHAR 1E44
ENCODING 7748
SWIDTH 560 0
DWIDTH 14 0
BBX 14 20 0 0
BITMAP
0180
0180
0000
1818
3E7C
3E7C
3E7C
7E78
7F78
7F78
7F78
7F78
7FF8
7FF8
7DF8
7DF8
7DF8
7CF8
7CF8
F060
ENDCHAR
STARTCHAR 1E45
ENCODING 7749
SWIDTH 560 0
DWIDTH 14 0
BBX 14 20 0 0
BITMAP
0180
0180
0000
1818
3E7C
3E7C
3E7C
7E78
7F78
7F78
7F78
7F78
7FF8
7FF8
7DF8
7DF8
7DF8
7CF8
7CF8
F060
ENDCHAR
STARTCHAR 1E48
ENCODING 7752
SWIDTH 560 0
DWIDTH 14 0
BBX 14 20 0 -3
BITMAP
1818
3E7C
3E7C
3E7C
7E78
7F78
7F78
7F78
7F78
7FF8
7FF8
7DF8
7DF8
7DF8
7CF8
7CF8
F060
0000
1FE0
1FE0
ENDCHAR
STARTCHAR 1E49
ENCODING 7753
SWIDTH 560 0
DWIDTH 14 0
BBX 14 20 0 -3
BITMAP
1818
3E7C
3E7C
3E7C
7E78
7F78
7F78
7F78
7F78
7FF8
7FF8
7DF8
7DF8
7DF8
7CF8
7CF8
F060
0000
1FE0
1FE0
ENDCHAR
STARTCHAR 1E54
ENCODING 7764
SWIDTH 480 0
DWIDTH 12 0
BBX 12 22 0 0
BITMAP
0380
0780
0700
0E00
0000
3F00
7FC0
7FE0
7FE0
7CF0
7C70
7CF0
7DF0
7FF0
7FE0
7E00
7E00
FE00
7E00
FE00
FE00
FE00
ENDCHAR
STARTCHAR 1E55
ENCODING 7765
SWIDTH 480 0
DWIDTH 12 0
BBX 12 22 0 0
BITMAP
0380
0780
0700
0E00
0000
3F00
7FC0
7FE0
7FE0
7CF0
7C70
7CF0
7DF0
7FF0
7FE0
7E00
7E00
FE00
7E00
FE00
FE00
FE00
ENDCHAR
STARTCHAR 1E56
ENCODING 7766
SWIDTH 480 0
DWIDTH 12 0
BBX 12 20 0 0
BITMAP
0600
0700
0200
3F00
7FC0
7FE0
7FE0
7CF0
7C70
7CF0
7DF0
7FF0
7FE0
7E00
7E00
FE00
7E00
FE00
FE00
FE00
ENDCHAR
STARTCHAR 1E57
ENCODING 7767
SWIDTH 480 0
DWIDTH 12 0
BBX 12 20 0 0
BITMAP
0600
0700
0200
3F00
7FC0
7FE0
7FE0
7CF0
7C70
7CF0
7DF0
7FF0
7FE0
7E00
7E00
FE00
7E00
FE00
FE00
FE00
ENDCHAR
STARTCHAR 1E5A
ENCODING 7770
SWIDTH 560 0
DWIDTH 14 0
BBX 14 21 0 -4
BITMAP
1F80
FFE0
FFF0
FC70
7C70
7C70
7EF0
7FF0
7FE0
7FC0
7FE0
7EE0
7EF0
7E78
7E78
3F3C
3E3C
0000
0080
01C0
00C0
ENDCHAR
STARTCHAR 1E5B
ENCODING 7771
SWIDTH 560 0
DWIDTH 14 0
BBX 14 21 0 -4
BITMAP
1F80
FFE0
FFF0
FC70
7C70
7C70
7EF0
7FF0
7FE0
7FC0
7FE0
7EE0
7EF0
7E78
7E78
3F3C
3E3C
0000
0080
01C0
00C0
ENDCHAR
STARTCHAR 1E5E
ENCODING 7774
SWIDTH 560 0
DWIDTH 14 0
BBX 14 20 0 -3
BITMAP
1F80
FFE0
FFF0
FC70
7C70
7C70
7EF0
7FF0
7FE0
7FC0
7FE0
7EE0
7EF0
7E78
7E78
3F3C
3E3C
0000
0FF0
0FF0
ENDCHAR
STARTCHAR 1E5F
ENCODING 7775
SWIDTH 560 0
DWIDTH 14 0
BBX 14 20 0 -3
BITMAP
1F80
FFE0
FFF0
FC70
7C70
7C70
7EF0
7FF0
7FE0
7FC0
7FE0
7EE0
7EF0
7E78
7E78
3F3C
3E3C
0000
0FF0
0FF0
ENDCHAR
STARTCHAR 1E60
ENCODING 7776
SWIDTH 480 0
DWIDTH 12 0
BBX 12 20 0 0
BITMAP
0700
0700
0000
0FF0
1FF0
3FE0
3FE0
7FC0
7FC0
7C40
3E00
3F80
1FE0
03E0
01F0
6BF0
FFF0
FFE0
7FC0
1F80
ENDCHAR
STARTCHAR 1E61
ENCODING 7777
SWIDTH 480 0
DWIDTH 12 0
BBX 12 20 0 0
BITMAP
0700
0700
0000
0FF0
1FF0
3FE0
3FE0
7FC0
7FC0
7C40
3E00
3F80
1FE0
03E0
01F0
6BF0
FFF0
FFE0
7FC0
1F80
ENDCHAR
STARTCHAR 1E62
ENCODING 7778
SWIDTH 480 0
DWIDTH 12 0
BBX 12 21 0 -4
BITMAP
0FF0
1FF0
3FE0
3FE0
7FC0
7FC0
7C40
3E00
3F80
1FE0
03E0
01F0
6BF0
FFF0
FFE0
7FC0
1F80
0000
0400
0E00
0600
ENDCHAR
STARTCHAR 1E63
ENCODING 7779
SWIDTH 480 0
DWIDTH 12 0
BBX 12 21 0 -4
BITMAP
0FF0
1FF0
3FE0
3FE0
7FC0
7FC0
7C40
3E00
3F80
1FE0
03E0
01F0
6BF0
FFF0
FFE0
7FC0
1F80
0000
0400
0E00
0600
ENDCHAR
STARTCHAR 1E6A
ENCODING 7786
SWIDTH 560 0
DWIDTH 14 0
BBX 14 20 0 0
BITMAP
0180
0380
0000
7FF8
7FF8
7FFC
7FFC
FFFC
73C0
0380
0380
0780
0780
0780
0780
0780
0780
0780
0780
0380
ENDCHAR
STARTCHAR 1E6B
ENCODING 7787
SWIDTH 560 0
DWIDTH 14 0
BBX 14 20 0 0
BITMAP
0180
0380
0000
7FF8
7FF8
7FFC
7FFC
FFFC
73C0
0380
0380
0780
0780
0780
0780
0780
0780
0780
0780
0380
ENDCHAR
STARTCHAR 1E6C
ENCODING 7788
SWIDTH 560 0
DWIDTH 14 0
BBX 14 21 0 -4
BITMAP
7FF8
7FF8
7FFC
7FFC
FFFC
73C0
0380
0380
0780
0780
0780
0780
0780
0780
0780
0780
0380
0000
0100
0380
0300
ENDCHAR
STARTCHAR 1E6D
ENCODING 7789
SWIDTH 560 0
DWIDTH 14 0
BBX 14 21 0 -4
BITMAP
7FF8
7FF8
7FFC
7FFC
FFFC
73C0
0380
0380
0780
0780
0780
0780
0780
0780
0780
0780
0380
0000
0100
0380
0300
ENDCHAR
STARTCHAR 1E6E
ENCODING 7790
SWIDTH 560 0
DWIDTH 14 0
BBX 14 20 0 -3
BITMAP
7FF8
7FF8
7FFC
7FFC
FFFC
73C0
0380
0380
0780
0780
0780
0780
0780
0780
0780
0780
0380
0000
0FE0
0FE0
ENDCHAR
STARTCHAR 1E6F
ENCODING 7791
SWIDTH 560 0
DWIDTH 14 0
BBX 14 20 0 -3
BITMAP
7FF8
7FF8
7FFC
7FFC
FFFC
73C0
0380
0380
0780
0780
0780
0780
0780
0780
0780
0780
0380
0000
0FE0
0FE0
ENDCHAR
STARTCHAR 1E7C
ENCODING 7804
SWIDTH 560 0
DWIDTH 14 0
BBX 13 20 1 1
BITMAP
0EE0
1FE0
1FC0
0000
0010
F0F8
FCF8
7CF8
7CF8
7EF8
3EF0
3EF0
1EF0
1FF0
0FF0
0FE0
07E0
03E0
03E0
01E0
ENDCHAR
STARTCHAR 1E7D
ENCODING 7805
SWIDTH 560 0
DWIDTH 14 0
BBX 13 20 1 1
BITMAP
0EE0
1FE0
1FC0
0000
0010
F0F8
FCF8
7CF8
7CF8
7EF8
3EF0
3EF0
1EF0
1FF0
0FF0
0FE0
07E0
03E0
03E0
01E0
ENDCHAR
STARTCHAR 1E80
ENCODING 7808
SWIDTH 720 0
DWIDTH 18 0
BBX 18 22 0 0
BITMAP
070000
078000
038000
01C000
000000
7803C0
F8C780
FCE780
7CEF80
7CEF80
7EEF80
3EFF00
3FFF00
1FFF00
1FFF00
0FFF00
0F9E00
0F9E00
079E00
031E00
030E00
010000
ENDCHAR
STARTCHAR 1E81
ENCODING 7809
SWIDTH 720 0
DWIDTH 18 0
BBX 18 22 0 0
BITMAP
070000
078000
038000
01C000
000000
7803C0
F8C780
FCE780
7CEF80
7CEF80
7EEF80
3EFF00
3FFF00
1FFF00
1FFF00
0FFF00
0F9E00
0F9E00
079E00
031E00
030E00
010000
ENDCHAR
STARTCHAR 1E82
ENCODING 7810
SWIDTH 720 0
DWIDTH 18 0
BBX 18 22 0 0
BITMAP
003800
007800
007000
00E000
000000
7803C0
F8C780
FCE780
7CEF80
7CEF80
7EEF80
3EFF00
3FFF00
1FFF00
1FFF00
0FFF00
0F9E00
0F9E00
079E00
031E00
030E00
010000
ENDCHAR
STARTCHAR 1E83
ENCODING 7811
SWIDTH 720 0
DWIDTH 18 0
BBX 18 22 0 0
BITMAP
003800
007800
007000
00E000
000000
7803C0
F8C780
FCE780
7CEF80
7CEF80
7EEF80
3EFF00
3FFF00
1FFF00
1FFF00
0FFF00
0F9E00
0F9E00
079E00
031E00
030E00
010000
ENDCHAR
STARTCHAR 1E84
ENCODING 7812
SWIDTH 720 0
DWIDTH 18 0
BBX 18 20 0 0
BITMAP
033000
033000
000000
7803C0
F8C780
FCE780
7CEF80
7CEF80
7EEF80
3EFF00
3FFF00
1FFF00
1FFF00
0FFF00
0F9E00
0F9E00
079E00
031E00
030E00
010000
ENDCHAR
STARTCHAR 1E85
ENCODING 7813
SWIDTH 720 0
DWIDTH 18 0
BBX 18 20 0 0
BITMAP
033000
033000
000000
7803C0
F8C780
FCE780
7CEF80
7CEF80
7EEF80
3EFF00
3FFF00
1FFF00
1FFF00
0FFF00
0F9E00
0F9E00
079E00
031E00
030E00
010000
ENDCHAR
STARTCHAR 1E90
ENCODING 7824
SWIDTH 600 0
DWIDTH 15 0
BBX 15 22 0 0
BITMAP
0200
0780
0FC0
1CE0
0000
0FF8
7FF0
7FE0
FFE0
E3C0
03C0
0380
0780
0780
0F00
0F00
0F00
1EFC
1FFE
1FFC
1FF8
01E0
ENDCHAR
STARTCHAR 1E91
ENCODING 7825
SWIDTH 600 0
DWIDTH 15 0
BBX 15 22 0 0
BITMAP
0200
0780
0FC0
1CE0
0000
0FF8
7FF0
7FE0
FFE0
E3C0
03C0
0380
0780
0780
0F00
0F00
0F00
1EFC
1FFE
1FFC
1FF8
01E0
ENDCHAR
STARTCHAR 1E92
ENCODING 7826
SWIDTH 600 0
DWIDTH 15 0
BBX 15 21 0 -4
BITMAP
0FF8
7FF0
7FE0
FFE0
E3C0
03C0
0380
0780
0780
0F00
0F00
0F00
1EFC
1FFE
1FFC
1FF8
01E0
0000
0180
01C0
0180
ENDCHAR
STARTCHAR 1E93
ENCODING 7827
SWIDTH 600 0
DWIDTH 15 0
BBX 15 21 0 -4
BITMAP
0FF8
7FF0
7FE0
FFE0
E3C0
03C0
0380
0780
0780
0F00
0F00
0F00
1EFC
1FFE
1FFC
1FF8
01E0
0000
0180
01C0
0180
ENDCHAR
STARTCHAR 1E94
ENCODING 7828
SWIDTH 600 0
DWIDTH 15 0
BBX 15 20 0 -3
BITMAP
0FF8
7FF0
7FE0
FFE0
E3C0
03C0
0380
0780
0780
0F00
0F00
0F00
1EFC
1FFE
1FFC
1FF8
01E0
0000
0FF0
0FF0
ENDCHAR
STARTCHAR 1E95
ENCODING 7829
SWIDTH 600 0
DWIDTH 15 0
BBX 15 20 0 -3
BITMAP
0FF8
7FF0
7FE0
FFE0
E3C0
03C0
0380
0780
0780
0F00
0F00
0F00
1EFC
1FFE
1FFC
1FF8
01E0
0000
0FF0
0FF0
ENDCHAR
STARTCHAR 1E96
ENCODING 7830
SWIDTH 560 0
DWIDTH 14 0
BBX 13 20 1 -3
BITMAP
3C00
7CF8
7CF8
7CF8
7CF0
7CF0
7FF0
7FF0
FFF0
FFF0
FFF0
FDF0
FDF0
F9F0
F9F0
F9F0
3900
0000
3FC0
1FC0
ENDCHAR
STARTCHAR 1E9B
ENCODING 7835
SWIDTH 400 0
DWIDTH 10 0
BBX 10 24 0 -4
BITMAP
0C00
0C00
0000
1FC0
3FC0
7FC0
79C0
F800
F800
7800
7800
7800
7800
7800
7800
7800
7800
7800
7800
7800
7800
7800
7800
2000
ENDCHAR
STARTCHAR 1E9C
ENCODING 7836
SWIDTH 440 0
DWIDTH 11 0
BBX 11 21 0 -4
BITMAP
0FC0
3FE0
3FE0
7CE0
7C00
7800
7880
7980
3FC0
3FC0
3F80
FE00
FC00
FC00
7C00
3C00
3C00
3C00
3C00
3C00
1000
ENDCHAR
STARTCHAR 1E9D
ENCODING 7837
SWIDTH 440 0
DWIDTH 11 0
BBX 11 21 0 -4
BITMAP
0FC0
3FE0
3FE0
7CE0
7C00
FF80
FF80
FF80
3C00
3C00
3C00
3C00
3C00
3C00
3C00
3C00
3C00
3C00
3C00
3C00
1000
ENDCHAR
STARTCHAR 1E9E
ENCODING 7838
SWIDTH 560 0
DWIDTH 14 0
BBX 14 19 0 -2
BITMAP
3F80
7F80
7FC0
F3C0
F1C0
F1C0
73C0
7380
73F0
73F8
78F8
787C
783C
787C
79F8
79F8
79E0
7800
1000
ENDCHAR
STARTCHAR 1EA0
ENCODING 7840
SWIDTH 600 0
DWIDTH 15 0
BBX 15 21 0 -4
BITMAP
01C0
01C0
01C0
03E0
03E0
07E0
07E0
07F0
0FF0
0EF0
1CF8
19F8
3FF8
3FFC
7CFC
787E
787E
C000
0300
0380
0300
ENDCHAR
STARTCHAR 1EA1
ENCODING 7841
SWIDTH 600 0
DWIDTH 15 0
BBX 15 21 0 -4
BITMAP
01C0
01C0
01C0
03E0
03E0
07E0
07E0
07F0
0FF0
0EF0
1CF8
19F8
3FF8
3FFC
7CFC
787E
787E
C000
0300
0380
0300
ENDCHAR
STARTCHAR 1EA2
ENCODING 7842
SWIDTH 600 0
DWIDTH 15 0
BBX 15 22 0 -1
BITMAP
03F0
00F0
01C0
0000
01C0
01C0
01C0
03E0
03E0
07E0
07E0
07F0
0FF0
0EF0
1CF8
19F8
3FF8
3FFC
7CFC
787E
787E
C000
ENDCHAR
STARTCHAR 1EA3
ENCODING 7843
SWIDTH 600 0
DWIDTH 15 0
BBX 15 22 0 -1
BITMAP
03F0
00F0
01C0
0000
01C0
01C0
01C0
03E0
03E0
07E0
07E0
07F0
0FF0
0EF0
1CF8
19F8
3FF8
3FFC
7CFC
787E
787E
C000
ENDCHAR
STARTCHAR 1EA4
ENCODING 7844
SWIDTH 600 0
DWIDTH 15 0
BBX 15 24 0 -1
BITMAP
001C
0038
0030
01C0
07F0
0430
01C0
01C0
01C0
03E0
03E0
07E0
07E0
07F0
0FF0
0EF0
1CF8
19F8
3FF8
3FFC
7CFC
787E
787E
C000
ENDCHAR
STARTCHAR 1EA5
ENCODING 7845
SWIDTH 600 0
DWIDTH 15 0
BBX 15 24 0 -1
BITMAP
001C
0038
0030
01C0
07F0
0430
01C0
01C0
01C0
03E0
03E0
07E0
07E0
07F0
0FF0
0EF0
1CF8
19F8
3FF8
3FFC
7CFC
787E
787E
C000
ENDCHAR
STARTCHAR 1EA6
ENCODING 7846
SWIDTH 600 0
DWIDTH 15 0
BBX 15 24 0 -1
BITMAP
3C00
1C00
0600
01C0
07F0
0430
01C0
01C0
01C0
03E0
03E0
07E0
07E0
07F0
0FF0
0EF0
1CF8
19F8
3FF8
3FFC
7CFC
787E
787E
C000
ENDCHAR
STARTCHAR 1EA7
ENCODING 7847
SWIDTH 600 0
DWIDTH 15 0
BBX 15 24 0 -1
BITMAP
3C00
1C00
0600
01C0
07F0
0430
01C0
01C0
01C0
03E0
03E0
07E0
07E0
07F0
0FF0
0EF0
1CF8
19F8
3FF8
3FFC
7CFC
787E
787E
C000
ENDCHAR
STARTCHAR 1EA8
ENCODING 7848
SWIDTH 600 0
DWIDTH 15 0
BBX 15 24 0 -1
BITMAP
007C
001C
0070
01C0
07F0
0430
01C0
01C0
01C0
03E0
03E0
07E0
07E0
07F0
0FF0
0EF0
1CF8
19F8
3FF8
3FFC
7CFC
787E
787E
C000
ENDCHAR
STARTCHAR 1EA9
ENCODING 7849
SWIDTH 600 0
DWIDTH 15 0
BBX 15 24 0 -1
BITMAP
007C
001C
0070
01C0
07F0
0430
01C0
01C0
01C0
03E0
03E0
07E0
07E0
07F0
0FF0
0EF0
1CF8
19F8
3FF8
3FFC
7CFC
787E
787E
C000
ENDCHAR
STARTCHAR 1EAA
ENCODING 7850
SWIDTH 600 0
DWIDTH 15 0
BBX 15 24 0 -1
BITMAP
0370
07F0
06E0
01C0
07F0
0430
01C0
01C0
01C0
03E0
03E0
07E0
07E0
07F0
0FF0
0EF0
1CF8
19F8
3FF8
3FFC
7CFC
787E
787E
C000
ENDCHAR
STARTCHAR 1EAB
ENCODING 7851
SWIDTH 600 0
DWIDTH 15 0
BBX 15 24 0 -1
BITMAP
0370
07F0
06E0
01C0
07F0
0430
01C0
01C0
01C0
03E0
03E0
07E0
07E0
07F0
0FF0
0EF0
1CF8
19F8
3FF8
3FFC
7CFC
787E
787E
C000
ENDCHAR
STARTCHAR 1EAC
ENCODING 7852
SWIDTH 600 0
DWIDTH 15 0
BBX 15 26 0 -4
BITMAP
0080
03C0
07F0
0770
0000
01C0
01C0
01C0
03E0
03E0
07E0
07E0
07F0
0FF0
0EF0
1CF8
19F8
3FF8
3FFC
7CFC
787E
787E
C000
0300
0380
0300
ENDCHAR
STARTCHAR 1EAD
ENCODING 7853
SWIDTH 600 0
DWIDTH 15 0
BBX 15 26 0 -4
BITMAP
0080
03C0
07F0
0770
0000
01C0
01C0
01C0
03E0
03E0
07E0
07E0
07F0
0FF0
0EF0
1CF8
19F8
3FF8
3FFC
7CFC
787E
787E
C000
0300
0380
0300
ENDCHAR
STARTCHAR 1EAE
ENCODING 7854
SWIDTH 600 0
DWIDTH 15 0
BBX 15 24 0 -1
BITMAP
0070
00E0
01C0
0630
07E0
01C0
01C0
01C0
01C0
03E0
03E0
07E0
07E0
07F0
0FF0
0EF0
1CF8
19F8
3FF8
3FFC
7CFC
787E
787E
C000
ENDCHAR
STARTCHAR 1EAF
ENCODING 7855
SWIDTH 600 0
DWIDTH 15 0
BBX 15 24 0 -1
BITMAP
0070
00E0
01C0
0630
07E0
01C0
01C0
01C0
01C0
03E0
03E0
07E0
07E0
07F0
0FF0
0EF0
1CF8
19F8
3FF8
3FFC
7CFC
787E
787E
C000
ENDCHAR
STARTCHAR 1EB0
ENCODING 7856
SWIDTH 600 0
DWIDTH 15 0
BBX 15 24 0 -1
BITMAP
0700
0380
01C0
0630
07E0
01C0
01C0
01C0
01C0
03E0
03E0
07E0
07E0
07F0
0FF0
0EF0
1CF8
19F8
3FF8
3FFC
7CFC
787E
787E
C000
ENDCHAR
STARTCHAR 1EB1
ENCODING 7857
SWIDTH 600 0
DWIDTH 15 0
BBX 15 24 0 -1
BITMAP
0700
0380
01C0
0630
07E0
01C0
01C0
01C0
01C0
03E0
03E0
07E0
07E0
07F0
0FF0
0EF0
1CF8
19F8
3FF8
3FFC
7CFC
787E
787E
C000
ENDCHAR
STARTCHAR 1EB2
ENCODING 7858
SWIDTH 600 0
DWIDTH 15 0
BBX 15 24 0 -1
BITMAP
03E0
0070
01C0
0630
07E0
01C0
01C0
01C0
01C0
03E0
03E0
07E0
07E0
07F0
0FF0
0EF0
1CF8
19F8
3FF8
3FFC
7CFC
787E
787E
C000
ENDCHAR
STARTCHAR 1EB3
ENCODING 7859
SWIDTH 600 0
DWIDTH 15 0
BBX 15 24 0 -1
BITMAP
03E0
0070
01C0
0630
07E0
01C0
01C0
01C0
01C0
03E0
03E0
07E0
07E0
07F0
0FF0
0EF0
1CF8
19F8
3FF8
3FFC
7CFC
787E
787E
C000
ENDCHAR
STARTCHAR 1EB4
ENCODING 7860
SWIDTH 600 0
DWIDTH 15 0
BBX 15 24 0 -1
BITMAP
0370
07F0
06E0
0630
07E0
01C0
01C0
01C0
01C0
03E0
03E0
07E0
07E0
07F0
0FF0
0EF0
1CF8
19F8
3FF8
3FFC
7CFC
787E
787E
C000
ENDCHAR
STARTCHAR 1EB5
ENCODING 7861
SWIDTH 600 0
DWIDTH 15 0
BBX 15 24 0 -1
BITMAP
0370
07F0
06E0
0630
07E0
01C0
01C0
01C0
01C0
03E0
03E0
07E0
07E0
07F0
0FF0
0EF0
1CF8
19F8
3FF8
3FFC
7CFC
787E
787E
C000
ENDCHAR
STARTCHAR 1EB6
ENCODING 7862
SWIDTH 600 0
DWIDTH 15 0
BBX 15 25 0 -4
BITMAP
0670
07E0
03C0
0000
01C0
01C0
01C0
03E0
03E0
07E0
07E0
07F0
0FF0
0EF0
1CF8
19F8
3FF8
3FFC
7CFC
787E
787E
C000
0300
0380
0300
ENDCHAR
STARTCHAR 1EB7
ENCODING 7863
SWIDTH 600 0
DWIDTH 15 0
BBX 15 25 0 -4
BITMAP
0670
07E0
03C0
0000
01C0
01C0
01C0
03E0
03E0
07E0
07E0
07F0
0FF0
0EF0
1CF8
19F8
3FF8
3FFC
7CFC
787E
787E
C000
0300
0380
0300
ENDCHAR
STARTCHAR 1EB8
ENCODING 7864
SWIDTH 480 0
DWIDTH 12 0
BBX 12 21 0 -4
BITMAP
7FC0
FF80
7F80
7F80
7F80
7C00
3C00
3F80
3F80
3E00
3E20
3FE0
1FE0
1FF0
1FF0
1FE0
1E00
0000
0300
0380
0100
ENDCHAR
STARTCHAR 1EB9
ENCODING 7865
SWIDTH 480 0
DWIDTH 12 0
BBX 12 21 0 -4
BITMAP
7FC0
FF80
7F80
7F80
7F80
7C00
3C00
3F80
3F80
3E00
3E20
3FE0
1FE0
1FF0
1FF0
1FE0
1E00
0000
0300
0380
0100
ENDCHAR
STARTCHAR 1EBA
ENCODING 7866
SWIDTH 480 0
DWIDTH 12 0
BBX 12 22 0 0
BITMAP
1E00
7E00
0E00
3C00
0000
7FC0
FF80
7F80
7F80
7F80
7C00
3C00
3F80
3F80
3E00
3E20
3FE0
1FE0
1FF0
1FF0
1FE0
1E00
ENDCHAR
STARTCHAR 1EBB
ENCODING 7867
SWIDTH 480 0
DWIDTH 12 0
BBX 12 22 0 0
BITMAP
1E00
7E00
0E00
3C00
0000
7FC0
FF80
7F80
7F80
7F80
7C00
3C00
3F80
3F80
3E00
3E20
3FE0
1FE0
1FF0
1FF0
1FE0
1E00
ENDCHAR
STARTCHAR 1EBC
ENCODING 7868
SWIDTH 480 0
DWIDTH 12 0
BBX 12 22 0 0
BITMAP
0600
7F00
FE00
FC00
0000
7FC0
FF80
7F80
7F80
7F80
7C00
3C00
3F80
3F80
3E00
3E20
3FE0
1FE0
1FF0
1FF0
1FE0
1E00
ENDCHAR
STARTCHAR 1EBD
ENCODING 7869
SWIDTH 480 0
DWIDTH 12 0
BBX 12 22 0 0
BITMAP
0600
7F00
FE00
FC00
0000
7FC0
FF80
7F80
7F80
7F80
7C00
3C00
3F80
3F80
3E00
3E20
3FE0
1FE0
1FF0
1FF0
1FE0
1E00
ENDCHAR
STARTCHAR 1EBE
ENCODING 7870
SWIDTH 480 0
DWIDTH 12 0
BBX 12 23 0 0
BITMAP
01E0
03C0
0300
1C00
7F00
0000
7FC0
FF80
7F80
7F80
7F80
7C00
3C00
3F80
3F80
3E00
3E20
3FE0
1FE0
1FF0
1FF0
1FE0
1E00
ENDCHAR
STARTCHAR 1EBF
ENCODING 7871
SWIDTH 480 0
DWIDTH 12 0
BBX 12 23 0 0
BITMAP
01E0
03C0
0300
1C00
7F00
0000
7FC0
FF80
7F80
7F80
7F80
7C00
3C00
3F80
3F80
3E00
3E20
3FE0
1FE0
1FF0
1FF0
1FE0
1E00
ENDCHAR
STARTCHAR 1EC0
ENCODING 7872
SWIDTH 480 0
DWIDTH 12 0
BBX 14 23 -2 0
BITMAP
F000
7800
1800
0700
1FC0
0000
1FF0
3FE0
1FE0
1FE0
1FE0
1F00
0F00
0FE0
0FE0
0F80
0F88
0FF8
07F8
07FC
07FC
07F8
0780
ENDCHAR
STARTCHAR 1EC1
ENCODING 7873
SWIDTH 480 0
DWIDTH 12 0
BBX 14 23 -2 0
BITMAP
F000
7800
1800
0700
1FC0
0000
1FF0
3FE0
1FE0
1FE0
1FE0
1F00
0F00
0FE0
0FE0
0F80
0F88
0FF8
07F8
07FC
07FC
07F8
0780
ENDCHAR
STARTCHAR 1EC2
ENCODING 7874
SWIDTH 480 0
DWIDTH 12 0
BBX 12 23 0 0
BITMAP
07C0
01C0
0700
1C00
7F00
0000
7FC0
FF80
7F80
7F80
7F80
7C00
3C00
3F80
3F80
3E00
3E20
3FE0
1FE0
1FF0
1FF0
1FE0
1E00
ENDCHAR
STARTCHAR 1EC3
ENCODING 7875
SWIDTH 480 0
DWIDTH 12 0
BBX 12 23 0 0
BITMAP
07C0
01C0
0700
1C00
7F00
0000
7FC0
FF80
7F80
7F80
7F80
7C00
3C00
3F80
3F80
3E00
3E20
3FE0
1FE0
1FF0
1FF0
1FE0
1E00
ENDCHAR
STARTCHAR 1EC4
ENCODING 7876
SWIDTH 480 0
DWIDTH 12 0
BBX 12 23 0 0
BITMAP
3300
7F00
6E00
1C00
7F00
0000
7FC0
FF80
7F80
7F80
7F80
7C00
3C00
3F80
3F80
3E00
3E20
3FE0
1FE0
1FF0
1FF0
1FE0
1E00
ENDCHAR
STARTCHAR 1EC5
ENCODING 7877
SWIDTH 480 0
DWIDTH 12 0
BBX 12 23 0 0
BITMAP
3300
7F00
6E00
1C00
7F00
0000
7FC0
FF80
7F80
7F80
7F80
7C00
3C00
3F80
3F80
3E00
3E20
3FE0
1FE0
1FF0
1FF0
1FE0
1E00
ENDCHAR
STARTCHAR 1EC6
ENCODING 7878
SWIDTH 480 0
DWIDTH 12 0
BBX 12 26 0 -4
BITMAP
1800
3E00
7F00
E300
0000
7FC0
FF80
7F80
7F80
7F80
7C00
3C00
3F80
3F80
3E00
3E20
3FE0
1FE0
1FF0
1FF0
1FE0
1E00
0000
0300
0380
0100
ENDCHAR
STARTCHAR 1EC7
ENCODING 7879
SWIDTH 480 0
DWIDTH 12 0
BBX 12 26 0 -4
BITMAP
1800
3E00
7F00
E300
0000
7FC0
FF80
7F80
7F80
7F80
7C00
3C00
3F80
3F80
3E00
3E20
3FE0
1FE0
1FF0
1FF0
1FE0
1E00
0000
0300
0380
0100
ENDCHAR
STARTCHAR 1EC8
ENCODING 7880
SWIDTH 320 0
DWIDTH 8 0
BBX 8 21 0 0
BITMAP
3F
07
1E
00
1F
3F
3E
3E
3E
3E
3E
3E
3E
3E
7E
7E
7E
7E
7E
7E
F0
ENDCHAR
STARTCHAR 1EC9
ENCODING 7881
SWIDTH 320 0
DWIDTH 8 0
BBX 8 21 0 0
BITMAP
3F
07
1E
00
1F
3F
3E
3E
3E
3E
3E
3E
3E
3E
7E
7E
7E
7E
7E
7E
F0
ENDCHAR
STARTCHAR 1ECA
ENCODING 7882
SWIDTH 320 0
DWIDTH 8 0
BBX 8 21 0 -4
BITMAP
1F
3F
3E
3E
3E
3E
3E
3E
3E
3E
7E
7E
7E
7E
7E
7E
F0
00
10
38
18
ENDCHAR
STARTCHAR 1ECB
ENCODING 7883
SWIDTH 320 0
DWIDTH 8 0
BBX 8 21 0 -4
BITMAP
1F
3F
3E
3E
3E
3E
3E
3E
3E
3E
7E
7E
7E
7E
7E
7E
F0
00
10
38
18
ENDCHAR
STARTCHAR 1ECC
ENCODING 7884
SWIDTH 520 0
DWIDTH 13 0
BBX 13 21 0 -3
BITMAP
0E00
1F80
3FC0
3FE0
7FF0
7FF0
7CF8
F8F8
F8F8
F8F8
7FF8
7FF8
7FF8
7FF0
3FF0
1FE0
07C0
0000
0300
0380
0300
ENDCHAR
STARTCHAR 1ECD
ENCODING 7885
SWIDTH 520 0
DWIDTH 13 0
BBX 13 21 0 -3
BITMAP
0E00
1F80
3FC0
3FE0
7FF0
7FF0
7CF8
F8F8
F8F8
F8F8
7FF8
7FF8
7FF8
7FF0
3FF0
1FE0
07C0
0000
0300
0380
0300
ENDCHAR
STARTCHAR 1ECE
ENCODING 7886
SWIDTH 520 0
DWIDTH 13 0
BBX 13 22 0 0
BITMAP
1F00
1F80
0F00
1E00
0000
0E00
1F80
3FC0
3FE0
7FF0
7FF0
7CF8
F8F8
F8F8
F8F8
7FF8
7FF8
7FF8
7FF0
3FF0
1FE0
07C0
ENDCHAR
STARTCHAR 1ECF
ENCODING 7887
SWIDTH 520 0
DWIDTH 13 0
BBX 13 22 0 0
BITMAP
1F00
1F80
0F00
1E00
0000
0E00
1F80
3FC0
3FE0
7FF0
7FF0
7CF8
F8F8
F8F8
F8F8
7FF8
7FF8
7FF8
7FF0
3FF0
1FE0
07C0
ENDCHAR
STARTCHAR 1ED0
ENCODING 7888
SWIDTH 520 0
DWIDTH 13 0
BBX 13 23 0 0
BITMAP
00E0
01C0
0380
1C00
3F00
0100
0E00
1F80
3FC0
3FE0
7FF0
7FF0
7CF8
F8F8
F8F8
F8F8
7FF8
7FF8
7FF8
7FF0
3FF0
1FE0
07C0
ENDCHAR
STARTCHAR 1ED1
ENCODING 7889
SWIDTH 520 0
DWIDTH 13 0
BBX 13 23 0 0
BITMAP
00E0
01C0
0380
1C00
3F00
0100
0E00
1F80
3FC0
3FE0
7FF0
7FF0
7CF8
F8F8
F8F8
F8F8
7FF8
7FF8
7FF8
7FF0
3FF0
1FE0
07C0
ENDCHAR
STARTCHAR 1ED2
ENCODING 7890
SWIDTH 520 0
DWIDTH 13 0
BBX 14 23 -1 0
BITMAP
E000
7000
3800
0E00
1F80
0080
0700
0FC0
1FE0
1FF0
3FF8
3FF8
3E7C
7C7C
7C7C
7C7C
3FFC
3FFC
3FFC
3FF8
1FF8
0FF0
03E0
ENDCHAR
STARTCHAR 1ED3
ENCODING 7891
SWIDTH 520 0
DWIDTH 13 0
BBX 14 23 -1 0
BITMAP
E000
7000
3800
0E00
1F80
0080
0700
0FC0
1FE0
1FF0
3FF8
3FF8
3E7C
7C7C
7C7C
7C7C
3FFC
3FFC
3FFC
3FF8
1FF8
0FF0
03E0
ENDCHAR
STARTCHAR 1ED4
ENCODING 7892
SWIDTH 520 0
DWIDTH 13 0
BBX 13 23 0 0
BITMAP
07C0
00E0
0380
1C00
3F00
0100
0E00
1F80
3FC0
3FE0
7FF0
7FF0
7CF8
F8F8
F8F8
F8F8
7FF8
7FF8
7FF8
7FF0
3FF0
1FE0
07C0
ENDCHAR
STARTCHAR 1ED5
ENCODING 7893
SWIDTH 520 0
DWIDTH 13 0
BBX 13 23 0 0
BITMAP
07C0
00E0
0380
1C00
3F00
0100
0E00
1F80
3FC0
3FE0
7FF0
7FF0
7CF8
F8F8
F8F8
F8F8
7FF8
7FF8
7FF8
7FF0
3FF0
1FE0
07C0
ENDCHAR
STARTCHAR 1ED6
ENCODING 7894
SWIDTH 520 0
DWIDTH 13 0
BBX 13 23 0 0
BITMAP
3380
7F00
6600
1C00
3F00
0100
0E00
1F80
3FC0
3FE0
7FF0
7FF0
7CF8
F8F8
F8F8
F8F8
7FF8
7FF8
7FF8
7FF0
3FF0
1FE0
07C0
ENDCHAR
STARTCHAR 1ED7
ENCODING 7895
SWIDTH 520 0
DWIDTH 13 0
BBX 13 23 0 0
BITMAP
3380
7F00
6600
1C00
3F00
0100
0E00
1F80
3FC0
3FE0
7FF0
7FF0
7CF8
F8F8
F8F8
F8F8
7FF8
7FF8
7FF8
7FF0
3FF0
1FE0
07C0
ENDCHAR
STARTCHAR 1ED8
ENCODING 7896
SWIDTH 520 0
DWIDTH 13 0
BBX 13 26 0 -4
BITMAP
0800
1E00
3F00
7380
0000
0E00
1F80
3FC0
3FE0
7FF0
7FF0
7CF8
F8F8
F8F8
F8F8
7FF8
7FF8
7FF8
7FF0
3FF0
1FE0
07C0
0000
0300
0380
0300
ENDCHAR
STARTCHAR 1ED9
ENCODING 7897
SWIDTH 520 0
DWIDTH 13 0
BBX 13 26 0 -4
BITMAP
0800
1E00
3F00
7380
0000
0E00
1F80
3FC0
3FE0
7FF0
7FF0
7CF8
F8F8
F8F8
F8F8
7FF8
7FF8
7FF8
7FF0
3FF0
1FE0
07C0
0000
0300
0380
0300
ENDCHAR
STARTCHAR 1EDA
ENCODING 7898
SWIDTH 520 0
DWIDTH 13 0
BBX 13 22 0 0
BITMAP
0380
0780
0700
0E00
0018
0E18
1F98
3FD8
3FF8
7FF8
7FF8
7CF8
F8F8
F8F8
F8F8
7FF8
7FF8
7FF8
7FF0
3FF0
1FE0
07C0
ENDCHAR
STARTCHAR 1EDB
ENCODING 7899
SWIDTH 520 0
DWIDTH 13 0
BBX 13 22 0 0
BITMAP
0380
0780
0700
0E00
0018
0E18
1F98
3FD8
3FF8
7FF8
7FF8
7CF8
F8F8
F8F8
F8F8
7FF8
7FF8
7FF8
7FF0
3FF0
1FE0
07C0
ENDCHAR
STARTCHAR 1EDC
ENCODING 7900
SWIDTH 520 0
DWIDTH 13 0
BBX 13 22 0 0
BITMAP
7000
7000
3800
1800
0018
0E18
1F98
3FD8
3FF8
7FF8
7FF8
7CF8
F8F8
F8F8
F8F8
7FF8
7FF8
7FF8
7FF0
3FF0
1FE0
07C0
ENDCHAR
STARTCHAR 1EDD
ENCODING 7901
SWIDTH 520 0
DWIDTH 13 0
BBX 13 22 0 0
BITMAP
7000
7000
3800
1800
0018
0E18
1F98
3FD8
3FF8
7FF8
7FF8
7CF8
F8F8
F8F8
F8F8
7FF8
7FF8
7FF8
7FF0
3FF0
1FE0
07C0
ENDCHAR
STARTCHAR 1EDE
ENCODING 7902
SWIDTH 520 0
DWIDTH 13 0
BBX 13 22 0 0
BITMAP
1F00
1F80
0F00
1E00
0018
0E18
1F98
3FD8
3FF8
7FF8
7FF8
7CF8
F8F8
F8F8
F8F8
7FF8
7FF8
7FF8
7FF0
3FF0
1FE0
07C0
ENDCHAR
STARTCHAR 1EDF
ENCODING 7903
SWIDTH 520 0
DWIDTH 13 0
BBX 13 22 0 0
BITMAP
1F00
1F80
0F00
1E00
0018
0E18
1F98
3FD8
3FF8
7FF8
7FF8
7CF8
F8F8
F8F8
F8F8
7FF8
7FF8
7FF8
7FF0
3FF0
1FE0
07C0
ENDCHAR
STARTCHAR 1EE0
ENCODING 7904
SWIDTH 520 0
DWIDTH 13 0
BBX 13 22 0 0
BITMAP
0300
3F00
7F00
6E00
4018
0E18
1F98
3FD8
3FF8
7FF8
7FF8
7CF8
F8F8
F8F8
F8F8
7FF8
7FF8
7FF8
7FF0
3FF0
1FE0
07C0
ENDCHAR
STARTCHAR 1EE1
ENCODING 7905
SWIDTH 520 0
DWIDTH 13 0
BBX 13 22 0 0
BITMAP
0300
3F00
7F00
6E00
4018
0E18
1F98
3FD8
3FF8
7FF8
7FF8
7CF8
F8F8
F8F8
F8F8
7FF8
7FF8
7FF8
7FF0
3FF0
1FE0
07C0
ENDCHAR
STARTCHAR 1EE2
ENCODING 7906
SWIDTH 520 0
DWIDTH 13 0
BBX 13 22 0 -4
BITMAP
0018
0E18
1F98
3FD8
3FF8
7FF8
7FF8
7CF8
F8F8
F8F8
F8F8
7FF8
7FF8
7FF8
7FF0
3FF0
1FE0
07C0
0000
0300
0380
0300
ENDCHAR
STARTCHAR 1EE3
ENCODING 7907
SWIDTH 520 0
DWIDTH 13 0
BBX 13 22 0 -4
BITMAP
0018
0E18
1F98
3FD8
3FF8
7FF8
7FF8
7CF8
F8F8
F8F8
F8F8
7FF8
7FF8
7FF8
7FF0
3FF0
1FE0
07C0
0000
0300
0380
0300
ENDCHAR
STARTCHAR 1EE4
ENCODING 7908
SWIDTH 520 0
DWIDTH 13 0
BBX 13 21 0 -4
BITMAP
3C78
3C78
7878
7878
7878
7878
7878
F878
FC78
7EF8
7FF8
7FF0
7FF0
3FF0
3FE0
1FC0
0000
0000
0600
0600
0600
ENDCHAR
STARTCHAR 1EE5
ENCODING 7909
SWIDTH 520 0
DWIDTH 13 0
BBX 13 21 0 -4
BITMAP
3C78
3C78
7878
7878
7878
7878
7878
F878
FC78
7EF8
7FF8
7FF0
7FF0
3FF0
3FE0
1FC0
0000
0000
0600
0600
0600
ENDCHAR
STARTCHAR 1EE6
ENCODING 7910
SWIDTH 520 0
DWIDTH 13 0
BBX 13 20 0 0
BITMAP
07E0
00E0
03C0
0000
3C78
3C78
7878
7878
7878
7878
7878
F878
FC78
7EF8
7FF8
7FF0
7FF0
3FF0
3FE0
1FC0
ENDCHAR
STARTCHAR 1EE7
ENCODING 7911
SWIDTH 520 0
DWIDTH 13 0
BBX 13 20 0 0
BITMAP
07E0
00E0
03C0
0000
3C78
3C78
7878
7878
7878
7878
7878
F878
FC78
7EF8
7FF8
7FF0
7FF0
3FF0
3FE0
1FC0
ENDCHAR
STARTCHAR 1EE8
ENCODING 7912
SWIDTH 600 0
DWIDTH 15 0
BBX 15 22 0 0
BITMAP
01C0
01C0
0380
0700
000E
70EE
70E6
70E6
70FE
70FE
70FC
70F8
F8F0
F8F0
79F0
7FF0
7FF0
3FF0
3FE0
1FE0
1FC0
0F00
ENDCHAR
STARTCHAR 1EE9
ENCODING 7913
SWIDTH 600 0
DWIDTH 15 0
BBX 15 22 0 0
BITMAP
01C0
01C0
0380
0700
000E
70EE
70E6
70E6
70FE
70FE
70FC
70F8
F8F0
F8F0
79F0
7FF0
7FF0
3FF0
3FE0
1FE0
1FC0
0F00
ENDCHAR
STARTCHAR 1EEA
ENCODING 7914
SWIDTH 600 0
DWIDTH 15 0
BBX 15 22 0 0
BITMAP
3800
3C00
1C00
0E00
000E
70EE
70E6
70E6
70FE
70FE
70FC
70F8
F8F0
F8F0
79F0
7FF0
7FF0
3FF0
3FE0
1FE0
1FC0
0F00
ENDCHAR
STARTCHAR 1EEB
ENCODING 7915
SWIDTH 600 0
DWIDTH 15 0
BBX 15 22 0 0
BITMAP
3800
3C00
1C00
0E00
000E
70EE
70E6
70E6
70FE
70FE
70FC
70F8
F8F0
F8F0
79F0
7FF0
7FF0
3FF0
3FE0
1FE0
1FC0
0F00
ENDCHAR
STARTCHAR 1EEC
ENCODING 7916
SWIDTH 600 0
DWIDTH 15 0
BBX 15 21 0 0
BITMAP
1F80
0380
0F00
000E
70EE
70E6
70E6
70FE
70FE
70FC
70F8
F8F0
F8F0
79F0
7FF0
7FF0
3FF0
3FE0
1FE0
1FC0
0F00
ENDCHAR
STARTCHAR 1EED
ENCODING 7917
SWIDTH 600 0
DWIDTH 15 0
BBX 15 21 0 0
BITMAP
1F80
0380
0F00
000E
70EE
70E6
70E6
70FE
70FE
70FC
70F8
F8F0
F8F0
79F0
7FF0
7FF0
3FF0
3FE0
1FE0
1FC0
0F00
ENDCHAR
STARTCHAR 1EEE
ENCODING 7918
SWIDTH 600 0
DWIDTH 15 0
BBX 15 21 0 0
BITMAP
1DC0
3F80
3780
000E
70EE
70E6
70E6
70FE
70FE
70FC
70F8
F8F0
F8F0
79F0
7FF0
7FF0
3FF0
3FE0
1FE0
1FC0
0F00
ENDCHAR
STARTCHAR 1EEF
ENCODING 7919
SWIDTH 600 0
DWIDTH 15 0
BBX 15 21 0 0
BITMAP
1DC0
3F80
3780
000E
70EE
70E6
70E6
70FE
70FE
70FC
70F8
F8F0
F8F0
79F0
7FF0
7FF0
3FF0
3FE0
1FE0
1FC0
0F00
ENDCHAR
STARTCHAR 1EF0
ENCODING 7920
SWIDTH 600 0
DWIDTH 15 0
BBX 15 22 0 -4
BITMAP
000E
70EE
70E6
70E6
70FE
70FE
70FC
70F8
F8F0
F8F0
79F0
7FF0
7FF0
3FF0
3FE0
1FE0
1FC0
0F00
0000
0100
0380
0300
ENDCHAR
STARTCHAR 1EF1
ENCODING 7921
SWIDTH 600 0
DWIDTH 15 0
BBX 15 22 0 -4
BITMAP
000E
70EE
70E6
70E6
70FE
70FE
70FC
70F8
F8F0
F8F0
79F0
7FF0
7FF0
3FF0
3FE0
1FE0
1FC0
0F00
0000
0100
0380
0300
ENDCHAR
STARTCHAR 1EF2
ENCODING 7922
SWIDTH 600 0
DWIDTH 15 0
BBX 14 22 1 0
BITMAP
1C00
1E00
0E00
0700
0000
003C
F078
F078
F8F0
78F0
7DE0
3DE0
3FE0
1FC0
1FC0
0F80
0F80
0780
0780
0780
0780
0780
ENDCHAR
STARTCHAR 1EF3
ENCODING 7923
SWIDTH 600 0
DWIDTH 15 0
BBX 14 22 1 0
BITMAP
1C00
1E00
0E00
0700
0000
003C
F078
F078
F8F0
78F0
7DE0
3DE0
3FE0
1FC0
1FC0
0F80
0F80
0780
0780
0780
0780
0780
ENDCHAR
STARTCHAR 1EF4
ENCODING 7924
SWIDTH 600 0
DWIDTH 15 0
BBX 14 21 1 -4
BITMAP
003C
F078
F078
F8F0
78F0
7DE0
3DE0
3FE0
1FC0
1FC0
0F80
0F80
0780
0780
0780
0780
0780
0000
0100
0380
0380
ENDCHAR
STARTCHAR 1EF5
ENCODING 7925
SWIDTH 600 0
DWIDTH 15 0
BBX 14 21 1 -4
BITMAP
003C
F078
F078
F8F0
78F0
7DE0
3DE0
3FE0
1FC0
1FC0
0F80
0F80
0780
0780
0780
0780
0780
0000
0100
0380
0380
ENDCHAR
STARTCHAR 1EF6
ENCODING 7926
SWIDTH 600 0
DWIDTH 15 0
BBX 14 22 1 0
BITMAP
0080
0FC0
01C0
0780
0000
003C
F078
F078
F8F0
78F0
7DE0
3DE0
3FE0
1FC0
1FC0
0F80
0F80
0780
0780
0780
0780
0780
ENDCHAR
STARTCHAR 1EF7
ENCODING 7927
SWIDTH 600 0
DWIDTH 15 0
BBX 14 22 1 0
BITMAP
0080
0FC0
01C0
0780
0000
003C
F078
F078
F8F0
78F0
7DE0
3DE0
3FE0
1FC0
1FC0
0F80
0F80
0780
0780
0780
0780
0780
ENDCHAR
STARTCHAR 1EF8
ENCODING 7928
SWIDTH 600 0
DWIDTH 15 0
BBX 14 21 1 0
BITMAP
0EC0
1FC0
1BC0
0000
003C
F078
F078
F8F0
78F0
7DE0
3DE0
3FE0
1FC0
1FC0
0F80
0F80
0780
0780
0780
0780
0780
ENDCHAR
STARTCHAR 1EF9
ENCODING 7929
SWIDTH 600 0
DWIDTH 15 0
BBX 14 21 1 0
BITMAP
0EC0
1FC0
1BC0
0000
003C
F078
F078
F8F0
78F0
7DE0
3DE0
3FE0
1FC0
1FC0
0F80
0F80
0780
0780
0780
0780
0780
ENDCHAR
STARTCHAR 1F70
ENCODING 8048
SWIDTH 600 0
DWIDTH 15 0
BBX 15 19 0 -1
BITMAP
3000
19C0
19C0
0DC0
03E0
03E0
07E0
07E0
07F0
0FF0
0EF0
1CF8
19F8
3FF8
3FFC
7CFC
787E
787E
C000
ENDCHAR
STARTCHAR 1F72
ENCODING 8050
SWIDTH 600 0
DWIDTH 15 0
BBX 15 18 0 0
BITMAP
E000
6FF8
6FF0
3FF0
0FF0
0FF0
0780
0780
07F0
07F0
07C0
07C4
07FC
03FE
03FE
03FE
03FC
03C0
ENDCHAR
STARTCHAR 1F74
ENCODING 8052
SWIDTH 640 0
DWIDTH 16 0
BBX 16 18 0 0
BITMAP
E000
6780
6F9F
3F9F
0F9F
0F9E
0F9E
0FFE
0FFE
1FFE
1FFE
1FFE
1F3E
1F3E
1F3E
1F3E
1F3E
0720
ENDCHAR
STARTCHAR 1F76
ENCODING 8054
SWIDTH 360 0
DWIDTH 9 0
BBX 10 18 0 0
BITMAP
E000
6FC0
6F80
3F80
0F80
0F80
1F80
1F80
1F80
1F80
1F80
1F80
1F80
1F80
1F80
1F00
1F00
3C00
ENDCHAR
STARTCHAR 1F78
ENCODING 8056
SWIDTH 560 0
DWIDTH 14 0
BBX 14 18 0 0
BITMAP
E000
6780
6FC0
3FE0
1FF0
1FF8
3FF8
3E7C
3C7C
3C7C
3E7C
3FFC
3FFC
3FFC
1FF8
1FF8
0FF8
03E0
ENDCHAR
STARTCHAR 1F7A
ENCODING 8058
SWIDTH 720 0
DWIDTH 18 0
BBX 18 18 0 0
BITMAP
E00000
6207C0
6F0780
3F0780
0F8F00
0F8F00
07DE00
07DE00
03FC00
03FC00
01F800
01F800
00F000
00F000
00F000
00F800
007800
007000
ENDCHAR
STARTCHAR 1F7C
ENCODING 8060
SWIDTH 640 0
DWIDTH 16 0
BBX 17 18 0 0
BITMAP
E00000
67F800
6FFC00
3FFE00
1FFE00
3FFF00
3E1F00
3C0F00
3C0F00
3C0700
1C0700
1E0F00
1E0F00
0F1E00
3F1F80
3F1F80
3F1F80
3F1F80
ENDCHAR
STARTCHAR 1FBA
ENCODING 8122
SWIDTH 600 0
DWIDTH 15 0
BBX 15 19 0 -1
BITMAP
3000
19C0
19C0
0DC0
03E0
03E0
07E0
07E0
07F0
0FF0
0EF0
1CF8
19F8
3FF8
3FFC
7CFC
787E
787E
C000
ENDCHAR
STARTCHAR 1FC0
ENCODING 8128
SWIDTH 320 0
DWIDTH 8 0
BBX 8 3 0 18
BITMAP
77
FF
FE
ENDCHAR
STARTCHAR 1FC6
ENCODING 8134
SWIDTH 560 0
DWIDTH 14 0
BBX 13 21 1 0
BITMAP
0F60
0FE0
0DC0
0000
3C00
7CF8
7CF8
7CF8
7CF0
7CF0
7FF0
7FF0
FFF0
FFF0
FFF0
FDF0
FDF0
F9F0
F9F0
F9F0
3900
ENDCHAR
STARTCHAR 1FC8
ENCODING 8136
SWIDTH 600 0
DWIDTH 15 0
BBX 15 18 0 0
BITMAP
E000
6FF8
6FF0
3FF0
0FF0
0FF0
0780
0780
07F0
07F0
07C0
07C4
07FC
03FE
03FE
03FE
03FC
03C0
ENDCHAR
STARTCHAR 1FCA
ENCODING 8138
SWIDTH 640 0
DWIDTH 16 0
BBX 16 18 0 0
BITMAP
E000
6780
6F9F
3F9F
0F9F
0F9E
0F9E
0FFE
0FFE
1FFE
1FFE
1FFE
1F3E
1F3E
1F3E
1F3E
1F3E
0720
ENDCHAR
STARTCHAR 1FDA
ENCODING 8154
SWIDTH 360 0
DWIDTH 9 0
BBX 10 18 0 0
BITMAP
E000
6FC0
6F80
3F80
0F80
0F80
1F80
1F80
1F80
1F80
1F80
1F80
1F80
1F80
1F80
1F00
1F00
3C00
ENDCHAR
STARTCHAR 1FEA
ENCODING 8170
SWIDTH 720 0
DWIDTH 18 0
BBX 18 18 0 0
BITMAP
E00000
6207C0
6F0780
3F0780
0F8F00
0F8F00
07DE00
07DE00
03FC00
03FC00
01F800
01F800
00F000
00F000
00F000
00F800
007800
007000
ENDCHAR
STARTCHAR 1FEF
ENCODING 8175
SWIDTH 160 0
DWIDTH 4 0
BBX 4 4 0 14
BITMAP
E0
60
30
30
ENDCHAR
STARTCHAR 1FF6
ENCODING 8182
SWIDTH 600 0
DWIDTH 15 0
BBX 15 21 0 0
BITMAP
0EE0
1FE0
1FC0
0000
1FE0
3FF0
3FF8
7FFC
7FFC
783C
781E
781E
781E
781E
781C
383C
3C38
FE7E
FE7E
FE7E
FE7E
ENDCHAR
STARTCHAR 1FF8
ENCODING 8184
SWIDTH 560 0
DWIDTH 14 0
BBX 14 18 0 0
BITMAP
E000
6780
6FC0
3FE0
1FF0
1FF8
3FF8
3E7C
3C7C
3C7C
3E7C
3FFC
3FFC
3FFC
1FF8
1FF8
0FF8
03E0
ENDCHAR
STARTCHAR 1FFA
ENCODING 8186
SWIDTH 640 0
DWIDTH 16 0
BBX 17 18 0 0
BITMAP
E00000
67F800
6FFC00
3FFE00
1FFE00
3FFF00
3E1F00
3C0F00
3C0F00
3C0700
1C0700
1E0F00
1E0F00
0F1E00
3F1F80
3F1F80
3F1F80
3F1F80
ENDCHAR
STARTCHAR 200B
ENCODING 8203
SWIDTH 0 0
DWIDTH 0 0
BBX 0 0 0 0
BITMAP
ENDCHAR
STARTCHAR 2010
ENCODING 8208
SWIDTH 280 0
DWIDTH 7 0
BBX 7 4 0 7
BITMAP
7E
FE
FE
FE
ENDCHAR
STARTCHAR 2011
ENCODING 8209
SWIDTH 360 0
DWIDTH 9 0
BBX 10 4 0 7
BITMAP
FFC0
FFC0
FFC0
FFC0
ENDCHAR
STARTCHAR 2012
ENCODING 8210
SWIDTH 480 0
DWIDTH 12 0
BBX 12 4 0 7
BITMAP
7FF0
7FF0
FFF0
FFF0
ENDCHAR
STARTCHAR 2013
ENCODING 8211
SWIDTH 480 0
DWIDTH 12 0
BBX 12 4 0 7
BITMAP
3FE0
FFF0
FFE0
FFE0
ENDCHAR
STARTCHAR 2014
ENCODING 8212
SWIDTH 560 0
DWIDTH 14 0
BBX 13 4 1 7
BITMAP
7FF8
FFF8
FFF8
FFF8
ENDCHAR
STARTCHAR 2015
ENCODING 8213
SWIDTH 680 0
DWIDTH 17 0
BBX 17 4 0 7
BITMAP
0FFF00
FFFF80
FFFF80
FFFF80
ENDCHAR
STARTCHAR 2016
ENCODING 8214
SWIDTH 240 0
DWIDTH 6 0
BBX 6 25 0 -4
BITMAP
6C
6C
6C
6C
6C
EC
EC
EC
EC
EC
EC
EC
EC
EC
EC
EC
EC
EC
EC
EC
EC
EC
6C
6C
4C
ENDCHAR
STARTCHAR 2017
ENCODING 8215
SWIDTH 360 0
DWIDTH 9 0
BBX 9 5 0 -4
BITMAP
FF80
FF80
0000
FF80
FF80
ENDCHAR
STARTCHAR 2018
ENCODING 8216
SWIDTH 200 0
DWIDTH 5 0
BBX 5 9 0 9
BITMAP
30
38
78
78
78
F0
F0
F0
70
ENDCHAR
STARTCHAR 2019
ENCODING 8217
SWIDTH 200 0
DWIDTH 5 0
BBX 5 9 0 9
BITMAP
78
78
78
78
78
70
F0
60
20
ENDCHAR
STARTCHAR 201A
ENCODING 8218
SWIDTH 200 0
DWIDTH 5 0
BBX 5 9 0 -4
BITMAP
78
78
78
78
78
70
F0
70
60
ENDCHAR
STARTCHAR 201B
ENCODING 8219
SWIDTH 200 0
DWIDTH 5 0
BBX 5 9 0 9
BITMAP
70
F0
F0
78
78
78
78
38
30
ENDCHAR
STARTCHAR 201C
ENCODING 8220
SWIDTH 360 0
DWIDTH 9 0
BBX 9 9 0 9
BITMAP
3180
3B80
7B80
7B80
7F80
F780
F780
F780
7780
ENDCHAR
STARTCHAR 201D
ENCODING 8221
SWIDTH 360 0
DWIDTH 9 0
BBX 10 9 0 9
BITMAP
7B80
7B80
7BC0
7F80
7F80
7780
F780
6700
2300
ENDCHAR
STARTCHAR 201E
ENCODING 8222
SWIDTH 360 0
DWIDTH 9 0
BBX 10 9 0 -4
BITMAP
7B80
7B80
7BC0
7F80
7F80
7780
F780
7700
6300
ENDCHAR
STARTCHAR 201F
ENCODING 8223
SWIDTH 360 0
DWIDTH 9 0
BBX 10 9 0 9
BITMAP
7780
F780
F780
7F80
7F80
7B80
7BC0
3B80
3100
ENDCHAR
STARTCHAR 2020
ENCODING 8224
SWIDTH 480 0
DWIDTH 12 0
BBX 12 24 0 -3
BITMAP
0F00
0F00
0F00
0F00
7FF0
7FF0
FFF0
FF80
0F00
0F00
0F00
0F00
0F00
0F00
0F00
0F00
0F00
0F00
0F00
0F00
0F00
0F00
0F00
0F00
ENDCHAR
STARTCHAR 2021
ENCODING 8225
SWIDTH 480 0
DWIDTH 12 0
BBX 12 24 0 -3
BITMAP
0F00
0F00
0F00
0F00
7FF0
7FF0
7FF0
7F00
0F00
0F00
0F00
0F00
0F00
0F00
0F00
0F00
0F00
FFF0
FFF0
7FF0
0F00
0F00
0F00
0F00
ENDCHAR
STARTCHAR 2022
ENCODING 8226
SWIDTH 280 0
DWIDTH 7 0
BBX 7 7 0 5
BITMAP
3C
7E
FE
FE
7E
7C
30
ENDCHAR
STARTCHAR 2023
ENCODING 8227
SWIDTH 280 0
DWIDTH 7 0
BBX 7 7 0 5
BITMAP
E0
F8
FE
FE
FC
F0
C0
ENDCHAR
STARTCHAR 2024
ENCODING 8228
SWIDTH 200 0
DWIDTH 5 0
BBX 5 4 0 0
BITMAP
70
F8
F8
70
ENDCHAR
STARTCHAR 2025
ENCODING 8229
SWIDTH 360 0
DWIDTH 9 0
BBX 9 5 0 0
BITMAP
0100
7380
F780
F780
7380
ENDCHAR
STARTCHAR 2026
ENCODING 8230
SWIDTH 560 0
DWIDTH 14 0
BBX 14 5 0 0
BITMAP
2110
73BC
F7BC
F7BC
7398
ENDCHAR
STARTCHAR 2027
ENCODING 8231
SWIDTH 200 0
DWIDTH 5 0
BBX 5 5 0 6
BITMAP
70
78
F8
78
10
ENDCHAR
STARTCHAR 202F
ENCODING 8239
SWIDTH 120 0
DWIDTH 3 0
BBX 0 0 0 0
BITMAP
ENDCHAR
STARTCHAR 2030
ENCODING 8240
SWIDTH 640 0
DWIDTH 16 0
BBX 16 17 0 0
BITMAP
1038
7C70
6C70
CCE0
CCE0
6DC0
7DC0
1380
076C
07FE
0EFF
0EDB
1CDB
38FF
387E
7024
2000
ENDCHAR
STARTCHAR 2031
ENCODING 8241
SWIDTH 720 0
DWIDTH 18 0
BBX 18 17 0 0
BITMAP
103800
7C7000
6C7000
CCE000
CCE000
6DC000
7DC000
138000
076D00
07FF80
0EFFC0
0EB6C0
1CB6C0
38FF80
38FF80
700900
200000
ENDCHAR
STARTCHAR 2039
ENCODING 8249
SWIDTH 240 0
DWIDTH 6 0
BBX 6 11 0 1
BITMAP
0C
1C
3C
7C
F0
E0
FC
3C
1C
0C
04
ENDCHAR
STARTCHAR 203A
ENCODING 8250
SWIDTH 240 0
DWIDTH 6 0
BBX 6 11 0 0
BITMAP
C0
E0
F0
FC
3C
1C
78
78
70
E0
80
ENDCHAR
STARTCHAR 203C
ENCODING 8252
SWIDTH 480 0
DWIDTH 12 0
BBX 12 19 0 0
BITMAP
00F0
FFF0
F9E0
F9E0
79E0
79E0
79E0
79E0
79E0
79E0
79E0
79E0
70C0
0000
0000
30E0
79E0
78E0
38E0
ENDCHAR
STARTCHAR 203E
ENCODING 8254
SWIDTH 360 0
DWIDTH 9 0
BBX 9 3 0 17
BITMAP
7F80
FF80
FF80
ENDCHAR
STARTCHAR 2043
ENCODING 8259
SWIDTH 280 0
DWIDTH 7 0
BBX 7 4 0 7
BITMAP
FE
FE
FE
FE
ENDCHAR
STARTCHAR 2044
ENCODING 8260
SWIDTH 400 0
DWIDTH 10 0
BBX 10 18 0 0
BITMAP
03C0
03C0
07C0
0780
0780
0F80
0F00
0F00
1E00
1E00
1E00
1C00
3C00
3800
7800
7000
7000
E000
ENDCHAR
STARTCHAR 2045
ENCODING 8261
SWIDTH 320 0
DWIDTH 8 0
BBX 8 24 0 -4
BITMAP
FF
FF
7F
70
70
70
70
70
F0
F0
FF
FF
FF
F0
F0
F0
70
70
F0
F0
FF
FF
FF
F8
ENDCHAR
STARTCHAR 2046
ENCODING 8262
SWIDTH 320 0
DWIDTH 8 0
BBX 8 24 0 -4
BITMAP
FF
FF
FF
07
07
07
07
07
07
07
FF
FF
FF
07
07
07
07
07
07
07
FF
FF
FF
70
ENDCHAR
STARTCHAR 2047
ENCODING 8263
SWIDTH 680 0
DWIDTH 17 0
BBX 16 18 1 0
BITMAP
783C
FE7F
FEFF
FEFF
CEC7
0E07
0E07
1E0F
3E3E
7C3C
7838
7038
7000
0000
3018
7038
7038
3018
ENDCHAR
STARTCHAR 2048
ENCODING 8264
SWIDTH 560 0
DWIDTH 14 0
BBX 13 19 1 0
BITMAP
0038
78F8
FEF8
FEF8
FEF8
CEF8
0E78
0E78
1E70
3E70
7C70
7870
7070
7000
0000
3070
7078
7078
3030
ENDCHAR
STARTCHAR 2049
ENCODING 8265
SWIDTH 560 0
DWIDTH 14 0
BBX 14 18 0 0
BITMAP
FCF8
F9FC
F9FC
79FC
799C
781C
781C
783C
787C
78F0
78E0
70E0
0000
0000
3060
78E0
78F0
3860
ENDCHAR
STARTCHAR 204B
ENCODING 8267
SWIDTH 360 0
DWIDTH 9 0
BBX 9 20 0 -2
BITMAP
7C00
7F00
7F80
7F80
6F80
6F80
EF80
6F80
EF80
EF80
6F00
6E00
EE00
EE00
EE00
EE00
EE00
6E00
EE00
6E00
ENDCHAR
STARTCHAR 204F
ENCODING 8271
SWIDTH 200 0
DWIDTH 5 0
BBX 6 16 0 -4
BITMAP
70
F8
F8
70
00
00
00
00
78
F8
F8
70
30
3C
3C
18
ENDCHAR
STARTCHAR 2052
ENCODING 8274
SWIDTH 480 0
DWIDTH 12 0
BBX 12 17 0 0
BITMAP
0070
0060
70E0
70C0
F1C0
7380
0380
0700
0700
0E00
1CE0
1CF0
38F0
38F0
7000
E000
4000
ENDCHAR
STARTCHAR 2070
ENCODING 8304
SWIDTH 200 0
DWIDTH 5 0
BBX 5 8 0 10
BITMAP
70
78
78
D8
D8
78
78
30
ENDCHAR
STARTCHAR 2074
ENCODING 8308
SWIDTH 200 0
DWIDTH 5 0
BBX 5 9 1 8
BITMAP
40
C0
C0
F0
F8
20
60
60
60
ENDCHAR
STARTCHAR 2075
ENCODING 8309
SWIDTH 240 0
DWIDTH 6 0
BBX 6 8 0 9
BITMAP
3C
60
70
78
0C
0C
8C
78
ENDCHAR
STARTCHAR 2076
ENCODING 8310
SWIDTH 240 0
DWIDTH 6 0
BBX 6 9 0 8
BITMAP
3C
70
60
F8
FC
CC
4C
7C
30
ENDCHAR
STARTCHAR 2077
ENCODING 8311
SWIDTH 200 0
DWIDTH 5 0
BBX 5 8 0 9
BITMAP
F8
F8
98
18
38
70
70
70
ENDCHAR
STARTCHAR 2078
ENCODING 8312
SWIDTH 240 0
DWIDTH 6 0
BBX 6 9 0 9
BITMAP
10
78
78
78
78
6C
EC
7C
38
ENDCHAR
STARTCHAR 2079
ENCODING 8313
SWIDTH 240 0
DWIDTH 6 0
BBX 6 8 0 9
BITMAP
78
7C
CC
FC
7C
0C
5C
78
ENDCHAR
STARTCHAR 2080
ENCODING 8320
SWIDTH 200 0
DWIDTH 5 0
BBX 5 9 0 0
BITMAP
20
70
78
D8
D8
F8
78
78
30
ENDCHAR
STARTCHAR 2081
ENCODING 8321
SWIDTH 200 0
DWIDTH 5 0
BBX 4 8 1 1
BITMAP
20
F0
B0
70
70
70
70
70
ENDCHAR
STARTCHAR 2082
ENCODING 8322
SWIDTH 240 0
DWIDTH 6 0
BBX 5 9 1 0
BITMAP
60
F0
B0
30
30
78
78
F8
60
ENDCHAR
STARTCHAR 2083
ENCODING 8323
SWIDTH 240 0
DWIDTH 6 0
BBX 6 8 0 0
BITMAP
70
30
70
78
0C
0C
FC
38
ENDCHAR
STARTCHAR 2084
ENCODING 8324
SWIDTH 200 0
DWIDTH 5 0
BBX 5 8 0 0
BITMAP
20
60
60
78
F8
10
30
38
ENDCHAR
STARTCHAR 2085
ENCODING 8325
SWIDTH 240 0
DWIDTH 6 0
BBX 6 8 0 1
BITMAP
38
60
78
1C
0C
0C
FC
78
ENDCHAR
STARTCHAR 2086
ENCODING 8326
SWIDTH 240 0
DWIDTH 6 0
BBX 6 9 0 -1
BITMAP
3C
70
60
F8
FC
CC
4C
7C
10
ENDCHAR
STARTCHAR 2087
ENCODING 8327
SWIDTH 200 0
DWIDTH 5 0
BBX 5 9 0 0
BITMAP
78
F8
D8
18
38
30
70
70
80
ENDCHAR
STARTCHAR 2088
ENCODING 8328
SWIDTH 240 0
DWIDTH 6 0
BBX 6 9 0 0
BITMAP
30
78
78
78
7C
CC
EC
7C
38
ENDCHAR
STARTCHAR 2089
ENCODING 8329
SWIDTH 240 0
DWIDTH 6 0
BBX 6 9 0 0
BITMAP
10
78
4C
CC
7C
0C
0C
78
38
ENDCHAR
STARTCHAR 20A0
ENCODING 8352
SWIDTH 520 0
DWIDTH 13 0
BBX 13 17 0 0
BITMAP
1F80
3FC0
7F80
7800
F000
F3F8
F3F8
F3F8
7B80
7FF0
3FF0
1FE0
0380
03F8
03F8
03F8
03C0
ENDCHAR
STARTCHAR 20A4
ENCODING 8356
SWIDTH 520 0
DWIDTH 13 0
BBX 13 17 0 0
BITMAP
03C0
07F0
0FF8
0F78
1F78
1F30
7FE0
FFE0
FFE0
7FE0
FFE0
FFE0
1F00
7FF8
7FF8
7FF8
3FF0
ENDCHAR
STARTCHAR 20A6
ENCODING 8358
SWIDTH 480 0
DWIDTH 12 0
BBX 12 17 0 0
BITMAP
18C0
39C0
3DC0
7FF0
FFF0
FFE0
3EC0
3FC0
3FC0
3FE0
3BE0
FFF0
7FF0
7FE0
3DE0
3DE0
3C80
ENDCHAR
STARTCHAR 20A7
ENCODING 8359
SWIDTH 680 0
DWIDTH 17 0
BBX 17 17 0 0
BITMAP
780000
7C0000
7E0000
7E0000
760000
77F380
77F780
77FF80
7FFE00
7EE600
F0E780
F0E380
F0E180
F0E780
F0E780
F0E780
F0E700
ENDCHAR
STARTCHAR 20A8
ENCODING 8360
SWIDTH 600 0
DWIDTH 15 0
BBX 15 18 0 0
BITMAP
1800
7E00
FF80
F780
F380
F380
F3BC
F7FE
7F7E
FE70
7E78
FE3C
FF1E
F74E
F7FE
77FE
73FE
73F8
ENDCHAR
STARTCHAR 20A9
ENCODING 8361
SWIDTH 680 0
DWIDTH 17 0
BBX 17 18 0 0
BITMAP
080000
38CE00
3CCF00
7FFF80
7FFF80
7FFF80
3FDE00
1FFE00
7FFF80
7FFF80
FFFF80
0F7C00
0F7800
0F7800
0F3800
063000
063000
063000
ENDCHAR
STARTCHAR 20AA
ENCODING 8362
SWIDTH 600 0
DWIDTH 15 0
BBX 15 17 0 0
BITMAP
3F0E
7FCE
7FEE
79EE
70EE
F0EE
F0EE
F6EE
F6EE
F6CE
F60E
F70E
E71E
E7FE
67FE
63FC
60F0
ENDCHAR
STARTCHAR 20AB
ENCODING 8363
SWIDTH 440 0
DWIDTH 11 0
BBX 12 18 0 0
BITMAP
03C0
03C0
1FF0
1FF0
03C0
3FC0
7FC0
7FC0
F3C0
63C0
73C0
7FC0
3FC0
1F80
0200
7FE0
7FE0
FFE0
ENDCHAR
STARTCHAR 20AC
ENCODING 8364
SWIDTH 560 0
DWIDTH 14 0
BBX 14 19 0 -1
BITMAP
00F0
07F8
0FFC
0FFC
1FF8
1F00
7FF0
7FF0
FFF0
7E00
7FF0
FFF0
FFF0
7F00
1FC8
0FFC
07FC
03FC
00C0
ENDCHAR
STARTCHAR 20AD
ENCODING 8365
SWIDTH 520 0
DWIDTH 13 0
BBX 13 17 0 0
BITMAP
3C60
3CF0
3DF0
3DE0
3FE0
3FC0
3F80
FFF8
FFF8
FFF8
3F80
3FC0
3DE0
3DF0
3CF0
3CF8
3C40
ENDCHAR
STARTCHAR 20AE
ENCODING 8366
SWIDTH 440 0
DWIDTH 11 0
BBX 11 17 0 0
BITMAP
7FE0
FFE0
FFE0
7FA0
0F00
0FC0
1FE0
7F00
3F00
0FC0
1FE0
7F80
3F00
0F00
0F00
0F00
0F00
ENDCHAR
STARTCHAR 20B2
ENCODING 8370
SWIDTH 480 0
DWIDTH 12 0
BBX 12 23 0 -3
BITMAP
0700
0700
0700
07C0
0FE0
1FF0
3FE0
3F00
3700
7700
77F0
77F0
77F0
7770
FFF0
FFF0
7FF0
7FC0
3F80
1F00
0700
0700
0700
ENDCHAR
STARTCHAR 20B4
ENCODING 8372
SWIDTH 480 0
DWIDTH 12 0
BBX 12 18 0 0
BITMAP
0600
1F80
3FC0
3FE0
3FE0
21E0
01C0
7FF0
FFF0
1F00
7FF0
FFF0
7C00
1F60
1FE0
1FE0
1FE0
0FE0
ENDCHAR
STARTCHAR 20B5
ENCODING 8373
SWIDTH 480 0
DWIDTH 12 0
BBX 12 21 0 -2
BITMAP
0380
0380
0380
1FE0
3FF0
7FF0
7FF0
7F80
FB80
F380
F380
F380
7BB0
7FF0
7FF0
3FF0
3FF0
1FE0
0780
0780
0780
ENDCHAR
STARTCHAR 20B8
ENCODING 8376
SWIDTH 400 0
DWIDTH 10 0
BBX 10 18 0 0
BITMAP
7FC0
7FC0
FFC0
FFC0
0000
0000
FFC0
FFC0
FFC0
1E00
0E00
1E00
1E00
1E00
1E00
1E00
1E00
1E00
ENDCHAR
STARTCHAR 20B9
ENCODING 8377
SWIDTH 560 0
DWIDTH 14 0
BBX 13 17 0 1
BITMAP
FFF8
FFF8
07A0
01C0
7FF8
7FF8
03C0
7F80
FF80
FE00
0E00
0F00
0780
0780
03C0
03C0
01E0
ENDCHAR
STARTCHAR 20BA
ENCODING 8378
SWIDTH 520 0
DWIDTH 13 0
BBX 14 17 0 1
BITMAP
1E00
1E00
1F80
3FC0
7E00
7E00
1F80
3FC0
FF00
7E3C
1E3C
1E38
1E78
0FF8
0FF8
07F0
03C0
ENDCHAR
STARTCHAR 20BD
ENCODING 8381
SWIDTH 480 0
DWIDTH 12 0
BBX 12 17 0 1
BITMAP
3F80
3FC0
3FE0
38E0
38E0
38F0
3DE0
FFF0
FFE0
7FC0
3C00
7FC0
FFE0
FFE0
3C00
3C00
3C00
ENDCHAR
STARTCHAR 20BF
ENCODING 8383
SWIDTH 520 0
DWIDTH 13 0
BBX 13 22 0 -2
BITMAP
1CE0
1CE0
1CE0
7FE0
7FE0
7FE0
3FF0
3CF0
3C70
3EE0
3FE0
3FC0
3FF0
3EF0
3E78
3E78
FFF8
FFF8
FFE0
FFE0
1DE0
1DE0
ENDCHAR
STARTCHAR 20C0
ENCODING 8384
SWIDTH 480 0
DWIDTH 12 0
BBX 12 17 0 0
BITMAP
0FE0
3FF0
3FF0
7FE0
7800
7000
7000
7800
7FE0
7FE0
3FF0
1FE0
0FC0
0000
FFF0
FFF0
7FF0
ENDCHAR
STARTCHAR 2116
ENCODING 8470
SWIDTH 640 0
DWIDTH 16 0
BBX 16 17 0 0
BITMAP
7180
7BC0
7B80
7B80
7B80
7B8C
7B9E
7FBF
7FB3
7FB3
7FBF
779E
778C
7780
73BF
F3BF
F300
ENDCHAR
STARTCHAR 2117
ENCODING 8471
SWIDTH 640 0
DWIDTH 16 0
BBX 16 16 0 1
BITMAP
03C0
1FF8
3FFC
381E
73CF
73E7
E3B3
E3B3
E3E3
6383
6387
6387
338E
3C1E
0FFC
07F8
ENDCHAR
STARTCHAR 2120
ENCODING 8480
SWIDTH 600 0
DWIDTH 15 0
BBX 15 8 0 8
BITMAP
3E44
7C44
7CEE
70FE
3CFE
0CEE
FECE
7CCE
ENDCHAR
STARTCHAR 2122
ENCODING 8482
SWIDTH 600 0
DWIDTH 15 0
BBX 15 8 0 8
BITMAP
FE44
FE44
FCEE
18FE
18FE
18EE
18CE
18CE
ENDCHAR
STARTCHAR 2139
ENCODING 8505
SWIDTH 720 0
DWIDTH 18 0
BBX 18 18 0 0
BITMAP
01C780
7FFFC0
7FFFC0
7E1FC0
7E1FC0
7E1FC0
7F3FC0
7FFFC0
781FC0
781FC0
7F1FC0
7F1FC0
7F1FC0
7F1FC0
F803C0
7F7FC0
FFFFC0
FFFFC0
ENDCHAR
STARTCHAR 2150
ENCODING 8528
SWIDTH 560 0
DWIDTH 14 0
BBX 13 17 1 0
BITMAP
7070
F0E0
F0E0
71C0
71C0
7380
7380
7700
0E78
0EF8
1C98
1C30
3830
7070
7070
E0E0
4000
ENDCHAR
STARTCHAR 2151
ENCODING 8529
SWIDTH 560 0
DWIDTH 14 0
BBX 13 17 1 0
BITMAP
7070
F0E0
F0E0
71C0
71C0
7380
7380
7700
0E00
0EF0
1D98
1D98
38F8
7018
7018
E0F0
4070
ENDCHAR
STARTCHAR 2152
ENCODING 8530
SWIDTH 720 0
DWIDTH 18 0
BBX 17 17 1 0
BITMAP
707000
F0E000
F0E000
71C000
71C000
738000
738000
770000
0E6400
0FEE00
1DEF00
1C6D00
386D80
70ED80
70EF00
E0E700
400300
ENDCHAR
STARTCHAR 2153
ENCODING 8531
SWIDTH 560 0
DWIDTH 14 0
BBX 13 17 1 0
BITMAP
7070
F0E0
F0E0
71C0
71C0
7380
7380
7700
0E00
0EE0
1C60
1CE0
38F0
7018
7018
E1F0
4070
ENDCHAR
STARTCHAR 2154
ENCODING 8532
SWIDTH 560 0
DWIDTH 14 0
BBX 14 17 0 0
BITMAP
7838
F870
5870
18E0
10E0
3DC0
7DC0
7F80
0700
0770
0E30
0E70
1C78
380C
380C
70F8
2038
ENDCHAR
STARTCHAR 2155
ENCODING 8533
SWIDTH 560 0
DWIDTH 14 0
BBX 13 17 1 0
BITMAP
7070
F0E0
F0E0
71C0
71C0
7380
7380
7700
0E10
0EF0
1CC0
1CE0
3830
7038
7018
E1B0
40F0
ENDCHAR
STARTCHAR 2156
ENCODING 8534
SWIDTH 560 0
DWIDTH 14 0
BBX 14 17 0 0
BITMAP
7838
F870
5870
18E0
10E0
3DC0
7DC0
7F80
0708
0778
0E60
0E70
1C18
381C
380C
70D8
2078
ENDCHAR
STARTCHAR 2157
ENCODING 8535
SWIDTH 560 0
DWIDTH 14 0
BBX 13 17 1 0
BITMAP
E070
E0E0
60E0
F1C0
39C0
1B80
1B80
F700
2E10
0EF0
1CC0
1CE0
3830
7038
7018
E1B0
40F0
ENDCHAR
STARTCHAR 2158
ENCODING 8536
SWIDTH 560 0
DWIDTH 14 0
BBX 13 17 1 0
BITMAP
4070
C0E0
C0E0
F1C0
F9C0
2380
6380
6700
6E10
0EF0
1CC0
1CE0
3830
7038
7018
E1B0
40F0
ENDCHAR
STARTCHAR 2159
ENCODING 8537
SWIDTH 560 0
DWIDTH 14 0
BBX 13 18 1 -1
BITMAP
7070
F0E0
F0E0
71C0
71C0
7380
7380
7700
0E00
0E70
1CC0
1D80
39F0
71F0
7198
E198
40F0
0060
ENDCHAR
STARTCHAR 215A
ENCODING 8538
SWIDTH 560 0
DWIDTH 14 0
BBX 14 18 0 -1
BITMAP
3C38
6070
7070
78E0
0CE0
0DC0
8DC0
7B80
0700
0738
0E60
0EC0
1CF8
38F8
38CC
70CC
2078
0030
ENDCHAR
STARTCHAR 215B
ENCODING 8539
SWIDTH 560 0
DWIDTH 14 0
BBX 13 17 1 0
BITMAP
7070
F0E0
F0E0
71C0
71C0
7380
7380
7700
0E60
0EF0
1CE0
1CE0
39F0
7198
7198
E1F8
40F0
ENDCHAR
STARTCHAR 215C
ENCODING 8540
SWIDTH 560 0
DWIDTH 14 0
BBX 13 17 1 0
BITMAP
E070
E0E0
60E0
F1C0
39C0
1B80
1B80
F700
2E60
0EF0
1CE0
1CE0
39F0
7198
7198
E1F8
40F0
ENDCHAR
STARTCHAR 215D
ENCODING 8541
SWIDTH 560 0
DWIDTH 14 0
BBX 14 17 0 0
BITMAP
3C38
6070
7070
78E0
0CE0
0DC0
8DC0
7B80
0730
0778
0E70
0E70
1CF8
38CC
38CC
70FC
2078
ENDCHAR
STARTCHAR 215E
ENCODING 8542
SWIDTH 560 0
DWIDTH 14 0
BBX 14 17 0 0
BITMAP
F838
F870
9870
18E0
38E0
71C0
71C0
7380
0730
0778
0E70
0E70
1CF8
38CC
38CC
70FC
2078
ENDCHAR
STARTCHAR 215F
ENCODING 8543
SWIDTH 560 0
DWIDTH 14 0
BBX 12 17 1 0
BITMAP
7070
F0E0
F0E0
71C0
71C0
7380
7380
7700
0E00
0E00
1C00
1C00
3800
7000
7000
E000
4000
ENDCHAR
STARTCHAR 2189
ENCODING 8585
SWIDTH 560 0
DWIDTH 14 0
BBX 14 17 0 1
BITMAP
7038
7870
7870
D8E0
D8E0
79C0
79C0
3380
0700
0770
0E30
0E70
1C78
380C
380C
70F8
2038
ENDCHAR
STARTCHAR 2190
ENCODING 8592
SWIDTH 680 0
DWIDTH 17 0
BBX 17 13 0 3
BITMAP
030000
070000
1F0000
3F0000
7FE600
FFFF80
FFFF80
7FFF80
3F0000
1F0000
0F0000
070000
010000
ENDCHAR
STARTCHAR 2191
ENCODING 8593
SWIDTH 680 0
DWIDTH 17 0
BBX 14 17 2 0
BITMAP
0380
0780
0FC0
1FE0
3FF0
7FF8
FFFC
0780
0780
0780
0780
0700
0700
0780
0780
0700
0100
ENDCHAR
STARTCHAR 2192
ENCODING 8594
SWIDTH 680 0
DWIDTH 17 0
BBX 17 13 0 3
BITMAP
003000
003800
003C00
003E00
7FFF00
7FFF80
7FFF80
FFFF80
003F00
003E00
003800
003000
002000
ENDCHAR
STARTCHAR 2193
ENCODING 8595
SWIDTH 680 0
DWIDTH 17 0
BBX 14 17 2 0
BITMAP
0780
0780
0780
0780
0780
0780
0780
0780
0780
FFFC
FFF8
7FF0
3FE0
1FC0
0F80
0700
0600
ENDCHAR
STARTCHAR 2194
ENCODING 8596
SWIDTH 680 0
DWIDTH 17 0
BBX 17 14 0 2
BITMAP
040000
0C0800
1C0C00
1C0E00
3C0E00
7FFF00
FFFF80
FFFF80
7FFF80
3C0F00
1C0E00
1C0C00
0C0C00
040800
ENDCHAR
STARTCHAR 2195
ENCODING 8597
SWIDTH 680 0
DWIDTH 17 0
BBX 14 17 2 0
BITMAP
0780
0FC0
1FE0
3FF0
FFF8
0780
0780
0780
0780
0780
0780
FFFC
7FF8
3FE0
1FC0
0F80
0600
ENDCHAR
STARTCHAR 2196
ENCODING 8598
SWIDTH 680 0
DWIDTH 17 0
BBX 13 14 2 2
BITMAP
6000
FFC0
FF80
FF80
FE00
FE00
FF00
FF80
E7C0
C3E0
41F0
00F8
0078
0030
ENDCHAR
STARTCHAR 2197
ENCODING 8599
SWIDTH 680 0
DWIDTH 17 0
BBX 12 14 3 2
BITMAP
0060
3FF0
1FF0
0FF0
07F0
07F0
0FF0
1FF0
3E70
7C30
F810
F800
F000
6000
ENDCHAR
STARTCHAR 2198
ENCODING 8600
SWIDTH 680 0
DWIDTH 17 0
BBX 13 14 2 2
BITMAP
2000
7000
F800
7C08
3E08
1F18
0FB8
07F8
03F8
01F8
07F8
0FF8
0FF8
07F8
ENDCHAR
STARTCHAR 2199
ENCODING 8601
SWIDTH 680 0
DWIDTH 17 0
BBX 13 14 2 2
BITMAP
0020
0070
00F8
01F8
C3F0
E7E0
FFC0
FF80
FF00
FE00
FF00
FF80
FFC0
7F80
ENDCHAR
STARTCHAR 2212
ENCODING 8722
SWIDTH 480 0
DWIDTH 12 0
BBX 12 4 0 7
BITMAP
7FC0
FFF0
7FF0
7FF0
ENDCHAR
STARTCHAR 2213
ENCODING 8723
SWIDTH 440 0
DWIDTH 11 0
BBX 12 15 0 1
BITMAP
FFE0
FFE0
5FE0
0000
0F00
0F00
0F00
0FE0
FFF0
FFE0
FFE0
0F00
0F00
0F00
0F00
ENDCHAR
STARTCHAR 2214
ENCODING 8724
SWIDTH 440 0
DWIDTH 11 0
BBX 12 14 0 4
BITMAP
0600
0600
0600
0000
0F00
0F00
0F00
FFE0
FFE0
FFE0
FFF0
0F00
0F00
0F00
ENDCHAR
STARTCHAR 2215
ENCODING 8725
SWIDTH 400 0
DWIDTH 10 0
BBX 10 18 0 0
BITMAP
03C0
03C0
07C0
0780
0780
0F80
0F00
0F00
1E00
1E00
1E00
1C00
3C00
3800
7800
7000
7000
E000
ENDCHAR
STARTCHAR 2216
ENCODING 8726
SWIDTH 400 0
DWIDTH 10 0
BBX 10 18 0 0
BITMAP
2000
F000
7000
7800
3800
3800
3C00
1C00
1E00
1E00
0F00
0F00
0F00
0F80
0780
0780
07C0
03C0
ENDCHAR
STARTCHAR 2219
ENCODING 8729
SWIDTH 200 0
DWIDTH 5 0
BBX 5 5 0 6
BITMAP
70
78
F8
78
10
ENDCHAR
STARTCHAR 221A
ENCODING 8730
SWIDTH 480 0
DWIDTH 12 0
BBX 12 17 0 0
BITMAP
0070
0060
00E0
00E0
00C0
F1C0
F1C0
7180
3380
3B80
1B00
1F00
1E00
1E00
0C00
0C00
0C00
ENDCHAR
STARTCHAR 2248
ENCODING 8776
SWIDTH 480 0
DWIDTH 12 0
BBX 12 13 0 2
BITMAP
38F0
7FF0
FFF0
FFE0
F7C0
0000
0000
38F0
7EF0
7FF0
FFE0
F7C0
E380
ENDCHAR
STARTCHAR 2260
ENCODING 8800
SWIDTH 480 0
DWIDTH 12 0
BBX 12 15 0 1
BITMAP
0180
0380
0380
7FF0
7FF0
FFF0
6700
0600
7FF0
FFF0
FFF0
FFE0
1C00
1800
1800
ENDCHAR
STARTCHAR 2261
ENCODING 8801
SWIDTH 480 0
DWIDTH 12 0
BBX 12 14 0 2
BITMAP
03E0
7FF0
7FF0
FFE0
0000
33C0
7FF0
FFF0
FFE0
0000
0000
FFF0
FFF0
FFF0
ENDCHAR
STARTCHAR 2310
ENCODING 8976
SWIDTH 480 0
DWIDTH 12 0
BBX 12 7 0 4
BITMAP
3FE0
FFF0
FFE0
FFE0
F000
7000
7000
ENDCHAR
STARTCHAR 2319
ENCODING 8985
SWIDTH 480 0
DWIDTH 12 0
BBX 12 7 0 4
BITMAP
F000
7000
F000
FFF0
FFF0
FFE0
FFE0
ENDCHAR
STARTCHAR 2609
ENCODING 9737
SWIDTH 640 0
DWIDTH 16 0
BBX 16 16 0 1
BITMAP
03F0
0FFC
1FFE
380E
7007
6007
61C3
E3E3
E3E3
E3E3
7187
7007
780E
3C3E
3FFC
0FF0
ENDCHAR
STARTCHAR 2615
ENCODING 9749
SWIDTH 560 0
DWIDTH 14 0
BBX 14 18 0 0
BITMAP
4000
E000
E200
7B00
3B80
0480
7FC0
FFFC
FFFC
7FE4
7FE4
7FE4
7FFC
7FFC
7FF8
7FE0
7FE0
3FC0
ENDCHAR
STARTCHAR 2621
ENCODING 9761
SWIDTH 600 0
DWIDTH 15 0
BBX 14 17 1 0
BITMAP
07E0
07E0
0FE0
0FE0
0EE0
0EE0
1EE0
1EE0
1CE0
3CE0
3CE0
38E0
78FC
78FC
F8FC
F8FC
F0F8
ENDCHAR
STARTCHAR 262E
ENCODING 9774
SWIDTH 680 0
DWIDTH 17 0
BBX 17 17 0 0
BITMAP
07F800
1FFE00
3DCF00
31C700
61C380
61C380
61C180
E7F180
EFF980
FFFF80
7DCF80
71C780
71C700
39CE00
3FFC00
1FF800
01E000
ENDCHAR
STARTCHAR 2647
ENCODING 9799
SWIDTH 440 0
DWIDTH 11 0
BBX 11 18 0 0
BITMAP
0400
FF00
FFC0
FFC0
F9C0
F8E0
F8E0
F9E0
FFE0
FFE0
FFC0
F800
F800
F800
7FE0
FFE0
FFE0
7FE0
ENDCHAR
STARTCHAR 29EB
ENCODING 10731
SWIDTH 440 0
DWIDTH 11 0
BBX 11 23 0 -3
BITMAP
0E00
0E00
1F00
1F00
1F80
3F80
3FC0
3FC0
7FE0
7FE0
FFE0
FFE0
7FE0
7FE0
7FC0
3FC0
3F80
1F80
1F00
1F00
0E00
0E00
0C00
ENDCHAR
STARTCHAR 2E2E
ENCODING 11822
SWIDTH 440 0
DWIDTH 11 0
BBX 11 18 0 0
BITMAP
1F80
7FC0
7FE0
FFE0
F8E0
F800
7800
7C00
7F00
1F80
0F80
0780
0700
0000
0700
0F80
0F80
0700
ENDCHAR
STARTCHAR 2E38
ENCODING 11832
SWIDTH 480 0
DWIDTH 12 0
BBX 12 24 0 -3
BITMAP
0F00
0F00
0F00
0F00
0F00
0F00
0F00
0F00
0F00
0F00
0F00
0F00
0F00
0F00
0F00
0F00
0F00
FFF0
FFF0
FFF0
0F00
0F00
0F00
0F00
ENDCHAR
STARTCHAR 2E4B
ENCODING 11851
SWIDTH 480 0
DWIDTH 12 0
BBX 12 24 0 -3
BITMAP
0F00
0F00
0F00
0F00
7FF0
7FF0
FFF0
FF80
0F00
0F00
3FC0
7FF0
FFF0
FFE0
0F00
0F00
0F00
FFF0
FFF0
FFF0
0F00
0F00
0F00
0F00
ENDCHAR
STARTCHAR 3012
ENCODING 12306
SWIDTH 560 0
DWIDTH 14 0
BBX 14 18 0 0
BITMAP
7F80
FFFC
7FFC
7FFC
0000
0000
7FFC
FFFC
FFFC
FFFC
0780
0780
0780
0780
0780
0780
0780
0780
ENDCHAR
STARTCHAR 3036
ENCODING 12342
SWIDTH 640 0
DWIDTH 16 0
BBX 16 16 0 1
BITMAP
03F0
1FFC
3FFE
380E
77F7
67F7
6003
E7F3
E7F3
E083
6183
7187
798E
3C3C
3FF8
0FF0
ENDCHAR
STARTCHAR 4E00
ENCODING 19968
SWIDTH 680 0
DWIDTH 17 0
BBX 17 4 0 7
BITMAP
7FFF80
FFFF80
FFFF80
FFFF80
ENDCHAR
STARTCHAR 5186
ENCODING 20870
SWIDTH 680 0
DWIDTH 17 0
BBX 17 17 0 0
BITMAP
7FFF80
7FFF80
7FFF80
7FFF80
71C780
79C780
79C780
79C780
7FFF80
7FFF80
7FFF80
780780
780780
700780
700700
700700
F00700
ENDCHAR
STARTCHAR 8336
ENCODING 33590
SWIDTH 680 0
DWIDTH 17 0
BBX 17 18 0 0
BITMAP
180E00
188E00
FFFF80
FFFF80
180E00
03F000
0FFC00
3E3E00
79CF00
01C080
1FFE00
3FFE00
1FFE00
0DC800
0DDC00
1DDE00
7DCF00
71C300
ENDCHAR
STARTCHAR 9F99
ENCODING 40857
SWIDTH 680 0
DWIDTH 17 0
BBX 17 17 0 0
BITMAP
03B800
03BC00
079C00
078000
7FFF80
FFFF80
07E600
076000
0E6200
0E6700
0E7F00
1C7E00
1CF800
39F100
73FF00
F1FF00
603E00
ENDCHAR
STARTCHAR A78B
ENCODING 42891
SWIDTH 200 0
DWIDTH 5 0
BBX 5 14 0 5
BITMAP
10
F8
F8
78
78
78
78
78
78
78
78
78
38
38
ENDCHAR
STARTCHAR A78C
ENCODING 42892
SWIDTH 200 0
DWIDTH 5 0
BBX 5 14 0 5
BITMAP
10
F8
F8
78
78
78
78
78
78
78
78
78
38
38
ENDCHAR
STARTCHAR FFFD
ENCODING 65533
SWIDTH 440 0
DWIDTH 11 0
BBX 11 23 0 -3
BITMAP
0700
0F00
0F00
1F80
1F80
3F80
30C0
6040
6040
6E60
FE60
FC60
78E0
71E0
79C0
3FC0
3980
1980
1980
0F00
0F00
0700
0200
ENDCHAR
ENDFONT
